<svg width="2708" height="540" viewBox="0 0 2708 540" fill="none" xmlns="http://www.w3.org/2000/svg">
<path fill-rule="evenodd" clip-rule="evenodd" d="M261.456 68.1865C253.628 78.8783 245.659 90.7908 240.215 99.3206L234.056 108.973L222.846 110.522C123.266 124.283 49.3346 204.676 49.3346 298.91C49.3346 402.366 138.692 489.349 252.84 489.349C366.987 489.349 456.345 402.366 456.345 298.91C456.345 272.743 450.717 247.836 440.51 225.141L485.372 204.259C498.435 233.304 505.68 265.317 505.68 298.91C505.68 433.526 390.725 539.539 252.84 539.539C114.955 539.539 0 433.526 0 298.91C0 180.275 89.4713 83.6982 204.954 62.5939C211.414 52.8463 219.42 41.2854 227.08 31.2619C232.164 24.6104 237.631 17.9264 242.706 12.8398C245.15 10.3898 248.357 7.43692 252.022 5.07425C253.86 3.88898 256.633 2.31261 260.123 1.23909C263.537 0.189061 269.401 -0.910787 276.139 1.21079C284.943 3.98294 289.95 10.3077 292.063 13.3053C294.532 16.8064 296.304 20.5241 297.527 23.3536C299.427 27.7515 301.309 33.2062 302.832 37.6211C303.208 38.711 303.563 39.7375 303.89 40.6692C305.279 44.6261 306.424 47.6275 307.418 49.8493C326.525 54.1155 357.134 61.9477 377.952 67.2747C379.459 67.6605 380.916 68.0331 382.313 68.3903C388.73 64.0835 396.285 59.4715 403.848 55.712C409.735 52.785 416.722 49.8186 423.791 48.2435C429.641 46.94 441.939 45.0794 453.115 52.5971L462.517 58.9219L463.971 70.2935C471.374 128.204 454.415 194.788 418.555 238.317C400.323 260.447 376.215 277.729 346.885 283.278C317.261 288.882 285.571 281.897 253.683 261.533L279.913 219.025C303.413 234.032 322.656 236.811 337.866 233.934C353.368 231.001 367.992 221.557 380.744 206.078C401.373 181.037 414.449 143.211 416.16 106.009C410.774 109.286 405.66 112.825 401.922 115.65L392.58 122.71L381.284 119.864C376.943 118.771 371.274 117.321 364.838 115.675C341.296 109.653 307.494 101.007 290.939 97.5985C276.198 94.5637 268.666 82.3324 265.783 77.1863C264.166 74.2989 262.727 71.2126 261.456 68.1865ZM434.729 97.1981C434.729 97.1984 434.715 97.2006 434.687 97.2038C434.715 97.1994 434.729 97.1978 434.729 97.1981ZM309.4 53.4976C309.396 53.5217 309.257 53.3574 308.995 52.9324C309.272 53.261 309.404 53.4735 309.4 53.4976Z" fill="#1C1C1C"/>
<path d="M2634.13 456.466C2619.55 456.466 2607.88 452.092 2599.13 443.344C2590.71 434.596 2586.5 422.931 2586.5 408.351V259.145H2520.4V216.862H2586.5V137.642H2636.56V216.862H2708V259.145H2636.56V399.603C2636.56 409.323 2641.09 414.183 2650.16 414.183H2700.22V456.466H2634.13Z" fill="#1C1C1C"/>
<path d="M2354.68 463.271C2337.51 463.271 2322.12 460.355 2308.51 454.522C2295.23 448.69 2284.54 440.104 2276.44 428.764C2268.66 417.424 2264.77 403.653 2264.77 387.453C2264.77 370.928 2268.66 357.32 2276.44 346.628C2284.54 335.611 2295.39 327.349 2309 321.841C2322.93 316.333 2338.64 313.579 2356.14 313.579H2429.04V298.026C2429.04 284.094 2424.83 272.916 2416.41 264.492C2407.98 256.067 2395.02 251.855 2377.53 251.855C2360.35 251.855 2347.23 255.905 2338.16 264.006C2329.09 272.106 2323.09 282.636 2320.18 295.596L2273.52 280.53C2277.41 267.57 2283.56 255.905 2291.99 245.537C2300.74 234.845 2312.24 226.259 2326.49 219.778C2340.75 213.298 2357.92 210.058 2378.01 210.058C2409.12 210.058 2433.58 217.996 2451.4 233.873C2469.22 249.749 2478.13 272.268 2478.13 301.428V400.089C2478.13 409.809 2482.67 414.669 2491.74 414.669H2512.15V456.467H2474.73C2463.39 456.467 2454.15 453.55 2447.03 447.718C2439.9 441.886 2436.33 433.948 2436.33 423.904V422.446H2429.04C2426.45 427.306 2422.56 432.976 2417.38 439.456C2412.19 445.936 2404.58 451.606 2394.54 456.467C2384.49 461.003 2371.21 463.271 2354.68 463.271ZM2361.97 421.96C2382.06 421.96 2398.26 416.29 2410.57 404.949C2422.89 393.285 2429.04 377.408 2429.04 357.32V352.46H2359.06C2345.77 352.46 2335.08 355.376 2326.98 361.208C2318.88 366.716 2314.83 374.978 2314.83 385.995C2314.83 397.011 2319.04 405.759 2327.47 412.239C2335.89 418.72 2347.39 421.96 2361.97 421.96Z" fill="#1C1C1C"/>
<path d="M2104 463.271C2081 463.271 2060.1 458.411 2041.3 448.69C2022.84 438.97 2008.09 424.876 1997.08 406.407C1986.38 387.939 1981.04 365.744 1981.04 339.823V333.505C1981.04 307.585 1986.38 285.552 1997.08 267.408C2008.09 248.939 2022.84 234.845 2041.3 225.125C2060.1 215.08 2081 210.058 2104 210.058C2127 210.058 2146.61 214.27 2162.81 222.694C2179.01 231.119 2191.97 242.297 2201.69 256.229C2211.73 270.162 2218.21 285.552 2221.13 302.401L2172.53 312.607C2170.91 301.914 2167.51 292.194 2162.32 283.446C2157.14 274.698 2149.85 267.732 2140.45 262.547C2131.05 257.363 2119.23 254.771 2104.97 254.771C2091.04 254.771 2078.4 258.011 2067.06 264.492C2056.05 270.648 2047.3 279.72 2040.82 291.708C2034.34 303.373 2031.1 317.629 2031.1 334.477V338.851C2031.1 355.7 2034.34 370.118 2040.82 382.107C2047.3 394.095 2056.05 403.167 2067.06 409.323C2078.4 415.479 2091.04 418.558 2104.97 418.558C2126.03 418.558 2142.07 413.211 2153.09 402.519C2164.1 391.503 2171.07 377.57 2173.99 360.722L2222.59 371.9C2218.7 388.425 2211.73 403.653 2201.69 417.586C2191.97 431.518 2179.01 442.696 2162.81 451.12C2146.61 459.221 2127 463.271 2104 463.271Z" fill="#1C1C1C"/>
<path d="M1818.72 463.271C1794.42 463.271 1773.2 458.249 1755.05 448.204C1736.91 437.836 1722.65 423.418 1712.28 404.949C1702.24 386.157 1697.22 364.448 1697.22 339.823V333.991C1697.22 309.043 1702.24 287.334 1712.28 268.866C1722.33 250.073 1736.26 235.655 1754.08 225.611C1772.22 215.242 1793.12 210.058 1816.77 210.058C1839.78 210.058 1859.87 215.242 1877.04 225.611C1894.54 235.655 1908.14 249.749 1917.87 267.894C1927.59 286.038 1932.45 307.261 1932.45 331.561V350.516H1748.25C1748.89 371.576 1755.86 388.425 1769.15 401.061C1782.75 413.373 1799.6 419.53 1819.69 419.53C1838.48 419.53 1852.58 415.317 1861.97 406.893C1871.69 398.469 1879.15 388.749 1884.33 377.732L1925.64 399.117C1921.11 408.189 1914.46 417.748 1905.71 427.792C1897.29 437.836 1886.11 446.26 1872.18 453.064C1858.25 459.869 1840.43 463.271 1818.72 463.271ZM1748.73 312.121H1881.41C1880.12 293.976 1873.64 279.882 1861.97 269.838C1850.31 259.469 1835.08 254.285 1816.29 254.285C1797.5 254.285 1782.11 259.469 1770.12 269.838C1758.45 279.882 1751.32 293.976 1748.73 312.121Z" fill="#1C1C1C"/>
<path d="M1532.56 463.271C1509.55 463.271 1488.65 458.411 1469.86 448.69C1451.39 438.97 1436.65 424.876 1425.63 406.407C1414.94 387.939 1409.59 365.744 1409.59 339.823V333.505C1409.59 307.585 1414.94 285.552 1425.63 267.408C1436.65 248.939 1451.39 234.845 1469.86 225.125C1488.65 215.08 1509.55 210.058 1532.56 210.058C1555.56 210.058 1575.16 214.27 1591.36 222.694C1607.56 231.119 1620.52 242.297 1630.24 256.229C1640.29 270.162 1646.77 285.552 1649.68 302.401L1601.08 312.607C1599.46 301.914 1596.06 292.194 1590.88 283.446C1585.69 274.698 1578.4 267.732 1569.01 262.547C1559.61 257.363 1547.78 254.771 1533.53 254.771C1519.6 254.771 1506.96 258.011 1495.62 264.492C1484.6 270.648 1475.85 279.72 1469.37 291.708C1462.89 303.373 1459.65 317.629 1459.65 334.477V338.851C1459.65 355.7 1462.89 370.118 1469.37 382.107C1475.85 394.095 1484.6 403.167 1495.62 409.323C1506.96 415.479 1519.6 418.558 1533.53 418.558C1554.59 418.558 1570.63 413.211 1581.64 402.519C1592.66 391.503 1599.63 377.57 1602.54 360.722L1651.14 371.9C1647.25 388.425 1640.29 403.653 1630.24 417.586C1620.52 431.518 1607.56 442.696 1591.36 451.12C1575.16 459.221 1555.56 463.271 1532.56 463.271Z" fill="#1C1C1C"/>
<path d="M1220.81 463.271C1203.64 463.271 1188.25 460.355 1174.64 454.522C1161.36 448.69 1150.66 440.104 1142.56 428.764C1134.79 417.424 1130.9 403.653 1130.9 387.453C1130.9 370.928 1134.79 357.32 1142.56 346.628C1150.66 335.611 1161.52 327.349 1175.13 321.841C1189.06 316.333 1204.77 313.579 1222.27 313.579H1295.17V298.026C1295.17 284.094 1290.96 272.916 1282.54 264.492C1274.11 256.067 1261.15 251.855 1243.66 251.855C1226.48 251.855 1213.36 255.905 1204.29 264.006C1195.22 272.106 1189.22 282.636 1186.31 295.596L1139.65 280.53C1143.54 267.57 1149.69 255.905 1158.12 245.537C1166.87 234.845 1178.37 226.259 1192.62 219.778C1206.88 213.298 1224.05 210.058 1244.14 210.058C1275.25 210.058 1299.71 217.996 1317.53 233.873C1335.35 249.749 1344.26 272.268 1344.26 301.428V400.089C1344.26 409.809 1348.8 414.669 1357.87 414.669H1378.28V456.467H1340.86C1329.52 456.467 1320.28 453.55 1313.16 447.718C1306.03 441.886 1302.46 433.948 1302.46 423.904V422.446H1295.17C1292.58 427.306 1288.69 432.976 1283.51 439.456C1278.32 445.936 1270.71 451.606 1260.67 456.467C1250.62 461.003 1237.34 463.271 1220.81 463.271ZM1228.1 421.96C1248.19 421.96 1264.39 416.29 1276.7 404.949C1289.02 393.285 1295.17 377.408 1295.17 357.32V352.46H1225.19C1211.9 352.46 1201.21 355.376 1193.11 361.208C1185.01 366.716 1180.96 374.978 1180.96 385.995C1180.96 397.011 1185.17 405.759 1193.6 412.239C1202.02 418.72 1213.52 421.96 1228.1 421.96Z" fill="#1C1C1C"/>
<path d="M965.147 456.466V216.862H1014.23V245.051H1022.01C1025.9 235.007 1032.06 227.716 1040.48 223.18C1049.23 218.32 1059.92 215.89 1072.56 215.89H1101.23V261.089H1070.61C1054.41 261.089 1041.13 265.625 1030.76 274.698C1020.39 283.446 1015.21 297.054 1015.21 315.523V456.466H965.147Z" fill="#1C1C1C"/>
<path d="M794.253 456.466V163.887H689.76V116.258H951.235V163.887H846.742V456.466H794.253Z" fill="#1C1C1C"/>
</svg>
