<svg width="3374" height="777" viewBox="0 0 3374 777" fill="none" xmlns="http://www.w3.org/2000/svg">
<path d="M570.705 269.289C585.059 301.802 593 337.569 593 375.122C593 524.724 466.968 646 311.5 646C156.032 646 30 524.724 30 375.122C30 238.954 134.413 126.253 270.4 107.11C287.008 80.5984 322.429 28.2821 331.246 31.1102C342.268 34.6453 347.998 87.7383 364.54 91.2074C391.404 96.8415 453.168 113.302 477.277 119.488C493.733 106.821 529.674 83.5628 541.797 91.8703C558.1 221.786 465.384 390.344 328.721 301.436" stroke="white" stroke-opacity="0.87" stroke-width="60"/>
<path d="M984 602V240.8H855V182H1177.8V240.8H1048.8V602H984ZM1194.98 602V306.2H1255.58V341H1265.18C1269.98 328.6 1277.58 319.6 1287.98 314C1298.78 308 1311.98 305 1327.58 305H1362.98V360.8H1325.18C1305.18 360.8 1288.78 366.4 1275.98 377.6C1263.18 388.4 1256.78 405.2 1256.78 428V602H1194.98ZM1510.6 610.4C1489.4 610.4 1470.4 606.8 1453.6 599.6C1437.2 592.4 1424 581.8 1414 567.8C1404.4 553.8 1399.6 536.8 1399.6 516.8C1399.6 496.4 1404.4 479.6 1414 466.4C1424 452.8 1437.4 442.6 1454.2 435.8C1471.4 429 1490.8 425.6 1512.4 425.6H1602.4V406.4C1602.4 389.2 1597.2 375.4 1586.8 365C1576.4 354.6 1560.4 349.4 1538.8 349.4C1517.6 349.4 1501.4 354.4 1490.2 364.4C1479 374.4 1471.6 387.4 1468 403.4L1410.4 384.8C1415.2 368.8 1422.8 354.4 1433.2 341.6C1444 328.4 1458.2 317.8 1475.8 309.8C1493.4 301.8 1514.6 297.8 1539.4 297.8C1577.8 297.8 1608 307.6 1630 327.2C1652 346.8 1663 374.6 1663 410.6V532.4C1663 544.4 1668.6 550.4 1679.8 550.4H1705V602H1658.8C1644.8 602 1633.4 598.4 1624.6 591.2C1615.8 584 1611.4 574.2 1611.4 561.8V560H1602.4C1599.2 566 1594.4 573 1588 581C1581.6 589 1572.2 596 1559.8 602C1547.4 607.6 1531 610.4 1510.6 610.4ZM1519.6 559.4C1544.4 559.4 1564.4 552.4 1579.6 538.4C1594.8 524 1602.4 504.4 1602.4 479.6V473.6H1516C1499.6 473.6 1486.4 477.2 1476.4 484.4C1466.4 491.2 1461.4 501.4 1461.4 515C1461.4 528.6 1466.6 539.4 1477 547.4C1487.4 555.4 1501.6 559.4 1519.6 559.4ZM1895.46 610.4C1867.06 610.4 1841.26 604.4 1818.06 592.4C1795.26 580.4 1777.06 563 1763.46 540.2C1750.26 517.4 1743.66 490 1743.66 458V450.2C1743.66 418.2 1750.26 391 1763.46 368.6C1777.06 345.8 1795.26 328.4 1818.06 316.4C1841.26 304 1867.06 297.8 1895.46 297.8C1923.86 297.8 1948.06 303 1968.06 313.4C1988.06 323.8 2004.06 337.6 2016.06 354.8C2028.46 372 2036.46 391 2040.06 411.8L1980.06 424.4C1978.06 411.2 1973.86 399.2 1967.46 388.4C1961.06 377.6 1952.06 369 1940.46 362.6C1928.86 356.2 1914.26 353 1896.66 353C1879.46 353 1863.86 357 1849.86 365C1836.26 372.6 1825.46 383.8 1817.46 398.6C1809.46 413 1805.46 430.6 1805.46 451.4V456.8C1805.46 477.6 1809.46 495.4 1817.46 510.2C1825.46 525 1836.26 536.2 1849.86 543.8C1863.86 551.4 1879.46 555.2 1896.66 555.2C1922.66 555.2 1942.46 548.6 1956.06 535.4C1969.66 521.8 1978.26 504.6 1981.86 483.8L2041.86 497.6C2037.06 518 2028.46 536.8 2016.06 554C2004.06 571.2 1988.06 585 1968.06 595.4C1948.06 605.4 1923.86 610.4 1895.46 610.4ZM2248.74 610.4C2218.74 610.4 2192.54 604.2 2170.14 591.8C2147.74 579 2130.14 561.2 2117.34 538.4C2104.94 515.2 2098.74 488.4 2098.74 458V450.8C2098.74 420 2104.94 393.2 2117.34 370.4C2129.74 347.2 2146.94 329.4 2168.94 317C2191.34 304.2 2217.14 297.8 2246.34 297.8C2274.74 297.8 2299.54 304.2 2320.74 317C2342.34 329.4 2359.14 346.8 2371.14 369.2C2383.14 391.6 2389.14 417.8 2389.14 447.8V471.2H2161.74C2162.54 497.2 2171.14 518 2187.54 533.6C2204.34 548.8 2225.14 556.4 2249.94 556.4C2273.14 556.4 2290.54 551.2 2302.14 540.8C2314.14 530.4 2323.34 518.4 2329.74 504.8L2380.74 531.2C2375.14 542.4 2366.94 554.2 2356.14 566.6C2345.74 579 2331.94 589.4 2314.74 597.8C2297.54 606.2 2275.54 610.4 2248.74 610.4ZM2162.34 423.8H2326.14C2324.54 401.4 2316.54 384 2302.14 371.6C2287.74 358.8 2268.94 352.4 2245.74 352.4C2222.54 352.4 2203.54 358.8 2188.74 371.6C2174.34 384 2165.54 401.4 2162.34 423.8ZM2600.93 610.4C2572.53 610.4 2546.73 604.4 2523.53 592.4C2500.73 580.4 2482.53 563 2468.93 540.2C2455.73 517.4 2449.13 490 2449.13 458V450.2C2449.13 418.2 2455.73 391 2468.93 368.6C2482.53 345.8 2500.73 328.4 2523.53 316.4C2546.73 304 2572.53 297.8 2600.93 297.8C2629.33 297.8 2653.53 303 2673.53 313.4C2693.53 323.8 2709.53 337.6 2721.53 354.8C2733.93 372 2741.93 391 2745.53 411.8L2685.53 424.4C2683.53 411.2 2679.33 399.2 2672.93 388.4C2666.53 377.6 2657.53 369 2645.93 362.6C2634.33 356.2 2619.73 353 2602.13 353C2584.93 353 2569.33 357 2555.33 365C2541.73 372.6 2530.93 383.8 2522.93 398.6C2514.93 413 2510.93 430.6 2510.93 451.4V456.8C2510.93 477.6 2514.93 495.4 2522.93 510.2C2530.93 525 2541.73 536.2 2555.33 543.8C2569.33 551.4 2584.93 555.2 2602.13 555.2C2628.13 555.2 2647.93 548.6 2661.53 535.4C2675.13 521.8 2683.73 504.6 2687.33 483.8L2747.33 497.6C2742.53 518 2733.93 536.8 2721.53 554C2709.53 571.2 2693.53 585 2673.53 595.4C2653.53 605.4 2629.33 610.4 2600.93 610.4ZM2910.41 610.4C2889.21 610.4 2870.21 606.8 2853.41 599.6C2837.01 592.4 2823.81 581.8 2813.81 567.8C2804.21 553.8 2799.41 536.8 2799.41 516.8C2799.41 496.4 2804.21 479.6 2813.81 466.4C2823.81 452.8 2837.21 442.6 2854.01 435.8C2871.21 429 2890.61 425.6 2912.21 425.6H3002.21V406.4C3002.21 389.2 2997.01 375.4 2986.61 365C2976.21 354.6 2960.21 349.4 2938.61 349.4C2917.41 349.4 2901.21 354.4 2890.01 364.4C2878.81 374.4 2871.41 387.4 2867.81 403.4L2810.21 384.8C2815.01 368.8 2822.61 354.4 2833.01 341.6C2843.81 328.4 2858.01 317.8 2875.61 309.8C2893.21 301.8 2914.41 297.8 2939.21 297.8C2977.61 297.8 3007.81 307.6 3029.81 327.2C3051.81 346.8 3062.81 374.6 3062.81 410.6V532.4C3062.81 544.4 3068.41 550.4 3079.61 550.4H3104.81V602H3058.61C3044.61 602 3033.21 598.4 3024.41 591.2C3015.61 584 3011.21 574.2 3011.21 561.8V560H3002.21C2999.01 566 2994.21 573 2987.81 581C2981.41 589 2972.01 596 2959.61 602C2947.21 607.6 2930.81 610.4 2910.41 610.4ZM2919.41 559.4C2944.21 559.4 2964.21 552.4 2979.41 538.4C2994.61 524 3002.21 504.4 3002.21 479.6V473.6H2915.81C2899.41 473.6 2886.21 477.2 2876.21 484.4C2866.21 491.2 2861.21 501.4 2861.21 515C2861.21 528.6 2866.41 539.4 2876.81 547.4C2887.21 555.4 2901.41 559.4 2919.41 559.4ZM3255.39 602C3237.39 602 3222.99 596.6 3212.19 585.8C3201.79 575 3196.59 560.6 3196.59 542.6V358.4H3114.99V306.2H3196.59V208.4H3258.39V306.2H3346.59V358.4H3258.39V531.8C3258.39 543.8 3263.99 549.8 3275.19 549.8H3336.99V602H3255.39Z" fill="white" fill-opacity="0.87"/>
</svg>
