<svg xmlns="http://www.w3.org/2000/svg" width="4285" height="1611" viewBox="0 0 4285 1611" fill="none">
<rect width="4285" height="1611" rx="60" fill="#1C1C1C"/>
<path fill-rule="evenodd" clip-rule="evenodd" d="M498.346 654.411C493.483 661.173 488.529 668.715 485.149 674.109L481.436 680.035L474.511 681.01C413.28 689.628 367.048 740.178 367.048 800.338C367.048 866.414 422.889 920.956 493 920.956C563.111 920.956 618.952 866.414 618.952 800.338C618.952 783.675 615.432 767.827 609.066 753.411L636.554 741.277C644.566 759.421 649 779.394 649 800.338C649 884.086 578.607 951 493 951C407.393 951 337 884.086 337 800.338C337 726.502 391.772 665.706 463.368 652.394C467.368 646.243 472.342 638.921 477.098 632.582C480.232 628.406 483.59 624.224 486.701 621.049C488.198 619.521 490.16 617.681 492.405 616.206C493.529 615.468 495.244 614.472 497.419 613.791C499.552 613.123 503.246 612.416 507.478 613.774C512.933 615.523 515.968 619.473 517.204 621.258C518.682 623.393 519.746 625.666 520.489 627.416C521.645 630.141 522.788 633.516 523.729 636.293C523.964 636.986 524.186 637.642 524.393 638.241C525.303 640.881 526.057 642.888 526.722 644.363C538.529 647.046 557.492 651.989 570.377 655.347C571.266 655.579 572.127 655.803 572.954 656.019C576.904 653.321 581.551 650.434 586.203 648.078C589.837 646.238 594.165 644.364 598.557 643.368C602.213 642.538 609.902 641.367 616.826 646.111L622.399 649.93L623.241 656.633C627.77 692.722 617.395 734.299 595.388 761.508C584.212 775.326 569.356 786.22 551.162 789.725C532.751 793.273 513.108 788.833 493.431 776.033L509.817 750.849C524.361 760.309 536.188 762.014 545.476 760.224C554.983 758.392 564.057 752.466 572.024 742.616C585.057 726.502 593.27 702.038 594.161 678.058C590.77 680.15 587.54 682.424 585.186 684.236L579.382 688.704L572.287 686.883C569.603 686.195 566.098 685.282 562.12 684.245C547.575 680.456 526.701 675.017 516.479 672.874C507.334 670.956 502.77 663.308 501.073 660.223C500.051 658.364 499.144 656.367 498.346 654.411ZM605.671 672.59C605.665 672.598 605.552 672.622 605.35 672.636C605.575 672.589 605.677 672.582 605.671 672.59ZM527.931 646.569C527.928 646.585 527.838 646.479 527.668 646.204C527.849 646.415 527.934 646.553 527.931 646.569Z" fill="white" fill-opacity="0.87"/>
<path d="M1949.57 905.416C1940.55 905.416 1933.34 902.711 1927.93 897.3C1922.72 891.889 1920.11 884.675 1920.11 875.657V783.375H1879.23V757.223H1920.11V708.227H1951.07V757.223H1995.26V783.375H1951.07V870.246C1951.07 876.258 1953.88 879.264 1959.49 879.264H1990.45V905.416H1949.57Z" fill="white" fill-opacity="0.87"/>
<path d="M1776.74 909.624C1766.12 909.624 1756.6 907.82 1748.18 904.213C1739.96 900.606 1733.35 895.296 1728.34 888.282C1723.53 881.268 1721.13 872.751 1721.13 862.731C1721.13 852.511 1723.53 844.094 1728.34 837.481C1733.35 830.668 1740.06 825.558 1748.48 822.151C1757.1 818.744 1766.82 817.041 1777.64 817.041H1822.73V807.422C1822.73 798.805 1820.12 791.891 1814.91 786.681C1809.7 781.471 1801.69 778.866 1790.86 778.866C1780.24 778.866 1772.13 781.371 1766.52 786.381C1760.91 791.39 1757.2 797.903 1755.39 805.919L1726.54 796.601C1728.94 788.585 1732.75 781.371 1737.96 774.958C1743.37 768.345 1750.48 763.034 1759.3 759.027C1768.12 755.019 1778.74 753.015 1791.17 753.015C1810.4 753.015 1825.53 757.924 1836.55 767.744C1847.58 777.563 1853.09 791.491 1853.09 809.526V870.547C1853.09 876.559 1855.89 879.565 1861.5 879.565H1874.13V905.416H1850.98C1843.97 905.416 1838.26 903.612 1833.85 900.005C1829.44 896.398 1827.24 891.488 1827.24 885.276V884.374H1822.73C1821.12 887.38 1818.72 890.887 1815.51 894.895C1812.31 898.903 1807.6 902.41 1801.39 905.416C1795.17 908.221 1786.96 909.624 1776.74 909.624ZM1781.25 884.073C1793.67 884.073 1803.69 880.567 1811.3 873.553C1818.92 866.338 1822.73 856.519 1822.73 844.094V841.089H1779.44C1771.23 841.089 1764.61 842.892 1759.6 846.499C1754.59 849.906 1752.09 855.016 1752.09 861.83C1752.09 868.643 1754.69 874.054 1759.9 878.062C1765.11 882.069 1772.23 884.073 1781.25 884.073Z" fill="white" fill-opacity="0.87"/>
<path d="M1621.69 909.624C1607.46 909.624 1594.54 906.618 1582.92 900.606C1571.49 894.594 1562.37 885.877 1555.56 874.454C1548.95 863.032 1545.64 849.305 1545.64 833.273V829.365C1545.64 813.334 1548.95 799.707 1555.56 788.485C1562.37 777.062 1571.49 768.345 1582.92 762.333C1594.54 756.121 1607.46 753.015 1621.69 753.015C1635.92 753.015 1648.04 755.62 1658.06 760.83C1668.08 766.04 1676.1 772.954 1682.11 781.571C1688.32 790.188 1692.33 799.707 1694.13 810.127L1664.08 816.44C1663.07 809.827 1660.97 803.815 1657.76 798.404C1654.56 792.994 1650.05 788.685 1644.24 785.479C1638.42 782.272 1631.11 780.669 1622.29 780.669C1613.68 780.669 1605.86 782.673 1598.85 786.681C1592.03 790.489 1586.62 796.1 1582.61 803.514C1578.61 810.729 1576.6 819.546 1576.6 829.967V832.672C1576.6 843.093 1578.61 852.01 1582.61 859.425C1586.62 866.839 1592.03 872.45 1598.85 876.258C1605.86 880.066 1613.68 881.969 1622.29 881.969C1635.32 881.969 1645.24 878.663 1652.05 872.05C1658.87 865.236 1663.17 856.619 1664.98 846.199L1695.04 853.112C1692.63 863.332 1688.32 872.751 1682.11 881.368C1676.1 889.985 1668.08 896.899 1658.06 902.109C1648.04 907.119 1635.92 909.624 1621.69 909.624Z" fill="white" fill-opacity="0.87"/>
<path d="M1445.25 909.624C1430.22 909.624 1417.09 906.518 1405.87 900.305C1394.65 893.893 1385.83 884.975 1379.42 873.553C1373.21 861.93 1370.1 848.503 1370.1 833.273V829.666C1370.1 814.236 1373.21 800.809 1379.42 789.386C1385.63 777.764 1394.25 768.846 1405.27 762.634C1416.49 756.221 1429.42 753.015 1444.05 753.015C1458.27 753.015 1470.7 756.221 1481.32 762.634C1492.14 768.846 1500.56 777.563 1506.57 788.785C1512.58 800.007 1515.59 813.133 1515.59 828.163V839.886H1401.66C1402.06 852.912 1406.37 863.332 1414.59 871.148C1423 878.763 1433.42 882.57 1445.85 882.57C1457.47 882.57 1466.19 879.965 1472 874.755C1478.01 869.545 1482.62 863.533 1485.83 856.719L1511.38 869.946C1508.57 875.557 1504.46 881.468 1499.05 887.681C1493.84 893.893 1486.93 899.103 1478.31 903.311C1469.7 907.52 1458.67 909.624 1445.25 909.624ZM1401.96 816.139H1484.02C1483.22 804.917 1479.22 796.2 1472 789.988C1464.79 783.575 1455.37 780.369 1443.75 780.369C1432.12 780.369 1422.6 783.575 1415.19 789.988C1407.97 796.2 1403.57 804.917 1401.96 816.139Z" fill="white" fill-opacity="0.87"/>
<path d="M1268.26 909.624C1254.03 909.624 1241.11 906.618 1229.48 900.606C1218.06 894.594 1208.94 885.877 1202.13 874.454C1195.52 863.032 1192.21 849.305 1192.21 833.273V829.365C1192.21 813.334 1195.52 799.707 1202.13 788.485C1208.94 777.062 1218.06 768.345 1229.48 762.333C1241.11 756.121 1254.03 753.015 1268.26 753.015C1282.49 753.015 1294.61 755.62 1304.63 760.83C1314.65 766.04 1322.67 772.954 1328.68 781.571C1334.89 790.188 1338.9 799.707 1340.7 810.127L1310.64 816.44C1309.64 809.827 1307.54 803.815 1304.33 798.404C1301.13 792.994 1296.62 788.685 1290.8 785.479C1284.99 782.272 1277.68 780.669 1268.86 780.669C1260.24 780.669 1252.43 782.673 1245.42 786.681C1238.6 790.489 1233.19 796.1 1229.18 803.514C1225.18 810.729 1223.17 819.546 1223.17 829.967V832.672C1223.17 843.093 1225.18 852.01 1229.18 859.425C1233.19 866.839 1238.6 872.45 1245.42 876.258C1252.43 880.066 1260.24 881.969 1268.86 881.969C1281.89 881.969 1291.81 878.663 1298.62 872.05C1305.43 865.236 1309.74 856.619 1311.55 846.199L1341.6 853.112C1339.2 863.332 1334.89 872.751 1328.68 881.368C1322.67 889.985 1314.65 896.899 1304.63 902.109C1294.61 907.119 1282.49 909.624 1268.26 909.624Z" fill="white" fill-opacity="0.87"/>
<path d="M1075.45 909.624C1064.83 909.624 1055.31 907.82 1046.89 904.213C1038.68 900.606 1032.06 895.296 1027.06 888.282C1022.25 881.268 1019.84 872.751 1019.84 862.731C1019.84 852.511 1022.25 844.094 1027.06 837.481C1032.06 830.668 1038.78 825.558 1047.19 822.151C1055.81 818.744 1065.53 817.041 1076.35 817.041H1121.44V807.422C1121.44 798.805 1118.84 791.891 1113.63 786.681C1108.42 781.471 1100.4 778.866 1089.58 778.866C1078.96 778.866 1070.84 781.371 1065.23 786.381C1059.62 791.39 1055.91 797.903 1054.11 805.919L1025.25 796.601C1027.66 788.585 1031.46 781.371 1036.67 774.958C1042.08 768.345 1049.2 763.034 1058.02 759.027C1066.83 755.019 1077.45 753.015 1089.88 753.015C1109.12 753.015 1124.25 757.924 1135.27 767.744C1146.29 777.563 1151.8 791.491 1151.8 809.526V870.547C1151.8 876.559 1154.61 879.565 1160.22 879.565H1172.84V905.416H1149.7C1142.68 905.416 1136.97 903.612 1132.56 900.005C1128.15 896.398 1125.95 891.488 1125.95 885.276V884.374H1121.44C1119.84 887.38 1117.43 890.887 1114.23 894.895C1111.02 898.903 1106.31 902.41 1100.1 905.416C1093.89 908.221 1085.67 909.624 1075.45 909.624ZM1079.96 884.073C1092.38 884.073 1102.4 880.567 1110.02 873.553C1117.63 866.338 1121.44 856.519 1121.44 844.094V841.089H1078.16C1069.94 841.089 1063.33 842.892 1058.32 846.499C1053.31 849.906 1050.8 855.016 1050.8 861.83C1050.8 868.643 1053.41 874.054 1058.62 878.062C1063.83 882.069 1070.94 884.073 1079.96 884.073Z" fill="white" fill-opacity="0.87"/>
<path d="M917.323 905.416V757.223H947.683V774.658H952.493C954.897 768.445 958.705 763.937 963.915 761.131C969.326 758.125 975.939 756.622 983.754 756.622H1001.49V784.577H982.552C972.532 784.577 964.316 787.383 957.903 792.994C951.491 798.405 948.284 806.821 948.284 818.244V905.416H917.323Z" fill="white" fill-opacity="0.87"/>
<path d="M811.628 905.415V724.458H747V695H908.719V724.458H844.092V905.415H811.628Z" fill="white" fill-opacity="0.87"/>
<path d="M2449.83 711.085V703.273H2504.38V711.085H2481.51V776H2472.7V711.085H2449.83ZM2525.21 743.188V776H2516.83V703.273H2525.21V729.977H2525.92C2527.2 727.16 2529.12 724.923 2531.67 723.266C2534.25 721.585 2537.69 720.744 2541.97 720.744C2545.69 720.744 2548.94 721.49 2551.74 722.982C2554.53 724.449 2556.7 726.71 2558.24 729.764C2559.8 732.795 2560.58 736.653 2560.58 741.341V776H2552.2V741.909C2552.2 737.577 2551.08 734.227 2548.83 731.859C2546.6 729.468 2543.51 728.273 2539.56 728.273C2536.81 728.273 2534.35 728.853 2532.17 730.013C2530.02 731.173 2528.31 732.866 2527.06 735.091C2525.83 737.316 2525.21 740.015 2525.21 743.188ZM2598.78 777.136C2593.53 777.136 2588.99 775.976 2585.18 773.656C2581.39 771.312 2578.47 768.045 2576.41 763.855C2574.37 759.641 2573.36 754.741 2573.36 749.153C2573.36 743.566 2574.37 738.642 2576.41 734.381C2578.47 730.096 2581.33 726.758 2585 724.366C2588.7 721.952 2593.01 720.744 2597.93 720.744C2600.77 720.744 2603.58 721.218 2606.35 722.165C2609.12 723.112 2611.64 724.651 2613.91 726.781C2616.18 728.888 2617.99 731.682 2619.34 735.162C2620.69 738.642 2621.37 742.927 2621.37 748.017V751.568H2579.32V744.324H2612.84C2612.84 741.246 2612.23 738.5 2611 736.085C2609.79 733.67 2608.06 731.765 2605.81 730.368C2603.59 728.971 2600.96 728.273 2597.93 728.273C2594.59 728.273 2591.7 729.101 2589.26 730.759C2586.85 732.392 2584.99 734.523 2583.69 737.151C2582.39 739.778 2581.74 742.596 2581.74 745.602V750.432C2581.74 754.551 2582.45 758.043 2583.87 760.908C2585.31 763.749 2587.31 765.915 2589.87 767.406C2592.43 768.874 2595.4 769.608 2598.78 769.608C2600.98 769.608 2602.97 769.3 2604.75 768.685C2606.55 768.045 2608.1 767.098 2609.4 765.844C2610.7 764.565 2611.71 762.979 2612.42 761.085L2620.51 763.358C2619.66 766.104 2618.23 768.519 2616.22 770.602C2614.21 772.662 2611.72 774.272 2608.76 775.432C2605.8 776.568 2602.48 777.136 2598.78 777.136ZM2674.6 776L2657.98 721.455H2666.79L2678.58 763.216H2679.14L2690.79 721.455H2699.74L2711.25 763.074H2711.81L2723.6 721.455H2732.41L2715.79 776H2707.55L2695.62 734.097H2694.77L2682.84 776H2674.6ZM2763.79 777.136C2758.87 777.136 2754.55 775.964 2750.83 773.621C2747.14 771.277 2744.25 767.998 2742.17 763.784C2740.11 759.57 2739.08 754.646 2739.08 749.011C2739.08 743.33 2740.11 738.37 2742.17 734.132C2744.25 729.894 2747.14 726.604 2750.83 724.26C2754.55 721.916 2758.87 720.744 2763.79 720.744C2768.72 720.744 2773.03 721.916 2776.72 724.26C2780.44 726.604 2783.33 729.894 2785.39 734.132C2787.47 738.37 2788.51 743.33 2788.51 749.011C2788.51 754.646 2787.47 759.57 2785.39 763.784C2783.33 767.998 2780.44 771.277 2776.72 773.621C2773.03 775.964 2768.72 777.136 2763.79 777.136ZM2763.79 769.608C2767.53 769.608 2770.61 768.649 2773.03 766.732C2775.44 764.814 2777.23 762.293 2778.39 759.168C2779.55 756.043 2780.13 752.657 2780.13 749.011C2780.13 745.366 2779.55 741.968 2778.39 738.82C2777.23 735.671 2775.44 733.126 2773.03 731.185C2770.61 729.243 2767.53 728.273 2763.79 728.273C2760.05 728.273 2756.98 729.243 2754.56 731.185C2752.15 733.126 2750.36 735.671 2749.2 738.82C2748.04 741.968 2747.46 745.366 2747.46 749.011C2747.46 752.657 2748.04 756.043 2749.2 759.168C2750.36 762.293 2752.15 764.814 2754.56 766.732C2756.98 768.649 2760.05 769.608 2763.79 769.608ZM2801.3 776V721.455H2809.4V729.693H2809.97C2810.96 726.994 2812.76 724.804 2815.37 723.124C2817.97 721.443 2820.91 720.602 2824.17 720.602C2824.79 720.602 2825.56 720.614 2826.48 720.638C2827.4 720.661 2828.1 720.697 2828.58 720.744V729.267C2828.29 729.196 2827.64 729.089 2826.62 728.947C2825.63 728.782 2824.58 728.699 2823.46 728.699C2820.81 728.699 2818.44 729.255 2816.36 730.368C2814.3 731.457 2812.67 732.972 2811.46 734.913C2810.28 736.831 2809.68 739.021 2809.68 741.483V776H2801.3ZM2846.32 756.114L2846.18 745.744H2847.89L2871.75 721.455H2882.12L2856.69 747.165H2855.98L2846.32 756.114ZM2838.51 776V703.273H2846.89V776H2838.51ZM2873.17 776L2851.86 749.011L2857.83 743.188L2883.82 776H2873.17ZM2917.19 721.455V728.557H2887.79V721.455H2917.19ZM2896.6 776V713.926C2896.6 710.801 2897.33 708.197 2898.8 706.114C2900.27 704.03 2902.17 702.468 2904.52 701.426C2906.86 700.384 2909.33 699.864 2911.94 699.864C2914 699.864 2915.68 700.029 2916.98 700.361C2918.28 700.692 2919.25 701 2919.89 701.284L2917.48 708.528C2917.05 708.386 2916.46 708.209 2915.7 707.996C2914.97 707.783 2914 707.676 2912.79 707.676C2910.02 707.676 2908.02 708.375 2906.79 709.771C2905.58 711.168 2904.98 713.216 2904.98 715.915V776H2896.6ZM2937.32 703.273V776H2928.94V703.273H2937.32ZM2974.83 777.136C2969.91 777.136 2965.58 775.964 2961.87 773.621C2958.17 771.277 2955.29 767.998 2953.2 763.784C2951.14 759.57 2950.11 754.646 2950.11 749.011C2950.11 743.33 2951.14 738.37 2953.2 734.132C2955.29 729.894 2958.17 726.604 2961.87 724.26C2965.58 721.916 2969.91 720.744 2974.83 720.744C2979.75 720.744 2984.06 721.916 2987.76 724.26C2991.47 726.604 2994.36 729.894 2996.42 734.132C2998.5 738.37 2999.55 743.33 2999.55 749.011C2999.55 754.646 2998.5 759.57 2996.42 763.784C2994.36 767.998 2991.47 771.277 2987.76 773.621C2984.06 775.964 2979.75 777.136 2974.83 777.136ZM2974.83 769.608C2978.57 769.608 2981.65 768.649 2984.06 766.732C2986.48 764.814 2988.26 762.293 2989.42 759.168C2990.58 756.043 2991.16 752.657 2991.16 749.011C2991.16 745.366 2990.58 741.968 2989.42 738.82C2988.26 735.671 2986.48 733.126 2984.06 731.185C2981.65 729.243 2978.57 728.273 2974.83 728.273C2971.09 728.273 2968.01 729.243 2965.6 731.185C2963.18 733.126 2961.39 735.671 2960.23 738.82C2959.07 741.968 2958.49 745.366 2958.49 749.011C2958.49 752.657 2959.07 756.043 2960.23 759.168C2961.39 762.293 2963.18 764.814 2965.6 766.732C2968.01 768.649 2971.09 769.608 2974.83 769.608ZM3022.84 776L3006.22 721.455H3015.03L3026.82 763.216H3027.39L3039.03 721.455H3047.98L3059.49 763.074H3060.06L3071.85 721.455H3080.65L3064.03 776H3055.8L3043.86 734.097H3043.01L3031.08 776H3022.84ZM3142.02 777.136C3137.09 777.136 3132.77 775.964 3129.06 773.621C3125.36 771.277 3122.47 767.998 3120.39 763.784C3118.33 759.57 3117.3 754.646 3117.3 749.011C3117.3 743.33 3118.33 738.37 3120.39 734.132C3122.47 729.894 3125.36 726.604 3129.06 724.26C3132.77 721.916 3137.09 720.744 3142.02 720.744C3146.94 720.744 3151.25 721.916 3154.94 724.26C3158.66 726.604 3161.55 729.894 3163.61 734.132C3165.69 738.37 3166.73 743.33 3166.73 749.011C3166.73 754.646 3165.69 759.57 3163.61 763.784C3161.55 767.998 3158.66 771.277 3154.94 773.621C3151.25 775.964 3146.94 777.136 3142.02 777.136ZM3142.02 769.608C3145.76 769.608 3148.84 768.649 3151.25 766.732C3153.66 764.814 3155.45 762.293 3156.61 759.168C3157.77 756.043 3158.35 752.657 3158.35 749.011C3158.35 745.366 3157.77 741.968 3156.61 738.82C3155.45 735.671 3153.66 733.126 3151.25 731.185C3148.84 729.243 3145.76 728.273 3142.02 728.273C3138.28 728.273 3135.2 729.243 3132.78 731.185C3130.37 733.126 3128.58 735.671 3127.42 738.82C3126.26 741.968 3125.68 745.366 3125.68 749.011C3125.68 752.657 3126.26 756.043 3127.42 759.168C3128.58 762.293 3130.37 764.814 3132.78 766.732C3135.2 768.649 3138.28 769.608 3142.02 769.608ZM3179.53 776V721.455H3187.62V729.693H3188.19C3189.19 726.994 3190.98 724.804 3193.59 723.124C3196.19 721.443 3199.13 720.602 3202.4 720.602C3203.01 720.602 3203.78 720.614 3204.7 720.638C3205.63 720.661 3206.33 720.697 3206.8 720.744V729.267C3206.51 729.196 3205.86 729.089 3204.85 728.947C3203.85 728.782 3202.8 728.699 3201.69 728.699C3199.03 728.699 3196.67 729.255 3194.58 730.368C3192.52 731.457 3190.89 732.972 3189.68 734.913C3188.5 736.831 3187.91 739.021 3187.91 741.483V776H3179.53ZM3237.23 777.136C3232.12 777.136 3227.71 775.929 3224.02 773.514C3220.33 771.099 3217.49 767.773 3215.5 763.536C3213.51 759.298 3212.52 754.456 3212.52 749.011C3212.52 743.472 3213.53 738.583 3215.57 734.345C3217.63 730.084 3220.49 726.758 3224.16 724.366C3227.86 721.952 3232.17 720.744 3237.09 720.744C3240.93 720.744 3244.38 721.455 3247.46 722.875C3250.54 724.295 3253.06 726.284 3255.02 728.841C3256.99 731.398 3258.21 734.381 3258.68 737.79H3250.3C3249.66 735.304 3248.24 733.102 3246.04 731.185C3243.86 729.243 3240.93 728.273 3237.23 728.273C3233.96 728.273 3231.1 729.125 3228.64 730.83C3226.2 732.51 3224.29 734.89 3222.92 737.967C3221.57 741.021 3220.9 744.608 3220.9 748.727C3220.9 752.941 3221.56 756.611 3222.89 759.736C3224.23 762.861 3226.13 765.287 3228.57 767.016C3231.03 768.744 3233.92 769.608 3237.23 769.608C3239.41 769.608 3241.39 769.229 3243.16 768.472C3244.94 767.714 3246.44 766.625 3247.67 765.205C3248.9 763.784 3249.78 762.08 3250.3 760.091H3258.68C3258.21 763.311 3257.04 766.211 3255.17 768.791C3253.32 771.348 3250.87 773.384 3247.81 774.899C3244.78 776.391 3241.26 777.136 3237.23 777.136ZM3279.31 743.188V776H3270.93V703.273H3279.31V729.977H3280.02C3281.3 727.16 3283.22 724.923 3285.78 723.266C3288.36 721.585 3291.79 720.744 3296.07 720.744C3299.79 720.744 3303.05 721.49 3305.84 722.982C3308.63 724.449 3310.8 726.71 3312.34 729.764C3313.9 732.795 3314.68 736.653 3314.68 741.341V776H3306.3V741.909C3306.3 737.577 3305.18 734.227 3302.93 731.859C3300.7 729.468 3297.61 728.273 3293.66 728.273C3290.91 728.273 3288.45 728.853 3286.27 730.013C3284.12 731.173 3282.41 732.866 3281.16 735.091C3279.93 737.316 3279.31 740.015 3279.31 743.188ZM3352.88 777.136C3347.63 777.136 3343.09 775.976 3339.28 773.656C3335.49 771.312 3332.57 768.045 3330.51 763.855C3328.48 759.641 3327.46 754.741 3327.46 749.153C3327.46 743.566 3328.48 738.642 3330.51 734.381C3332.57 730.096 3335.44 726.758 3339.11 724.366C3342.8 721.952 3347.11 720.744 3352.03 720.744C3354.87 720.744 3357.68 721.218 3360.45 722.165C3363.22 723.112 3365.74 724.651 3368.01 726.781C3370.28 728.888 3372.1 731.682 3373.44 735.162C3374.79 738.642 3375.47 742.927 3375.47 748.017V751.568H3333.42V744.324H3366.95C3366.95 741.246 3366.33 738.5 3365.1 736.085C3363.89 733.67 3362.16 731.765 3359.91 730.368C3357.69 728.971 3355.06 728.273 3352.03 728.273C3348.69 728.273 3345.8 729.101 3343.37 730.759C3340.95 732.392 3339.09 734.523 3337.79 737.151C3336.49 739.778 3335.84 742.596 3335.84 745.602V750.432C3335.84 754.551 3336.55 758.043 3337.97 760.908C3339.41 763.749 3341.41 765.915 3343.97 767.406C3346.53 768.874 3349.5 769.608 3352.88 769.608C3355.09 769.608 3357.07 769.3 3358.85 768.685C3360.65 768.045 3362.2 767.098 3363.5 765.844C3364.8 764.565 3365.81 762.979 3366.52 761.085L3374.62 763.358C3373.76 766.104 3372.33 768.519 3370.32 770.602C3368.31 772.662 3365.82 774.272 3362.86 775.432C3359.9 776.568 3356.58 777.136 3352.88 777.136ZM3426.85 733.67L3419.33 735.801C3418.85 734.546 3418.15 733.327 3417.23 732.143C3416.33 730.936 3415.1 729.942 3413.54 729.161C3411.97 728.379 3409.97 727.989 3407.54 727.989C3404.2 727.989 3401.42 728.758 3399.19 730.297C3396.99 731.812 3395.89 733.741 3395.89 736.085C3395.89 738.169 3396.65 739.814 3398.16 741.021C3399.68 742.229 3402.04 743.235 3405.26 744.04L3413.36 746.028C3418.24 747.212 3421.87 749.023 3424.26 751.462C3426.65 753.876 3427.85 756.99 3427.85 760.801C3427.85 763.926 3426.95 766.72 3425.15 769.182C3423.37 771.644 3420.89 773.585 3417.69 775.006C3414.5 776.426 3410.78 777.136 3406.54 777.136C3400.98 777.136 3396.37 775.929 3392.73 773.514C3389.08 771.099 3386.77 767.572 3385.8 762.932L3393.76 760.943C3394.51 763.879 3395.95 766.08 3398.05 767.548C3400.18 769.016 3402.97 769.75 3406.4 769.75C3410.31 769.75 3413.41 768.921 3415.7 767.264C3418.02 765.583 3419.18 763.571 3419.18 761.227C3419.18 759.333 3418.52 757.747 3417.19 756.469C3415.87 755.167 3413.83 754.196 3411.09 753.557L3402 751.426C3397 750.242 3393.33 748.408 3390.99 745.922C3388.67 743.412 3387.51 740.276 3387.51 736.511C3387.51 733.434 3388.37 730.711 3390.1 728.344C3391.85 725.976 3394.23 724.118 3397.24 722.768C3400.27 721.419 3403.7 720.744 3407.54 720.744C3412.93 720.744 3417.17 721.928 3420.25 724.295C3423.35 726.663 3425.55 729.788 3426.85 733.67ZM3464.19 721.455V728.557H3435.92V721.455H3464.19ZM3444.16 708.386H3452.54V760.375C3452.54 762.742 3452.88 764.518 3453.57 765.702C3454.28 766.862 3455.18 767.643 3456.27 768.045C3457.38 768.424 3458.55 768.614 3459.78 768.614C3460.7 768.614 3461.46 768.566 3462.05 768.472C3462.65 768.353 3463.12 768.259 3463.47 768.188L3465.18 775.716C3464.61 775.929 3463.82 776.142 3462.8 776.355C3461.78 776.592 3460.49 776.71 3458.93 776.71C3456.56 776.71 3454.24 776.201 3451.97 775.183C3449.72 774.165 3447.85 772.615 3446.36 770.531C3444.89 768.448 3444.16 765.82 3444.16 762.648V708.386ZM3476.79 776V721.455H3484.89V729.693H3485.46C3486.45 726.994 3488.25 724.804 3490.85 723.124C3493.46 721.443 3496.39 720.602 3499.66 720.602C3500.28 720.602 3501.05 720.614 3501.97 720.638C3502.89 720.661 3503.59 720.697 3504.06 720.744V729.267C3503.78 729.196 3503.13 729.089 3502.11 728.947C3501.12 728.782 3500.06 728.699 3498.95 728.699C3496.3 728.699 3493.93 729.255 3491.85 730.368C3489.79 731.457 3488.16 732.972 3486.95 734.913C3485.76 736.831 3485.17 739.021 3485.17 741.483V776H3476.79ZM3530.05 777.278C3526.59 777.278 3523.46 776.627 3520.64 775.325C3517.82 774 3515.58 772.094 3513.93 769.608C3512.27 767.098 3511.44 764.068 3511.44 760.517C3511.44 757.392 3512.06 754.859 3513.29 752.918C3514.52 750.953 3516.16 749.414 3518.22 748.301C3520.28 747.188 3522.56 746.36 3525.04 745.815C3527.55 745.247 3530.07 744.797 3532.61 744.466C3535.92 744.04 3538.61 743.72 3540.67 743.507C3542.75 743.27 3544.27 742.88 3545.21 742.335C3546.18 741.791 3546.67 740.844 3546.67 739.494V739.21C3546.67 735.706 3545.71 732.984 3543.79 731.043C3541.9 729.101 3539.02 728.131 3535.16 728.131C3531.16 728.131 3528.03 729.007 3525.75 730.759C3523.48 732.51 3521.88 734.381 3520.96 736.369L3513 733.528C3514.42 730.214 3516.32 727.634 3518.69 725.787C3521.08 723.917 3523.68 722.615 3526.5 721.881C3529.34 721.123 3532.13 720.744 3534.88 720.744C3536.63 720.744 3538.64 720.957 3540.92 721.384C3543.21 721.786 3545.43 722.626 3547.56 723.905C3549.71 725.183 3551.5 727.113 3552.92 729.693C3554.34 732.274 3555.05 735.73 3555.05 740.062V776H3546.67V768.614H3546.24C3545.67 769.797 3544.73 771.064 3543.4 772.413C3542.08 773.763 3540.31 774.911 3538.11 775.858C3535.91 776.805 3533.22 777.278 3530.05 777.278ZM3531.33 769.75C3534.64 769.75 3537.44 769.099 3539.71 767.797C3542.01 766.495 3543.73 764.814 3544.89 762.754C3546.08 760.695 3546.67 758.528 3546.67 756.256V748.585C3546.31 749.011 3545.53 749.402 3544.33 749.757C3543.14 750.089 3541.77 750.384 3540.21 750.645C3538.67 750.882 3537.16 751.095 3535.7 751.284C3534.25 751.45 3533.08 751.592 3532.18 751.71C3530 751.994 3527.97 752.456 3526.07 753.095C3524.2 753.711 3522.69 754.646 3521.53 755.901C3520.39 757.132 3519.82 758.812 3519.82 760.943C3519.82 763.855 3520.9 766.057 3523.05 767.548C3525.23 769.016 3527.99 769.75 3531.33 769.75ZM3594.07 721.455V728.557H3565.8V721.455H3594.07ZM3574.04 708.386H3582.42V760.375C3582.42 762.742 3582.76 764.518 3583.45 765.702C3584.16 766.862 3585.06 767.643 3586.15 768.045C3587.26 768.424 3588.43 768.614 3589.66 768.614C3590.59 768.614 3591.35 768.566 3591.94 768.472C3592.53 768.353 3593 768.259 3593.36 768.188L3595.06 775.716C3594.49 775.929 3593.7 776.142 3592.68 776.355C3591.66 776.592 3590.37 776.71 3588.81 776.71C3586.44 776.71 3584.12 776.201 3581.85 775.183C3579.6 774.165 3577.73 772.615 3576.24 770.531C3574.77 768.448 3574.04 765.82 3574.04 762.648V708.386ZM3606.67 776V721.455H3615.06V776H3606.67ZM3610.94 712.364C3609.3 712.364 3607.89 711.807 3606.71 710.695C3605.55 709.582 3604.97 708.244 3604.97 706.682C3604.97 705.119 3605.55 703.782 3606.71 702.669C3607.89 701.556 3609.3 701 3610.94 701C3612.57 701 3613.97 701.556 3615.13 702.669C3616.31 703.782 3616.9 705.119 3616.9 706.682C3616.9 708.244 3616.31 709.582 3615.13 710.695C3613.97 711.807 3612.57 712.364 3610.94 712.364ZM3652.56 777.136C3647.64 777.136 3643.32 775.964 3639.6 773.621C3635.91 771.277 3633.02 767.998 3630.94 763.784C3628.88 759.57 3627.85 754.646 3627.85 749.011C3627.85 743.33 3628.88 738.37 3630.94 734.132C3633.02 729.894 3635.91 726.604 3639.6 724.26C3643.32 721.916 3647.64 720.744 3652.56 720.744C3657.49 720.744 3661.8 721.916 3665.49 724.26C3669.21 726.604 3672.1 729.894 3674.15 734.132C3676.24 738.37 3677.28 743.33 3677.28 749.011C3677.28 754.646 3676.24 759.57 3674.15 763.784C3672.1 767.998 3669.21 771.277 3665.49 773.621C3661.8 775.964 3657.49 777.136 3652.56 777.136ZM3652.56 769.608C3656.3 769.608 3659.38 768.649 3661.8 766.732C3664.21 764.814 3666 762.293 3667.16 759.168C3668.32 756.043 3668.9 752.657 3668.9 749.011C3668.9 745.366 3668.32 741.968 3667.16 738.82C3666 735.671 3664.21 733.126 3661.8 731.185C3659.38 729.243 3656.3 728.273 3652.56 728.273C3648.82 728.273 3645.75 729.243 3643.33 731.185C3640.92 733.126 3639.13 735.671 3637.97 738.82C3636.81 741.968 3636.23 745.366 3636.23 749.011C3636.23 752.657 3636.81 756.043 3637.97 759.168C3639.13 762.293 3640.92 764.814 3643.33 766.732C3645.75 768.649 3648.82 769.608 3652.56 769.608ZM3698.45 743.188V776H3690.07V721.455H3698.17V729.977H3698.88C3700.16 727.207 3702.1 724.982 3704.7 723.301C3707.31 721.597 3710.67 720.744 3714.79 720.744C3718.48 720.744 3721.71 721.502 3724.48 723.017C3727.25 724.509 3729.41 726.781 3730.95 729.835C3732.49 732.866 3733.25 736.701 3733.25 741.341V776H3724.87V741.909C3724.87 737.624 3723.76 734.286 3721.54 731.895C3719.31 729.48 3716.26 728.273 3712.37 728.273C3709.7 728.273 3707.31 728.853 3705.2 730.013C3703.12 731.173 3701.47 732.866 3700.26 735.091C3699.06 737.316 3698.45 740.015 3698.45 743.188ZM2452.67 917.455V842.455H2460.77V851.119H2461.76C2462.38 850.172 2463.23 848.965 2464.32 847.497C2465.43 846.006 2467.02 844.68 2469.08 843.52C2471.16 842.336 2473.98 841.744 2477.53 841.744C2482.12 841.744 2486.17 842.893 2489.67 845.189C2493.18 847.485 2495.91 850.741 2497.88 854.955C2499.84 859.169 2500.82 864.14 2500.82 869.869C2500.82 875.646 2499.84 880.653 2497.88 884.891C2495.91 889.105 2493.19 892.372 2489.71 894.692C2486.23 896.988 2482.22 898.136 2477.67 898.136C2474.17 898.136 2471.36 897.556 2469.25 896.396C2467.15 895.213 2465.53 893.875 2464.39 892.384C2463.25 890.868 2462.38 889.614 2461.76 888.619H2461.05V917.455H2452.67ZM2460.91 869.727C2460.91 873.847 2461.51 877.481 2462.72 880.629C2463.93 883.754 2465.69 886.205 2468.01 887.98C2470.33 889.732 2473.17 890.608 2476.53 890.608C2480.04 890.608 2482.96 889.685 2485.31 887.838C2487.67 885.968 2489.45 883.458 2490.63 880.31C2491.84 877.137 2492.44 873.61 2492.44 869.727C2492.44 865.892 2491.85 862.436 2490.67 859.358C2489.51 856.257 2487.74 853.806 2485.38 852.007C2483.03 850.184 2480.09 849.273 2476.53 849.273C2473.13 849.273 2470.26 850.137 2467.94 851.865C2465.62 853.57 2463.87 855.961 2462.68 859.038C2461.5 862.092 2460.91 865.655 2460.91 869.727ZM2521.99 824.273V897H2513.61V824.273H2521.99ZM2553.39 898.278C2549.93 898.278 2546.8 897.627 2543.98 896.325C2541.16 895 2538.92 893.094 2537.27 890.608C2535.61 888.098 2534.78 885.068 2534.78 881.517C2534.78 878.392 2535.4 875.859 2536.63 873.918C2537.86 871.953 2539.5 870.414 2541.56 869.301C2543.62 868.188 2545.9 867.36 2548.38 866.815C2550.89 866.247 2553.41 865.797 2555.95 865.466C2559.26 865.04 2561.95 864.72 2564.01 864.507C2566.09 864.27 2567.61 863.88 2568.55 863.335C2569.52 862.791 2570.01 861.844 2570.01 860.494V860.21C2570.01 856.706 2569.05 853.984 2567.13 852.043C2565.24 850.101 2562.36 849.131 2558.5 849.131C2554.5 849.131 2551.37 850.007 2549.09 851.759C2546.82 853.51 2545.22 855.381 2544.3 857.369L2536.34 854.528C2537.76 851.214 2539.66 848.634 2542.03 846.787C2544.42 844.917 2547.02 843.615 2549.84 842.881C2552.68 842.123 2555.47 841.744 2558.22 841.744C2559.97 841.744 2561.98 841.957 2564.26 842.384C2566.55 842.786 2568.77 843.626 2570.9 844.905C2573.05 846.183 2574.84 848.113 2576.26 850.693C2577.68 853.274 2578.39 856.73 2578.39 861.062V897H2570.01V889.614H2569.58C2569.01 890.797 2568.07 892.064 2566.74 893.413C2565.42 894.763 2563.65 895.911 2561.45 896.858C2559.25 897.805 2556.56 898.278 2553.39 898.278ZM2554.67 890.75C2557.98 890.75 2560.78 890.099 2563.05 888.797C2565.35 887.495 2567.07 885.814 2568.23 883.754C2569.42 881.695 2570.01 879.528 2570.01 877.256V869.585C2569.65 870.011 2568.87 870.402 2567.67 870.757C2566.48 871.089 2565.11 871.384 2563.55 871.645C2562.01 871.882 2560.5 872.095 2559.04 872.284C2557.59 872.45 2556.42 872.592 2555.52 872.71C2553.34 872.994 2551.31 873.456 2549.41 874.095C2547.54 874.711 2546.03 875.646 2544.87 876.901C2543.73 878.132 2543.16 879.812 2543.16 881.943C2543.16 884.855 2544.24 887.057 2546.39 888.548C2548.57 890.016 2551.33 890.75 2554.67 890.75ZM2617.41 842.455V849.557H2589.14V842.455H2617.41ZM2597.38 829.386H2605.76V881.375C2605.76 883.742 2606.1 885.518 2606.79 886.702C2607.5 887.862 2608.4 888.643 2609.49 889.045C2610.6 889.424 2611.77 889.614 2613 889.614C2613.93 889.614 2614.69 889.566 2615.28 889.472C2615.87 889.353 2616.34 889.259 2616.7 889.188L2618.4 896.716C2617.83 896.929 2617.04 897.142 2616.02 897.355C2615 897.592 2613.71 897.71 2612.15 897.71C2609.78 897.71 2607.46 897.201 2605.19 896.183C2602.94 895.165 2601.07 893.615 2599.58 891.531C2598.11 889.448 2597.38 886.82 2597.38 883.648V829.386ZM2654.3 842.455V849.557H2624.9V842.455H2654.3ZM2633.71 897V834.926C2633.71 831.801 2634.44 829.197 2635.91 827.114C2637.38 825.03 2639.28 823.468 2641.63 822.426C2643.97 821.384 2646.44 820.864 2649.05 820.864C2651.11 820.864 2652.79 821.029 2654.09 821.361C2655.39 821.692 2656.36 822 2657 822.284L2654.59 829.528C2654.16 829.386 2653.57 829.209 2652.81 828.996C2652.08 828.783 2651.11 828.676 2649.9 828.676C2647.13 828.676 2645.13 829.375 2643.9 830.771C2642.69 832.168 2642.09 834.216 2642.09 836.915V897H2633.71ZM2685.96 898.136C2681.04 898.136 2676.72 896.964 2673 894.621C2669.31 892.277 2666.42 888.998 2664.34 884.784C2662.28 880.57 2661.25 875.646 2661.25 870.011C2661.25 864.33 2662.28 859.37 2664.34 855.132C2666.42 850.894 2669.31 847.604 2673 845.26C2676.72 842.916 2681.04 841.744 2685.96 841.744C2690.89 841.744 2695.2 842.916 2698.89 845.26C2702.61 847.604 2705.49 850.894 2707.55 855.132C2709.64 859.37 2710.68 864.33 2710.68 870.011C2710.68 875.646 2709.64 880.57 2707.55 884.784C2705.49 888.998 2702.61 892.277 2698.89 894.621C2695.2 896.964 2690.89 898.136 2685.96 898.136ZM2685.96 890.608C2689.7 890.608 2692.78 889.649 2695.2 887.732C2697.61 885.814 2699.4 883.293 2700.56 880.168C2701.72 877.043 2702.3 873.657 2702.3 870.011C2702.3 866.366 2701.72 862.968 2700.56 859.82C2699.4 856.671 2697.61 854.126 2695.2 852.185C2692.78 850.243 2689.7 849.273 2685.96 849.273C2682.22 849.273 2679.14 850.243 2676.73 852.185C2674.31 854.126 2672.53 856.671 2671.37 859.82C2670.21 862.968 2669.63 866.366 2669.63 870.011C2669.63 873.657 2670.21 877.043 2671.37 880.168C2672.53 883.293 2674.31 885.814 2676.73 887.732C2679.14 889.649 2682.22 890.608 2685.96 890.608ZM2723.47 897V842.455H2731.57V850.693H2732.14C2733.13 847.994 2734.93 845.804 2737.53 844.124C2740.14 842.443 2743.07 841.602 2746.34 841.602C2746.96 841.602 2747.73 841.614 2748.65 841.638C2749.57 841.661 2750.27 841.697 2750.74 841.744V850.267C2750.46 850.196 2749.81 850.089 2748.79 849.947C2747.8 849.782 2746.74 849.699 2745.63 849.699C2742.98 849.699 2740.61 850.255 2738.53 851.368C2736.47 852.457 2734.83 853.972 2733.63 855.913C2732.44 857.831 2731.85 860.021 2731.85 862.483V897H2723.47ZM2760.68 897V842.455H2768.77V850.977H2769.49C2770.62 848.065 2772.46 845.804 2774.99 844.195C2777.52 842.561 2780.56 841.744 2784.12 841.744C2787.71 841.744 2790.71 842.561 2793.1 844.195C2795.51 845.804 2797.4 848.065 2798.75 850.977H2799.31C2800.71 848.16 2802.81 845.923 2805.6 844.266C2808.39 842.585 2811.74 841.744 2815.65 841.744C2820.53 841.744 2824.52 843.271 2827.62 846.325C2830.72 849.356 2832.27 854.079 2832.27 860.494V897H2823.89V860.494C2823.89 856.47 2822.79 853.593 2820.59 851.865C2818.38 850.137 2815.79 849.273 2812.81 849.273C2808.97 849.273 2806 850.433 2803.9 852.753C2801.79 855.049 2800.74 857.961 2800.74 861.489V897H2792.21V859.642C2792.21 856.541 2791.21 854.043 2789.19 852.149C2787.18 850.232 2784.59 849.273 2781.42 849.273C2779.24 849.273 2777.2 849.853 2775.31 851.013C2773.44 852.173 2771.92 853.783 2770.76 855.842C2769.63 857.878 2769.06 860.234 2769.06 862.909V897H2760.68ZM2900.01 842.455V849.557H2870.6V842.455H2900.01ZM2879.41 897V834.926C2879.41 831.801 2880.14 829.197 2881.61 827.114C2883.08 825.03 2884.99 823.468 2887.33 822.426C2889.67 821.384 2892.15 820.864 2894.75 820.864C2896.81 820.864 2898.49 821.029 2899.79 821.361C2901.1 821.692 2902.07 822 2902.71 822.284L2900.29 829.528C2899.87 829.386 2899.27 829.209 2898.52 828.996C2897.78 828.783 2896.81 828.676 2895.6 828.676C2892.83 828.676 2890.83 829.375 2889.6 830.771C2888.39 832.168 2887.79 834.216 2887.79 836.915V897H2879.41ZM2931.67 898.136C2926.74 898.136 2922.42 896.964 2918.7 894.621C2915.01 892.277 2912.12 888.998 2910.04 884.784C2907.98 880.57 2906.95 875.646 2906.95 870.011C2906.95 864.33 2907.98 859.37 2910.04 855.132C2912.12 850.894 2915.01 847.604 2918.7 845.26C2922.42 842.916 2926.74 841.744 2931.67 841.744C2936.59 841.744 2940.9 842.916 2944.59 845.26C2948.31 847.604 2951.2 850.894 2953.26 855.132C2955.34 859.37 2956.38 864.33 2956.38 870.011C2956.38 875.646 2955.34 880.57 2953.26 884.784C2951.2 888.998 2948.31 892.277 2944.59 894.621C2940.9 896.964 2936.59 898.136 2931.67 898.136ZM2931.67 890.608C2935.41 890.608 2938.48 889.649 2940.9 887.732C2943.31 885.814 2945.1 883.293 2946.26 880.168C2947.42 877.043 2948 873.657 2948 870.011C2948 866.366 2947.42 862.968 2946.26 859.82C2945.1 856.671 2943.31 854.126 2940.9 852.185C2938.48 850.243 2935.41 849.273 2931.67 849.273C2927.92 849.273 2924.85 850.243 2922.43 852.185C2920.02 854.126 2918.23 856.671 2917.07 859.82C2915.91 862.968 2915.33 866.366 2915.33 870.011C2915.33 873.657 2915.91 877.043 2917.07 880.168C2918.23 883.293 2920.02 885.814 2922.43 887.732C2924.85 889.649 2927.92 890.608 2931.67 890.608ZM2969.17 897V842.455H2977.27V850.693H2977.84C2978.83 847.994 2980.63 845.804 2983.24 844.124C2985.84 842.443 2988.78 841.602 2992.04 841.602C2992.66 841.602 2993.43 841.614 2994.35 841.638C2995.28 841.661 2995.97 841.697 2996.45 841.744V850.267C2996.16 850.196 2995.51 850.089 2994.49 849.947C2993.5 849.782 2992.45 849.699 2991.33 849.699C2988.68 849.699 2986.31 850.255 2984.23 851.368C2982.17 852.457 2980.54 853.972 2979.33 855.913C2978.15 857.831 2977.56 860.021 2977.56 862.483V897H2969.17Z" fill="white"/>
<path d="M3073.14 854.67L3065.61 856.801C3065.14 855.546 3064.44 854.327 3063.52 853.143C3062.62 851.936 3061.39 850.942 3059.83 850.161C3058.26 849.379 3056.26 848.989 3053.82 848.989C3050.49 848.989 3047.7 849.758 3045.48 851.297C3043.28 852.812 3042.18 854.741 3042.18 857.085C3042.18 859.169 3042.93 860.814 3044.45 862.021C3045.96 863.229 3048.33 864.235 3051.55 865.04L3059.65 867.028C3064.53 868.212 3068.16 870.023 3070.55 872.462C3072.94 874.876 3074.14 877.99 3074.14 881.801C3074.14 884.926 3073.24 887.72 3071.44 890.182C3069.66 892.644 3067.18 894.585 3063.98 896.006C3060.78 897.426 3057.07 898.136 3052.83 898.136C3047.27 898.136 3042.66 896.929 3039.02 894.514C3035.37 892.099 3033.06 888.572 3032.09 883.932L3040.05 881.943C3040.8 884.879 3042.24 887.08 3044.34 888.548C3046.47 890.016 3049.26 890.75 3052.69 890.75C3056.59 890.75 3059.7 889.921 3061.99 888.264C3064.31 886.583 3065.47 884.571 3065.47 882.227C3065.47 880.333 3064.81 878.747 3063.48 877.469C3062.16 876.167 3060.12 875.196 3057.38 874.557L3048.28 872.426C3043.29 871.242 3039.62 869.408 3037.28 866.922C3034.96 864.412 3033.8 861.276 3033.8 857.511C3033.8 854.434 3034.66 851.711 3036.39 849.344C3038.14 846.976 3040.52 845.118 3043.53 843.768C3046.56 842.419 3049.99 841.744 3053.82 841.744C3059.22 841.744 3063.46 842.928 3066.54 845.295C3069.64 847.663 3071.84 850.788 3073.14 854.67ZM3109.62 898.136C3104.37 898.136 3099.83 896.976 3096.02 894.656C3092.23 892.312 3089.31 889.045 3087.25 884.855C3085.21 880.641 3084.2 875.741 3084.2 870.153C3084.2 864.566 3085.21 859.642 3087.25 855.381C3089.31 851.096 3092.17 847.758 3095.84 845.366C3099.54 842.952 3103.85 841.744 3108.77 841.744C3111.61 841.744 3114.42 842.218 3117.19 843.165C3119.96 844.112 3122.48 845.651 3124.75 847.781C3127.02 849.888 3128.83 852.682 3130.18 856.162C3131.53 859.642 3132.21 863.927 3132.21 869.017V872.568H3090.16V865.324H3123.68C3123.68 862.246 3123.07 859.5 3121.84 857.085C3120.63 854.67 3118.9 852.765 3116.65 851.368C3114.43 849.971 3111.8 849.273 3108.77 849.273C3105.43 849.273 3102.54 850.101 3100.1 851.759C3097.69 853.392 3095.83 855.523 3094.53 858.151C3093.23 860.778 3092.58 863.596 3092.58 866.602V871.432C3092.58 875.551 3093.29 879.043 3094.71 881.908C3096.15 884.749 3098.15 886.915 3100.71 888.406C3103.27 889.874 3106.24 890.608 3109.62 890.608C3111.82 890.608 3113.81 890.3 3115.59 889.685C3117.39 889.045 3118.94 888.098 3120.24 886.844C3121.54 885.565 3122.55 883.979 3123.26 882.085L3131.35 884.358C3130.5 887.104 3129.07 889.519 3127.06 891.602C3125.05 893.662 3122.56 895.272 3119.6 896.432C3116.64 897.568 3113.31 898.136 3109.62 898.136ZM3167.11 898.136C3162 898.136 3157.6 896.929 3153.9 894.514C3150.21 892.099 3147.37 888.773 3145.38 884.536C3143.39 880.298 3142.4 875.456 3142.4 870.011C3142.4 864.472 3143.42 859.583 3145.45 855.345C3147.51 851.084 3150.38 847.758 3154.05 845.366C3157.74 842.952 3162.05 841.744 3166.97 841.744C3170.81 841.744 3174.26 842.455 3177.34 843.875C3180.42 845.295 3182.94 847.284 3184.91 849.841C3186.87 852.398 3188.09 855.381 3188.56 858.79H3180.18C3179.54 856.304 3178.12 854.102 3175.92 852.185C3173.74 850.243 3170.81 849.273 3167.11 849.273C3163.85 849.273 3160.98 850.125 3158.52 851.83C3156.08 853.51 3154.18 855.89 3152.8 858.967C3151.45 862.021 3150.78 865.608 3150.78 869.727C3150.78 873.941 3151.44 877.611 3152.77 880.736C3154.12 883.861 3156.01 886.287 3158.45 888.016C3160.91 889.744 3163.8 890.608 3167.11 890.608C3169.29 890.608 3171.27 890.229 3173.05 889.472C3174.82 888.714 3176.32 887.625 3177.56 886.205C3178.79 884.784 3179.66 883.08 3180.18 881.091H3188.56C3188.09 884.311 3186.92 887.211 3185.05 889.791C3183.2 892.348 3180.75 894.384 3177.7 895.899C3174.67 897.391 3171.14 898.136 3167.11 898.136ZM3235.19 874.699V842.455H3243.57V897H3235.19V887.767H3234.62C3233.34 890.537 3231.35 892.893 3228.66 894.834C3225.96 896.751 3222.55 897.71 3218.43 897.71C3215.02 897.71 3211.99 896.964 3209.34 895.473C3206.69 893.958 3204.6 891.685 3203.09 888.655C3201.57 885.601 3200.81 881.754 3200.81 877.114V842.455H3209.2V876.545C3209.2 880.523 3210.31 883.695 3212.53 886.062C3214.78 888.43 3217.65 889.614 3221.13 889.614C3223.21 889.614 3225.33 889.081 3227.48 888.016C3229.66 886.95 3231.48 885.317 3232.95 883.115C3234.44 880.913 3235.19 878.108 3235.19 874.699ZM3258.92 897V842.455H3267.02V850.693H3267.59C3268.58 847.994 3270.38 845.804 3272.98 844.124C3275.59 842.443 3278.52 841.602 3281.79 841.602C3282.41 841.602 3283.17 841.614 3284.1 841.638C3285.02 841.661 3285.72 841.697 3286.19 841.744V850.267C3285.91 850.196 3285.26 850.089 3284.24 849.947C3283.25 849.782 3282.19 849.699 3281.08 849.699C3278.43 849.699 3276.06 850.255 3273.98 851.368C3271.92 852.457 3270.28 853.972 3269.08 855.913C3267.89 857.831 3267.3 860.021 3267.3 862.483V897H3258.92ZM3296.13 897V842.455H3304.51V897H3296.13ZM3300.39 833.364C3298.76 833.364 3297.35 832.807 3296.16 831.695C3295 830.582 3294.42 829.244 3294.42 827.682C3294.42 826.119 3295 824.782 3296.16 823.669C3297.35 822.556 3298.76 822 3300.39 822C3302.02 822 3303.42 822.556 3304.58 823.669C3305.76 824.782 3306.35 826.119 3306.35 827.682C3306.35 829.244 3305.76 830.582 3304.58 831.695C3303.42 832.807 3302.02 833.364 3300.39 833.364ZM3343.58 842.455V849.557H3315.31V842.455H3343.58ZM3323.55 829.386H3331.93V881.375C3331.93 883.742 3332.28 885.518 3332.96 886.702C3333.67 887.862 3334.57 888.643 3335.66 889.045C3336.77 889.424 3337.95 889.614 3339.18 889.614C3340.1 889.614 3340.86 889.566 3341.45 889.472C3342.04 889.353 3342.51 889.259 3342.87 889.188L3344.57 896.716C3344.01 896.929 3343.21 897.142 3342.19 897.355C3341.18 897.592 3339.89 897.71 3338.32 897.71C3335.96 897.71 3333.64 897.201 3331.36 896.183C3329.11 895.165 3327.24 893.615 3325.75 891.531C3324.29 889.448 3323.55 886.82 3323.55 883.648V829.386ZM3361.58 917.455C3360.16 917.455 3358.9 917.336 3357.78 917.099C3356.67 916.886 3355.9 916.673 3355.48 916.46L3357.61 909.074C3359.64 909.595 3361.44 909.784 3363 909.642C3364.57 909.5 3365.95 908.802 3367.16 907.547C3368.39 906.316 3369.51 904.315 3370.53 901.545L3372.1 897.284L3351.92 842.455H3361.02L3376.07 885.92H3376.64L3391.7 842.455H3400.79L3377.63 904.955C3376.59 907.772 3375.3 910.104 3373.76 911.95C3372.23 913.821 3370.44 915.205 3368.4 916.105C3366.39 917.005 3364.12 917.455 3361.58 917.455ZM3462.84 898.136C3457.59 898.136 3453.06 896.976 3449.24 894.656C3445.46 892.312 3442.53 889.045 3440.47 884.855C3438.44 880.641 3437.42 875.741 3437.42 870.153C3437.42 864.566 3438.44 859.642 3440.47 855.381C3442.53 851.096 3445.4 847.758 3449.07 845.366C3452.76 842.952 3457.07 841.744 3461.99 841.744C3464.83 841.744 3467.64 842.218 3470.41 843.165C3473.18 844.112 3475.7 845.651 3477.97 847.781C3480.25 849.888 3482.06 852.682 3483.41 856.162C3484.75 859.642 3485.43 863.927 3485.43 869.017V872.568H3443.38V865.324H3476.91C3476.91 862.246 3476.29 859.5 3475.06 857.085C3473.85 854.67 3472.12 852.765 3469.88 851.368C3467.65 849.971 3465.02 849.273 3461.99 849.273C3458.65 849.273 3455.77 850.101 3453.33 851.759C3450.91 853.392 3449.05 855.523 3447.75 858.151C3446.45 860.778 3445.8 863.596 3445.8 866.602V871.432C3445.8 875.551 3446.51 879.043 3447.93 881.908C3449.37 884.749 3451.37 886.915 3453.93 888.406C3456.49 889.874 3459.46 890.608 3462.84 890.608C3465.05 890.608 3467.03 890.3 3468.81 889.685C3470.61 889.045 3472.16 888.098 3473.46 886.844C3474.76 885.565 3475.77 883.979 3476.48 882.085L3484.58 884.358C3483.73 887.104 3482.29 889.519 3480.28 891.602C3478.27 893.662 3475.78 895.272 3472.82 896.432C3469.86 897.568 3466.54 898.136 3462.84 898.136ZM3506.56 864.188V897H3498.18V842.455H3506.27V850.977H3506.99C3508.26 848.207 3510.2 845.982 3512.81 844.301C3515.41 842.597 3518.77 841.744 3522.89 841.744C3526.59 841.744 3529.82 842.502 3532.59 844.017C3535.36 845.509 3537.51 847.781 3539.05 850.835C3540.59 853.866 3541.36 857.701 3541.36 862.341V897H3532.98V862.909C3532.98 858.624 3531.87 855.286 3529.64 852.895C3527.42 850.48 3524.36 849.273 3520.48 849.273C3517.8 849.273 3515.41 849.853 3513.31 851.013C3511.22 852.173 3509.58 853.866 3508.37 856.091C3507.16 858.316 3506.56 861.015 3506.56 864.188ZM3578.69 918.591C3574.64 918.591 3571.16 918.07 3568.25 917.028C3565.34 916.01 3562.91 914.661 3560.97 912.98C3559.05 911.323 3557.53 909.547 3556.39 907.653L3563.07 902.966C3563.82 903.96 3564.78 905.097 3565.94 906.375C3567.1 907.677 3568.69 908.802 3570.7 909.749C3572.74 910.719 3575.4 911.205 3578.69 911.205C3583.09 911.205 3586.73 910.139 3589.59 908.009C3592.46 905.878 3593.89 902.54 3593.89 897.994V886.915H3593.18C3592.56 887.909 3591.69 889.14 3590.55 890.608C3589.44 892.052 3587.83 893.342 3585.72 894.479C3583.64 895.591 3580.82 896.148 3577.27 896.148C3572.87 896.148 3568.91 895.106 3565.41 893.023C3561.93 890.939 3559.17 887.909 3557.14 883.932C3555.12 879.955 3554.12 875.125 3554.12 869.443C3554.12 863.856 3555.1 858.991 3557.06 854.848C3559.03 850.681 3561.76 847.462 3565.27 845.189C3568.77 842.893 3572.82 841.744 3577.41 841.744C3580.96 841.744 3583.78 842.336 3585.86 843.52C3587.97 844.68 3589.58 846.006 3590.69 847.497C3591.83 848.965 3592.71 850.172 3593.32 851.119H3594.17V842.455H3602.27V898.562C3602.27 903.25 3601.21 907.062 3599.07 909.997C3596.97 912.956 3594.13 915.123 3590.55 916.496C3587 917.893 3583.05 918.591 3578.69 918.591ZM3578.41 888.619C3581.77 888.619 3584.61 887.85 3586.93 886.311C3589.25 884.772 3591.01 882.559 3592.22 879.67C3593.43 876.782 3594.03 873.326 3594.03 869.301C3594.03 865.371 3593.44 861.903 3592.26 858.896C3591.07 855.89 3589.32 853.534 3587 851.83C3584.68 850.125 3581.82 849.273 3578.41 849.273C3574.86 849.273 3571.9 850.172 3569.53 851.972C3567.19 853.771 3565.42 856.186 3564.24 859.216C3563.08 862.246 3562.5 865.608 3562.5 869.301C3562.5 873.089 3563.09 876.439 3564.27 879.351C3565.48 882.239 3567.26 884.512 3569.6 886.169C3571.97 887.803 3574.9 888.619 3578.41 888.619ZM3617.61 897V842.455H3625.99V897H3617.61ZM3621.87 833.364C3620.24 833.364 3618.83 832.807 3617.65 831.695C3616.49 830.582 3615.91 829.244 3615.91 827.682C3615.91 826.119 3616.49 824.782 3617.65 823.669C3618.83 822.556 3620.24 822 3621.87 822C3623.51 822 3624.9 822.556 3626.06 823.669C3627.25 824.782 3627.84 826.119 3627.84 827.682C3627.84 829.244 3627.25 830.582 3626.06 831.695C3624.9 832.807 3623.51 833.364 3621.87 833.364ZM3649.72 864.188V897H3641.34V842.455H3649.44V850.977H3650.15C3651.43 848.207 3653.37 845.982 3655.97 844.301C3658.58 842.597 3661.94 841.744 3666.06 841.744C3669.75 841.744 3672.98 842.502 3675.75 844.017C3678.52 845.509 3680.68 847.781 3682.22 850.835C3683.75 853.866 3684.52 857.701 3684.52 862.341V897H3676.14V862.909C3676.14 858.624 3675.03 855.286 3672.81 852.895C3670.58 850.48 3667.53 849.273 3663.64 849.273C3660.97 849.273 3658.58 849.853 3656.47 851.013C3654.39 852.173 3652.74 853.866 3651.53 856.091C3650.33 858.316 3649.72 861.015 3649.72 864.188ZM3722.71 898.136C3717.45 898.136 3712.92 896.976 3709.11 894.656C3705.32 892.312 3702.4 889.045 3700.34 884.855C3698.3 880.641 3697.28 875.741 3697.28 870.153C3697.28 864.566 3698.3 859.642 3700.34 855.381C3702.4 851.096 3705.26 847.758 3708.93 845.366C3712.62 842.952 3716.93 841.744 3721.86 841.744C3724.7 841.744 3727.5 842.218 3730.27 843.165C3733.04 844.112 3735.56 845.651 3737.84 847.781C3740.11 849.888 3741.92 852.682 3743.27 856.162C3744.62 859.642 3745.29 863.927 3745.29 869.017V872.568H3703.25V865.324H3736.77C3736.77 862.246 3736.15 859.5 3734.92 857.085C3733.72 854.67 3731.99 852.765 3729.74 851.368C3727.51 849.971 3724.89 849.273 3721.86 849.273C3718.52 849.273 3715.63 850.101 3713.19 851.759C3710.78 853.392 3708.92 855.523 3707.62 858.151C3706.31 860.778 3705.66 863.596 3705.66 866.602V871.432C3705.66 875.551 3706.37 879.043 3707.79 881.908C3709.24 884.749 3711.24 886.915 3713.79 888.406C3716.35 889.874 3719.32 890.608 3722.71 890.608C3724.91 890.608 3726.9 890.3 3728.67 889.685C3730.47 889.045 3732.02 888.098 3733.33 886.844C3734.63 885.565 3735.63 883.979 3736.34 882.085L3744.44 884.358C3743.59 887.104 3742.16 889.519 3740.14 891.602C3738.13 893.662 3735.65 895.272 3732.69 896.432C3729.73 897.568 3726.4 898.136 3722.71 898.136ZM3780.91 898.136C3775.66 898.136 3771.12 896.976 3767.31 894.656C3763.52 892.312 3760.6 889.045 3758.54 884.855C3756.5 880.641 3755.48 875.741 3755.48 870.153C3755.48 864.566 3756.5 859.642 3758.54 855.381C3760.6 851.096 3763.46 847.758 3767.13 845.366C3770.83 842.952 3775.13 841.744 3780.06 841.744C3782.9 841.744 3785.7 842.218 3788.47 843.165C3791.24 844.112 3793.77 845.651 3796.04 847.781C3798.31 849.888 3800.12 852.682 3801.47 856.162C3802.82 859.642 3803.5 863.927 3803.5 869.017V872.568H3761.45V865.324H3794.97C3794.97 862.246 3794.36 859.5 3793.13 857.085C3791.92 854.67 3790.19 852.765 3787.94 851.368C3785.72 849.971 3783.09 849.273 3780.06 849.273C3776.72 849.273 3773.83 850.101 3771.39 851.759C3768.98 853.392 3767.12 855.523 3765.82 858.151C3764.52 860.778 3763.87 863.596 3763.87 866.602V871.432C3763.87 875.551 3764.58 879.043 3766 881.908C3767.44 884.749 3769.44 886.915 3772 888.406C3774.55 889.874 3777.53 890.608 3780.91 890.608C3783.11 890.608 3785.1 890.3 3786.88 889.685C3788.68 889.045 3790.23 888.098 3791.53 886.844C3792.83 885.565 3793.84 883.979 3794.55 882.085L3802.64 884.358C3801.79 887.104 3800.36 889.519 3798.35 891.602C3796.33 893.662 3793.85 895.272 3790.89 896.432C3787.93 897.568 3784.6 898.136 3780.91 898.136ZM3816.24 897V842.455H3824.34V850.693H3824.91C3825.9 847.994 3827.7 845.804 3830.31 844.124C3832.91 842.443 3835.85 841.602 3839.11 841.602C3839.73 841.602 3840.5 841.614 3841.42 841.638C3842.35 841.661 3843.04 841.697 3843.52 841.744V850.267C3843.23 850.196 3842.58 850.089 3841.56 849.947C3840.57 849.782 3839.52 849.699 3838.4 849.699C3835.75 849.699 3833.38 850.255 3831.3 851.368C3829.24 852.457 3827.61 853.972 3826.4 855.913C3825.22 857.831 3824.63 860.021 3824.63 862.483V897H3816.24ZM3892.09 854.67L3884.56 856.801C3884.09 855.546 3883.39 854.327 3882.46 853.143C3881.56 851.936 3880.33 850.942 3878.77 850.161C3877.21 849.379 3875.21 848.989 3872.77 848.989C3869.43 848.989 3866.65 849.758 3864.42 851.297C3862.22 852.812 3861.12 854.741 3861.12 857.085C3861.12 859.169 3861.88 860.814 3863.39 862.021C3864.91 863.229 3867.28 864.235 3870.5 865.04L3878.59 867.028C3883.47 868.212 3887.1 870.023 3889.5 872.462C3891.89 874.876 3893.08 877.99 3893.08 881.801C3893.08 884.926 3892.18 887.72 3890.38 890.182C3888.61 892.644 3886.12 894.585 3882.93 896.006C3879.73 897.426 3876.01 898.136 3871.78 898.136C3866.21 898.136 3861.61 896.929 3857.96 894.514C3854.32 892.099 3852.01 888.572 3851.04 883.932L3858.99 881.943C3859.75 884.879 3861.18 887.08 3863.29 888.548C3865.42 890.016 3868.2 890.75 3871.63 890.75C3875.54 890.75 3878.64 889.921 3880.94 888.264C3883.26 886.583 3884.42 884.571 3884.42 882.227C3884.42 880.333 3883.75 878.747 3882.43 877.469C3881.1 876.167 3879.07 875.196 3876.32 874.557L3867.23 872.426C3862.23 871.242 3858.57 869.408 3856.22 866.922C3853.9 864.412 3852.74 861.276 3852.74 857.511C3852.74 854.434 3853.61 851.711 3855.33 849.344C3857.09 846.976 3859.46 845.118 3862.47 843.768C3865.5 842.419 3868.93 841.744 3872.77 841.744C3878.17 841.744 3882.41 842.928 3885.48 845.295C3888.58 847.663 3890.79 850.788 3892.09 854.67ZM3911.81 897.568C3910.05 897.568 3908.55 896.941 3907.3 895.686C3906.04 894.431 3905.41 892.928 3905.41 891.176C3905.41 889.424 3906.04 887.921 3907.3 886.666C3908.55 885.411 3910.05 884.784 3911.81 884.784C3913.56 884.784 3915.06 885.411 3916.32 886.666C3917.57 887.921 3918.2 889.424 3918.2 891.176C3918.2 892.336 3917.9 893.402 3917.31 894.372C3916.74 895.343 3915.97 896.124 3915 896.716C3914.05 897.284 3912.99 897.568 3911.81 897.568Z" fill="#CBEB00"/>
</svg>
