<svg width="3368" height="503" viewBox="0 0 3368 503" fill="none" xmlns="http://www.w3.org/2000/svg">
<rect width="3368" height="503" rx="60" fill="#1C1C1C"/>
<path fill-rule="evenodd" clip-rule="evenodd" d="M1016.35 124.411C1011.48 131.173 1006.53 138.715 1003.15 144.109L999.436 150.035L992.511 151.01C931.28 159.628 885.048 210.178 885.048 270.338C885.048 336.414 940.889 390.956 1011 390.956C1081.11 390.956 1136.95 336.414 1136.95 270.338C1136.95 253.675 1133.43 237.827 1127.07 223.411L1154.55 211.277C1162.57 229.421 1167 249.394 1167 270.338C1167 354.086 1096.61 421 1011 421C925.393 421 855 354.086 855 270.338C855 196.502 909.772 135.706 981.368 122.394C985.368 116.243 990.342 108.921 995.098 102.582C998.232 98.4057 1001.59 94.2244 1004.7 91.0487C1006.2 89.5213 1008.16 87.6809 1010.41 86.2062C1011.53 85.468 1013.24 84.4724 1015.42 83.7913C1017.55 83.1229 1021.25 82.4165 1025.48 83.7738C1030.93 85.5233 1033.97 89.4728 1035.2 91.2584C1036.68 93.3933 1037.75 95.6661 1038.49 97.4158C1039.64 100.141 1040.79 103.516 1041.73 106.293C1041.96 106.986 1042.19 107.642 1042.39 108.241C1043.3 110.881 1044.06 112.888 1044.72 114.363C1056.53 117.046 1075.49 121.989 1088.38 125.347C1089.27 125.579 1090.13 125.803 1090.95 126.019C1094.9 123.321 1099.55 120.434 1104.2 118.078C1107.84 116.238 1112.16 114.364 1116.56 113.368C1120.21 112.538 1127.9 111.367 1134.83 116.111L1140.4 119.93L1141.24 126.633C1145.77 162.722 1135.4 204.299 1113.39 231.508C1102.21 245.326 1087.36 256.22 1069.16 259.725C1050.75 263.273 1031.11 258.833 1011.43 246.033L1027.82 220.849C1042.36 230.309 1054.19 232.014 1063.48 230.224C1072.98 228.392 1082.06 222.466 1090.02 212.616C1103.06 196.502 1111.27 172.038 1112.16 148.058C1108.77 150.15 1105.54 152.424 1103.19 154.236L1097.38 158.704L1090.29 156.883C1087.6 156.195 1084.1 155.282 1080.12 154.245C1065.57 150.456 1044.7 145.017 1034.48 142.874C1025.33 140.956 1020.77 133.308 1019.07 130.223C1018.05 128.364 1017.14 126.367 1016.35 124.411ZM1123.67 142.59C1123.66 142.598 1123.55 142.622 1123.35 142.636C1123.58 142.589 1123.68 142.582 1123.67 142.59ZM1045.93 116.569C1045.93 116.585 1045.84 116.479 1045.67 116.204C1045.85 116.415 1045.93 116.553 1045.93 116.569Z" fill="white" fill-opacity="0.87"/>
<path d="M2467.57 375.415C2458.55 375.415 2451.34 372.71 2445.93 367.299C2440.72 361.889 2438.11 354.674 2438.11 345.657V253.374H2397.23V227.223H2438.11V178.226H2469.07V227.223H2513.26V253.374H2469.07V340.246C2469.07 346.258 2471.88 349.264 2477.49 349.264H2508.45V375.415H2467.57Z" fill="white" fill-opacity="0.87"/>
<path d="M2294.74 379.624C2284.12 379.624 2274.6 377.82 2266.18 374.213C2257.96 370.606 2251.35 365.295 2246.34 358.282C2241.53 351.268 2239.13 342.751 2239.13 332.731C2239.13 322.511 2241.53 314.094 2246.34 307.481C2251.35 300.668 2258.06 295.558 2266.48 292.151C2275.1 288.744 2284.82 287.041 2295.64 287.041H2340.73V277.422C2340.73 268.805 2338.12 261.891 2332.91 256.681C2327.7 251.471 2319.69 248.866 2308.87 248.866C2298.24 248.866 2290.13 251.371 2284.52 256.38C2278.91 261.39 2275.2 267.903 2273.4 275.919L2244.54 266.601C2246.94 258.585 2250.75 251.371 2255.96 244.958C2261.37 238.345 2268.49 233.034 2277.3 229.026C2286.12 225.018 2296.74 223.015 2309.17 223.015C2328.4 223.015 2343.53 227.924 2354.56 237.744C2365.58 247.563 2371.09 261.491 2371.09 279.526V340.547C2371.09 346.558 2373.89 349.564 2379.5 349.564H2392.13V375.415H2368.98C2361.97 375.415 2356.26 373.612 2351.85 370.005C2347.44 366.398 2345.24 361.488 2345.24 355.276V354.374H2340.73C2339.12 357.38 2336.72 360.887 2333.51 364.895C2330.31 368.903 2325.6 372.41 2319.39 375.415C2313.17 378.221 2304.96 379.624 2294.74 379.624ZM2299.25 354.073C2311.67 354.073 2321.69 350.566 2329.31 343.553C2336.92 336.338 2340.73 326.519 2340.73 314.094V311.088H2297.44C2289.23 311.088 2282.61 312.892 2277.6 316.499C2272.59 319.906 2270.09 325.016 2270.09 331.829C2270.09 338.643 2272.69 344.054 2277.9 348.061C2283.11 352.069 2290.23 354.073 2299.25 354.073Z" fill="white" fill-opacity="0.87"/>
<path d="M2139.69 379.624C2125.46 379.624 2112.54 376.618 2100.92 370.606C2089.49 364.594 2080.37 355.877 2073.56 344.454C2066.95 333.032 2063.64 319.305 2063.64 303.273V299.365C2063.64 283.334 2066.95 269.707 2073.56 258.485C2080.37 247.062 2089.49 238.345 2100.92 232.333C2112.54 226.121 2125.46 223.015 2139.69 223.015C2153.92 223.015 2166.04 225.62 2176.06 230.83C2186.08 236.04 2194.1 242.954 2200.11 251.571C2206.32 260.188 2210.33 269.707 2212.13 280.127L2182.08 286.44C2181.07 279.827 2178.97 273.815 2175.76 268.404C2172.56 262.993 2168.05 258.685 2162.24 255.479C2156.42 252.272 2149.11 250.669 2140.29 250.669C2131.68 250.669 2123.86 252.673 2116.85 256.681C2110.03 260.489 2104.62 266.1 2100.61 273.514C2096.61 280.728 2094.6 289.546 2094.6 299.966V302.672C2094.6 313.092 2096.61 322.01 2100.61 329.425C2104.62 336.839 2110.03 342.45 2116.85 346.258C2123.86 350.065 2131.68 351.969 2140.29 351.969C2153.32 351.969 2163.24 348.663 2170.05 342.05C2176.87 335.236 2181.17 326.619 2182.98 316.199L2213.04 323.112C2210.63 333.332 2206.32 342.751 2200.11 351.368C2194.1 359.985 2186.08 366.899 2176.06 372.109C2166.04 377.119 2153.92 379.624 2139.69 379.624Z" fill="white" fill-opacity="0.87"/>
<path d="M1963.25 379.624C1948.22 379.624 1935.09 376.518 1923.87 370.305C1912.65 363.893 1903.83 354.975 1897.42 343.553C1891.21 331.93 1888.1 318.503 1888.1 303.273V299.666C1888.1 284.235 1891.21 270.809 1897.42 259.386C1903.63 247.763 1912.25 238.846 1923.27 232.634C1934.49 226.221 1947.42 223.015 1962.05 223.015C1976.27 223.015 1988.7 226.221 1999.32 232.634C2010.14 238.846 2018.56 247.563 2024.57 258.785C2030.58 270.007 2033.59 283.133 2033.59 298.163V309.886H1919.66C1920.06 322.912 1924.37 333.332 1932.59 341.148C1941 348.763 1951.43 352.57 1963.85 352.57C1975.47 352.57 1984.19 349.965 1990 344.755C1996.01 339.545 2000.62 333.533 2003.83 326.719L2029.38 339.945C2026.57 345.556 2022.47 351.468 2017.05 357.68C2011.84 363.893 2004.93 369.103 1996.31 373.311C1987.7 377.52 1976.67 379.624 1963.25 379.624ZM1919.96 286.139H2002.03C2001.22 274.917 1997.22 266.2 1990 259.988C1982.79 253.575 1973.37 250.369 1961.75 250.369C1950.12 250.369 1940.6 253.575 1933.19 259.988C1925.97 266.2 1921.57 274.917 1919.96 286.139Z" fill="white" fill-opacity="0.87"/>
<path d="M1786.26 379.624C1772.03 379.624 1759.11 376.618 1747.48 370.606C1736.06 364.594 1726.94 355.877 1720.13 344.454C1713.52 333.032 1710.21 319.305 1710.21 303.273V299.365C1710.21 283.334 1713.52 269.707 1720.13 258.485C1726.94 247.062 1736.06 238.345 1747.48 232.333C1759.11 226.121 1772.03 223.015 1786.26 223.015C1800.49 223.015 1812.61 225.62 1822.63 230.83C1832.65 236.04 1840.67 242.954 1846.68 251.571C1852.89 260.188 1856.9 269.707 1858.7 280.127L1828.64 286.44C1827.64 279.827 1825.54 273.815 1822.33 268.404C1819.12 262.993 1814.62 258.685 1808.8 255.479C1802.99 252.272 1795.68 250.669 1786.86 250.669C1778.24 250.669 1770.43 252.673 1763.41 256.681C1756.6 260.489 1751.19 266.1 1747.18 273.514C1743.17 280.728 1741.17 289.546 1741.17 299.966V302.672C1741.17 313.092 1743.17 322.01 1747.18 329.425C1751.19 336.839 1756.6 342.45 1763.41 346.258C1770.43 350.065 1778.24 351.969 1786.86 351.969C1799.89 351.969 1809.81 348.663 1816.62 342.05C1823.43 335.236 1827.74 326.619 1829.55 316.199L1859.6 323.112C1857.2 333.332 1852.89 342.751 1846.68 351.368C1840.67 359.985 1832.65 366.899 1822.63 372.109C1812.61 377.119 1800.49 379.624 1786.26 379.624Z" fill="white" fill-opacity="0.87"/>
<path d="M1593.45 379.624C1582.83 379.624 1573.31 377.82 1564.89 374.213C1556.68 370.606 1550.06 365.295 1545.05 358.282C1540.25 351.268 1537.84 342.751 1537.84 332.731C1537.84 322.511 1540.25 314.094 1545.05 307.481C1550.06 300.668 1556.78 295.558 1565.19 292.151C1573.81 288.744 1583.53 287.041 1594.35 287.041H1639.44V277.422C1639.44 268.805 1636.84 261.891 1631.63 256.681C1626.42 251.471 1618.4 248.866 1607.58 248.866C1596.96 248.866 1588.84 251.371 1583.23 256.38C1577.62 261.39 1573.91 267.903 1572.11 275.919L1543.25 266.601C1545.66 258.585 1549.46 251.371 1554.67 244.958C1560.08 238.345 1567.2 233.034 1576.02 229.026C1584.83 225.018 1595.45 223.015 1607.88 223.015C1627.12 223.015 1642.25 227.924 1653.27 237.744C1664.29 247.563 1669.8 261.491 1669.8 279.526V340.547C1669.8 346.558 1672.61 349.564 1678.22 349.564H1690.84V375.415H1667.7C1660.68 375.415 1654.97 373.612 1650.56 370.005C1646.15 366.398 1643.95 361.488 1643.95 355.276V354.374H1639.44C1637.84 357.38 1635.43 360.887 1632.23 364.895C1629.02 368.903 1624.31 372.41 1618.1 375.415C1611.89 378.221 1603.67 379.624 1593.45 379.624ZM1597.96 354.073C1610.38 354.073 1620.4 350.566 1628.02 343.553C1635.63 336.338 1639.44 326.519 1639.44 314.094V311.088H1596.16C1587.94 311.088 1581.33 312.892 1576.32 316.499C1571.31 319.906 1568.8 325.016 1568.8 331.829C1568.8 338.643 1571.41 344.054 1576.62 348.061C1581.83 352.069 1588.94 354.073 1597.96 354.073Z" fill="white" fill-opacity="0.87"/>
<path d="M1435.32 375.416V227.223H1465.68V244.657H1470.49C1472.9 238.445 1476.71 233.936 1481.92 231.131C1487.33 228.125 1493.94 226.622 1501.75 226.622H1519.49V254.577H1500.55C1490.53 254.577 1482.32 257.382 1475.9 262.994C1469.49 268.404 1466.28 276.821 1466.28 288.243V375.416H1435.32Z" fill="white" fill-opacity="0.87"/>
<path d="M1329.63 375.415V194.458H1265V165H1426.72V194.458H1362.09V375.415H1329.63Z" fill="white" fill-opacity="0.87"/>
</svg>
