<svg width="4285" height="894" viewBox="0 0 4285 894" fill="none" xmlns="http://www.w3.org/2000/svg">
<rect width="4285" height="894" rx="60" fill="#1C1C1C"/>
<path fill-rule="evenodd" clip-rule="evenodd" d="M526.798 326.246C522.433 332.328 517.987 339.11 514.954 343.962L511.622 349.292L505.408 350.169C450.456 357.92 408.966 403.385 408.966 457.494C408.966 516.923 459.08 565.978 522 565.978C584.92 565.978 635.034 516.923 635.034 457.494C635.034 442.506 631.875 428.253 626.162 415.287L650.831 404.373C658.021 420.693 662 438.656 662 457.494C662 532.817 598.826 593 522 593C445.174 593 382 532.817 382 457.494C382 391.085 431.154 336.404 495.407 324.431C498.997 318.899 503.461 312.313 507.729 306.612C510.541 302.856 513.556 299.095 516.347 296.239C517.69 294.865 519.451 293.21 521.466 291.884C522.475 291.22 524.014 290.324 525.965 289.712C527.88 289.111 531.195 288.475 534.993 289.696C539.888 291.27 542.612 294.822 543.721 296.428C545.048 298.348 546.003 300.392 546.669 301.966C547.707 304.416 548.733 307.452 549.578 309.95C549.788 310.573 549.988 311.163 550.173 311.702C550.99 314.076 551.666 315.881 552.263 317.209C562.86 319.622 579.878 324.067 591.441 327.087C592.239 327.296 593.011 327.498 593.754 327.691C597.298 325.265 601.468 322.668 605.644 320.549C608.905 318.894 612.789 317.209 616.73 316.313C620.012 315.566 626.912 314.514 633.126 318.781L638.128 322.215L638.883 328.244C642.947 360.703 633.637 398.097 613.887 422.57C603.857 434.998 590.524 444.795 574.197 447.948C557.674 451.139 540.046 447.145 522.387 435.633L537.092 412.983C550.144 421.491 560.758 423.024 569.094 421.414C577.626 419.767 585.769 414.437 592.919 405.578C604.615 391.085 611.986 369.081 612.786 347.514C609.743 349.395 606.844 351.441 604.731 353.07L599.523 357.089L593.155 355.451C590.747 354.832 587.601 354.011 584.031 353.078C570.977 349.67 552.244 344.779 543.07 342.851C534.863 341.126 530.768 334.247 529.245 331.473C528.328 329.801 527.514 328.005 526.798 326.246ZM623.115 342.596C623.109 342.603 623.008 342.624 622.826 342.637C623.029 342.595 623.12 342.589 623.115 342.596ZM553.348 319.192C553.346 319.207 553.265 319.112 553.112 318.864C553.275 319.054 553.351 319.178 553.348 319.192Z" fill="white" fill-opacity="0.87"/>
<path d="M1865.92 551.893C1857.82 551.893 1851.33 549.461 1846.47 544.596C1841.78 539.732 1839.44 533.246 1839.44 525.139V442.173H1802.69V418.662H1839.44V374.612H1867.27V418.662H1907V442.173H1867.27V520.274C1867.27 525.679 1869.8 528.382 1874.84 528.382H1902.68V551.893H1865.92Z" fill="white" fill-opacity="0.87"/>
<path d="M1710.54 555.676C1700.99 555.676 1692.43 554.054 1684.87 550.811C1677.48 547.569 1671.53 542.794 1667.03 536.489C1662.71 530.183 1660.54 522.526 1660.54 513.518C1660.54 504.329 1662.71 496.763 1667.03 490.817C1671.53 484.692 1677.57 480.097 1685.14 477.035C1692.88 473.972 1701.62 472.441 1711.35 472.441H1751.89V463.793C1751.89 456.046 1749.55 449.83 1744.86 445.146C1740.18 440.462 1732.97 438.119 1723.24 438.119C1713.69 438.119 1706.4 440.371 1701.35 444.876C1696.31 449.38 1692.97 455.235 1691.35 462.441L1665.41 454.064C1667.57 446.857 1670.99 440.371 1675.68 434.606C1680.54 428.661 1686.94 423.887 1694.87 420.283C1702.79 416.68 1712.34 414.878 1723.51 414.878C1740.81 414.878 1754.41 419.292 1764.32 428.12C1774.23 436.948 1779.18 449.47 1779.18 465.684V520.544C1779.18 525.949 1781.7 528.651 1786.75 528.651H1798.1V551.892H1777.29C1770.98 551.892 1765.85 550.271 1761.89 547.028C1757.92 543.785 1755.94 539.371 1755.94 533.786V532.975H1751.89C1750.45 535.678 1748.28 538.831 1745.4 542.434C1742.52 546.037 1738.29 549.19 1732.7 551.892C1727.11 554.415 1719.73 555.676 1710.54 555.676ZM1714.59 532.705C1725.76 532.705 1734.77 529.552 1741.62 523.247C1748.46 516.761 1751.89 507.933 1751.89 496.763V494.06H1712.97C1705.59 494.06 1699.64 495.682 1695.14 498.925C1690.63 501.987 1688.38 506.581 1688.38 512.707C1688.38 518.833 1690.72 523.697 1695.41 527.3C1700.09 530.903 1706.49 532.705 1714.59 532.705Z" fill="white" fill-opacity="0.87"/>
<path d="M1571.15 555.676C1558.36 555.676 1546.74 552.973 1536.29 547.569C1526.02 542.164 1517.82 534.327 1511.7 524.057C1505.75 513.788 1502.78 501.447 1502.78 487.034V483.521C1502.78 469.108 1505.75 456.856 1511.7 446.767C1517.82 436.498 1526.02 428.661 1536.29 423.256C1546.74 417.671 1558.36 414.878 1571.15 414.878C1583.94 414.878 1594.84 417.221 1603.85 421.905C1612.86 426.589 1620.06 432.805 1625.47 440.552C1631.05 448.299 1634.66 456.856 1636.28 466.225L1609.25 471.9C1608.35 465.955 1606.46 460.55 1603.58 455.685C1600.7 450.821 1596.64 446.947 1591.42 444.065C1586.19 441.182 1579.62 439.741 1571.69 439.741C1563.94 439.741 1556.92 441.543 1550.61 445.146C1544.48 448.569 1539.62 453.613 1536.02 460.28C1532.41 466.765 1530.61 474.693 1530.61 484.061V486.493C1530.61 495.862 1532.41 503.879 1536.02 510.545C1539.62 517.211 1544.48 522.256 1550.61 525.679C1556.92 529.102 1563.94 530.813 1571.69 530.813C1583.4 530.813 1592.32 527.841 1598.44 521.895C1604.57 515.77 1608.44 508.023 1610.06 498.654L1637.09 504.87C1634.93 514.058 1631.05 522.526 1625.47 530.273C1620.06 538.02 1612.86 544.236 1603.85 548.92C1594.84 553.424 1583.94 555.676 1571.15 555.676Z" fill="white" fill-opacity="0.87"/>
<path d="M1412.52 555.676C1399.01 555.676 1387.21 552.883 1377.12 547.298C1367.03 541.533 1359.1 533.516 1353.34 523.247C1347.75 512.797 1344.96 500.726 1344.96 487.034V483.791C1344.96 469.918 1347.75 457.847 1353.34 447.578C1358.92 437.129 1366.67 429.111 1376.58 423.526C1386.67 417.761 1398.29 414.878 1411.44 414.878C1424.23 414.878 1435.4 417.761 1444.95 423.526C1454.68 429.111 1462.24 436.948 1467.65 447.038C1473.05 457.127 1475.76 468.927 1475.76 482.44V492.979H1373.33C1373.69 504.69 1377.57 514.058 1384.95 521.085C1392.52 527.931 1401.89 531.354 1413.06 531.354C1423.51 531.354 1431.35 529.012 1436.57 524.328C1441.98 519.643 1446.12 514.238 1449 508.113L1471.97 520.004C1469.45 525.048 1465.76 530.363 1460.89 535.948C1456.21 541.533 1449.99 546.217 1442.25 550.001C1434.5 553.784 1424.59 555.676 1412.52 555.676ZM1373.6 471.63H1447.38C1446.66 461.541 1443.06 453.704 1436.57 448.119C1430.09 442.353 1421.62 439.471 1411.17 439.471C1400.72 439.471 1392.16 442.353 1385.49 448.119C1379.01 453.704 1375.05 461.541 1373.6 471.63Z" fill="white" fill-opacity="0.87"/>
<path d="M1253.4 555.676C1240.61 555.676 1228.99 552.973 1218.54 547.569C1208.27 542.164 1200.07 534.327 1193.95 524.057C1188 513.788 1185.03 501.447 1185.03 487.034V483.521C1185.03 469.108 1188 456.856 1193.95 446.767C1200.07 436.498 1208.27 428.661 1218.54 423.256C1228.99 417.671 1240.61 414.878 1253.4 414.878C1266.19 414.878 1277.09 417.221 1286.1 421.905C1295.11 426.589 1302.31 432.805 1307.72 440.552C1313.3 448.299 1316.91 456.856 1318.53 466.225L1291.51 471.9C1290.6 465.955 1288.71 460.55 1285.83 455.685C1282.95 450.821 1278.89 446.947 1273.67 444.065C1268.44 441.182 1261.87 439.741 1253.94 439.741C1246.19 439.741 1239.17 441.543 1232.86 445.146C1226.74 448.569 1221.87 453.613 1218.27 460.28C1214.67 466.765 1212.86 474.693 1212.86 484.061V486.493C1212.86 495.862 1214.67 503.879 1218.27 510.545C1221.87 517.211 1226.74 522.256 1232.86 525.679C1239.17 529.102 1246.19 530.813 1253.94 530.813C1265.65 530.813 1274.57 527.841 1280.7 521.895C1286.82 515.77 1290.69 508.023 1292.32 498.654L1319.34 504.87C1317.18 514.058 1313.3 522.526 1307.72 530.273C1302.31 538.02 1295.11 544.236 1286.1 548.92C1277.09 553.424 1266.19 555.676 1253.4 555.676Z" fill="white" fill-opacity="0.87"/>
<path d="M1080.06 555.676C1070.51 555.676 1061.95 554.054 1054.38 550.811C1047 547.569 1041.05 542.794 1036.55 536.489C1032.22 530.183 1030.06 522.526 1030.06 513.518C1030.06 504.329 1032.22 496.763 1036.55 490.817C1041.05 484.692 1047.09 480.097 1054.65 477.035C1062.4 473.972 1071.14 472.441 1080.87 472.441H1121.41V463.793C1121.41 456.046 1119.06 449.83 1114.38 445.146C1109.69 440.462 1102.49 438.119 1092.76 438.119C1083.21 438.119 1075.91 440.371 1070.87 444.876C1065.82 449.38 1062.49 455.235 1060.87 462.441L1034.93 454.064C1037.09 446.857 1040.51 440.371 1045.2 434.606C1050.06 428.661 1056.46 423.887 1064.38 420.283C1072.31 416.68 1081.86 414.878 1093.03 414.878C1110.33 414.878 1123.93 419.292 1133.84 428.12C1143.75 436.948 1148.7 449.47 1148.7 465.684V520.544C1148.7 525.949 1151.22 528.651 1156.27 528.651H1167.62V551.892H1146.81C1140.5 551.892 1135.37 550.271 1131.4 547.028C1127.44 543.785 1125.46 539.371 1125.46 533.786V532.975H1121.41C1119.96 535.678 1117.8 538.831 1114.92 542.434C1112.04 546.037 1107.8 549.19 1102.22 551.892C1096.63 554.415 1089.25 555.676 1080.06 555.676ZM1084.11 532.705C1095.28 532.705 1104.29 529.552 1111.14 523.247C1117.98 516.761 1121.41 507.933 1121.41 496.763V494.06H1082.49C1075.1 494.06 1069.16 495.682 1064.65 498.925C1060.15 501.987 1057.9 506.581 1057.9 512.707C1057.9 518.833 1060.24 523.697 1064.92 527.3C1069.61 530.903 1076 532.705 1084.11 532.705Z" fill="white" fill-opacity="0.87"/>
<path d="M937.896 551.893V418.662H965.19V434.336H969.514C971.676 428.751 975.099 424.698 979.783 422.175C984.648 419.473 990.593 418.122 997.62 418.122H1013.56V443.254H996.539C987.53 443.254 980.144 445.777 974.379 450.821C968.613 455.686 965.731 463.252 965.731 473.522V551.893H937.896Z" fill="white" fill-opacity="0.87"/>
<path d="M842.871 551.892V389.205H784.769V362.721H930.16V389.205H872.058V551.892H842.871Z" fill="white" fill-opacity="0.87"/>
<path d="M2466.57 392.963V387.182H2506.94V392.963H2490.01V441H2483.5V392.963H2466.57ZM2522.36 416.719V441H2516.15V387.182H2522.36V406.943H2522.88C2523.83 404.858 2525.25 403.203 2527.14 401.977C2529.05 400.733 2531.59 400.111 2534.76 400.111C2537.51 400.111 2539.92 400.663 2541.99 401.766C2544.05 402.853 2545.66 404.526 2546.8 406.786C2547.95 409.028 2548.53 411.884 2548.53 415.352V441H2542.33V415.773C2542.33 412.567 2541.5 410.088 2539.83 408.336C2538.18 406.567 2535.9 405.682 2532.97 405.682C2530.94 405.682 2529.12 406.111 2527.51 406.969C2525.91 407.828 2524.65 409.08 2523.72 410.727C2522.81 412.374 2522.36 414.371 2522.36 416.719ZM2576.8 441.841C2572.91 441.841 2569.55 440.982 2566.73 439.266C2563.93 437.531 2561.77 435.114 2560.24 432.013C2558.74 428.894 2557.98 425.268 2557.98 421.134C2557.98 416.999 2558.74 413.355 2560.24 410.202C2561.77 407.031 2563.89 404.561 2566.6 402.791C2569.34 401.004 2572.52 400.111 2576.17 400.111C2578.27 400.111 2580.35 400.461 2582.4 401.162C2584.45 401.863 2586.31 403.001 2587.99 404.578C2589.68 406.137 2591.02 408.205 2592.01 410.78C2593.01 413.355 2593.51 416.526 2593.51 420.293V422.92H2562.4V417.56H2587.2C2587.2 415.282 2586.75 413.25 2585.84 411.463C2584.94 409.676 2583.67 408.266 2582 407.232C2580.35 406.199 2578.41 405.682 2576.17 405.682C2573.7 405.682 2571.56 406.295 2569.76 407.521C2567.97 408.73 2566.59 410.307 2565.63 412.251C2564.67 414.196 2564.19 416.281 2564.19 418.506V422.08C2564.19 425.128 2564.71 427.712 2565.76 429.832C2566.83 431.934 2568.31 433.537 2570.2 434.641C2572.09 435.727 2574.29 436.27 2576.8 436.27C2578.43 436.27 2579.9 436.042 2581.21 435.587C2582.54 435.114 2583.69 434.413 2584.66 433.484C2585.62 432.538 2586.36 431.365 2586.89 429.963L2592.88 431.645C2592.25 433.677 2591.19 435.464 2589.7 437.006C2588.21 438.53 2586.37 439.721 2584.18 440.58C2581.99 441.42 2579.53 441.841 2576.8 441.841ZM2640.16 441.841C2636.51 441.841 2633.31 440.974 2630.56 439.239C2627.83 437.505 2625.69 435.079 2624.15 431.96C2622.63 428.842 2621.87 425.198 2621.87 421.028C2621.87 416.824 2622.63 413.154 2624.15 410.018C2625.69 406.882 2627.83 404.447 2630.56 402.712C2633.31 400.978 2636.51 400.111 2640.16 400.111C2643.8 400.111 2646.99 400.978 2649.72 402.712C2652.47 404.447 2654.61 406.882 2656.13 410.018C2657.67 413.154 2658.45 416.824 2658.45 421.028C2658.45 425.198 2657.67 428.842 2656.13 431.96C2654.61 435.079 2652.47 437.505 2649.72 439.239C2646.99 440.974 2643.8 441.841 2640.16 441.841ZM2640.16 436.27C2642.92 436.27 2645.2 435.56 2646.99 434.141C2648.78 432.722 2650.1 430.857 2650.96 428.544C2651.81 426.232 2652.24 423.726 2652.24 421.028C2652.24 418.33 2651.81 415.817 2650.96 413.487C2650.1 411.156 2648.78 409.273 2646.99 407.837C2645.2 406.4 2642.92 405.682 2640.16 405.682C2637.39 405.682 2635.11 406.4 2633.32 407.837C2631.54 409.273 2630.21 411.156 2629.36 413.487C2628.5 415.817 2628.07 418.33 2628.07 421.028C2628.07 423.726 2628.5 426.232 2629.36 428.544C2630.21 430.857 2631.54 432.722 2633.32 434.141C2635.11 435.56 2637.39 436.27 2640.16 436.27ZM2667.91 456.136V400.636H2673.9V407.048H2674.64C2675.1 406.348 2675.73 405.454 2676.53 404.368C2677.36 403.264 2678.53 402.283 2680.05 401.425C2681.59 400.549 2683.68 400.111 2686.31 400.111C2689.71 400.111 2692.7 400.96 2695.29 402.66C2697.89 404.359 2699.91 406.768 2701.36 409.886C2702.82 413.005 2703.55 416.684 2703.55 420.923C2703.55 425.198 2702.82 428.903 2701.36 432.039C2699.91 435.157 2697.9 437.575 2695.32 439.292C2692.75 440.991 2689.78 441.841 2686.41 441.841C2683.82 441.841 2681.74 441.412 2680.18 440.553C2678.63 439.677 2677.43 438.687 2676.58 437.584C2675.74 436.463 2675.1 435.534 2674.64 434.798H2674.11V456.136H2667.91ZM2674.01 420.818C2674.01 423.866 2674.46 426.556 2675.35 428.886C2676.24 431.198 2677.55 433.011 2679.26 434.325C2680.98 435.622 2683.08 436.27 2685.57 436.27C2688.16 436.27 2690.33 435.587 2692.06 434.22C2693.81 432.836 2695.13 430.979 2696 428.649C2696.9 426.302 2697.34 423.691 2697.34 420.818C2697.34 417.98 2696.91 415.422 2696.03 413.145C2695.17 410.85 2693.87 409.037 2692.11 407.705C2690.38 406.356 2688.2 405.682 2685.57 405.682C2683.05 405.682 2680.93 406.321 2679.21 407.6C2677.5 408.862 2676.2 410.631 2675.32 412.908C2674.45 415.168 2674.01 417.805 2674.01 420.818ZM2729.93 441.841C2726.04 441.841 2722.69 440.982 2719.86 439.266C2717.06 437.531 2714.9 435.114 2713.37 432.013C2711.87 428.894 2711.11 425.268 2711.11 421.134C2711.11 416.999 2711.87 413.355 2713.37 410.202C2714.9 407.031 2717.02 404.561 2719.73 402.791C2722.47 401.004 2725.65 400.111 2729.3 400.111C2731.4 400.111 2733.48 400.461 2735.53 401.162C2737.58 401.863 2739.44 403.001 2741.12 404.578C2742.81 406.137 2744.15 408.205 2745.14 410.78C2746.14 413.355 2746.64 416.526 2746.64 420.293V422.92H2715.53V417.56H2740.34C2740.34 415.282 2739.88 413.25 2738.97 411.463C2738.08 409.676 2736.8 408.266 2735.13 407.232C2733.49 406.199 2731.54 405.682 2729.3 405.682C2726.83 405.682 2724.69 406.295 2722.89 407.521C2721.1 408.73 2719.72 410.307 2718.76 412.251C2717.8 414.196 2717.32 416.281 2717.32 418.506V422.08C2717.32 425.128 2717.84 427.712 2718.89 429.832C2719.96 431.934 2721.44 433.537 2723.33 434.641C2725.23 435.727 2727.42 436.27 2729.93 436.27C2731.56 436.27 2733.03 436.042 2734.34 435.587C2735.68 435.114 2736.82 434.413 2737.79 433.484C2738.75 432.538 2739.49 431.365 2740.02 429.963L2746.01 431.645C2745.38 433.677 2744.32 435.464 2742.83 437.006C2741.34 438.53 2739.5 439.721 2737.31 440.58C2735.12 441.42 2732.66 441.841 2729.93 441.841ZM2762.28 416.719V441H2756.08V400.636H2762.07V406.943H2762.59C2763.54 404.893 2764.98 403.247 2766.9 402.003C2768.83 400.741 2771.32 400.111 2774.37 400.111C2777.1 400.111 2779.49 400.671 2781.54 401.793C2783.59 402.896 2785.18 404.578 2786.32 406.838C2787.46 409.08 2788.03 411.919 2788.03 415.352V441H2781.83V415.773C2781.83 412.602 2781.01 410.132 2779.36 408.362C2777.71 406.575 2775.45 405.682 2772.58 405.682C2770.6 405.682 2768.83 406.111 2767.27 406.969C2765.73 407.828 2764.51 409.08 2763.62 410.727C2762.72 412.374 2762.28 414.371 2762.28 416.719ZM2829.32 441L2817.02 400.636H2823.54L2832.26 431.54H2832.68L2841.3 400.636H2847.93L2856.44 431.435H2856.86L2865.59 400.636H2872.1L2859.8 441H2853.71L2844.88 409.991H2844.25L2835.42 441H2829.32ZM2895.33 441.841C2891.68 441.841 2888.48 440.974 2885.73 439.239C2883 437.505 2880.86 435.079 2879.32 431.96C2877.8 428.842 2877.04 425.198 2877.04 421.028C2877.04 416.824 2877.8 413.154 2879.32 410.018C2880.86 406.882 2883 404.447 2885.73 402.712C2888.48 400.978 2891.68 400.111 2895.33 400.111C2898.97 400.111 2902.16 400.978 2904.89 402.712C2907.64 404.447 2909.78 406.882 2911.3 410.018C2912.84 413.154 2913.62 416.824 2913.62 421.028C2913.62 425.198 2912.84 428.842 2911.3 431.96C2909.78 435.079 2907.64 437.505 2904.89 439.239C2902.16 440.974 2898.97 441.841 2895.33 441.841ZM2895.33 436.27C2898.09 436.27 2900.37 435.56 2902.16 434.141C2903.95 432.722 2905.27 430.857 2906.13 428.544C2906.98 426.232 2907.41 423.726 2907.41 421.028C2907.41 418.33 2906.98 415.817 2906.13 413.487C2905.27 411.156 2903.95 409.273 2902.16 407.837C2900.37 406.4 2898.09 405.682 2895.33 405.682C2892.56 405.682 2890.28 406.4 2888.49 407.837C2886.71 409.273 2885.38 411.156 2884.53 413.487C2883.67 415.817 2883.24 418.33 2883.24 421.028C2883.24 423.726 2883.67 426.232 2884.53 428.544C2885.38 430.857 2886.71 432.722 2888.49 434.141C2890.28 435.56 2892.56 436.27 2895.33 436.27ZM2923.08 441V400.636H2929.07V406.733H2929.49C2930.23 404.736 2931.56 403.115 2933.49 401.871C2935.42 400.628 2937.59 400.006 2940.01 400.006C2940.46 400.006 2941.03 400.014 2941.71 400.032C2942.4 400.049 2942.91 400.076 2943.26 400.111V406.418C2943.05 406.365 2942.57 406.286 2941.82 406.181C2941.08 406.058 2940.3 405.997 2939.48 405.997C2937.52 405.997 2935.77 406.409 2934.22 407.232C2932.7 408.038 2931.49 409.159 2930.6 410.596C2929.72 412.015 2929.28 413.635 2929.28 415.457V441H2923.08ZM2956.4 426.284L2956.29 418.611H2957.55L2975.21 400.636H2982.89L2964.07 419.662H2963.54L2956.4 426.284ZM2950.62 441V387.182H2956.82V441H2950.62ZM2976.26 441L2960.5 421.028L2964.91 416.719L2984.15 441H2976.26ZM3008.84 400.636V405.892H2987.08V400.636H3008.84ZM2993.6 441V395.065C2993.6 392.753 2994.14 390.826 2995.23 389.284C2996.32 387.742 2997.73 386.586 2999.46 385.815C3001.19 385.045 3003.03 384.659 3004.95 384.659C3006.48 384.659 3007.72 384.782 3008.68 385.027C3009.65 385.272 3010.37 385.5 3010.84 385.71L3009.05 391.071C3008.74 390.966 3008.3 390.835 3007.74 390.677C3007.2 390.519 3006.48 390.44 3005.58 390.44C3003.53 390.44 3002.05 390.957 3001.14 391.991C3000.25 393.024 2999.8 394.54 2999.8 396.537V441H2993.6ZM3023.74 387.182V441H3017.53V387.182H3023.74ZM3051.49 441.841C3047.85 441.841 3044.65 440.974 3041.9 439.239C3039.17 437.505 3037.03 435.079 3035.49 431.96C3033.96 428.842 3033.2 425.198 3033.2 421.028C3033.2 416.824 3033.96 413.154 3035.49 410.018C3037.03 406.882 3039.17 404.447 3041.9 402.712C3044.65 400.978 3047.85 400.111 3051.49 400.111C3055.14 400.111 3058.32 400.978 3061.06 402.712C3063.81 404.447 3065.94 406.882 3067.47 410.018C3069.01 413.154 3069.78 416.824 3069.78 421.028C3069.78 425.198 3069.01 428.842 3067.47 431.96C3065.94 435.079 3063.81 437.505 3061.06 439.239C3058.32 440.974 3055.14 441.841 3051.49 441.841ZM3051.49 436.27C3054.26 436.27 3056.54 435.56 3058.32 434.141C3060.11 432.722 3061.43 430.857 3062.29 428.544C3063.15 426.232 3063.58 423.726 3063.58 421.028C3063.58 418.33 3063.15 415.817 3062.29 413.487C3061.43 411.156 3060.11 409.273 3058.32 407.837C3056.54 406.4 3054.26 405.682 3051.49 405.682C3048.72 405.682 3046.45 406.4 3044.66 407.837C3042.87 409.273 3041.55 411.156 3040.69 413.487C3039.83 415.817 3039.4 418.33 3039.4 421.028C3039.4 423.726 3039.83 426.232 3040.69 428.544C3041.55 430.857 3042.87 432.722 3044.66 434.141C3046.45 435.56 3048.72 436.27 3051.49 436.27ZM3087.02 441L3074.72 400.636H3081.24L3089.96 431.54H3090.38L3099 400.636H3105.63L3114.14 431.435H3114.56L3123.28 400.636H3129.8L3117.5 441H3111.41L3102.58 409.991H3101.95L3093.12 441H3087.02ZM3170.69 441.946C3168.13 441.946 3165.81 441.464 3163.73 440.501C3161.64 439.52 3159.99 438.109 3158.76 436.27C3157.53 434.413 3156.92 432.17 3156.92 429.543C3156.92 427.23 3157.38 425.356 3158.29 423.919C3159.2 422.465 3160.42 421.326 3161.94 420.503C3163.46 419.679 3165.15 419.066 3166.99 418.663C3168.84 418.243 3170.71 417.91 3172.58 417.665C3175.04 417.349 3177.02 417.113 3178.55 416.955C3180.09 416.78 3181.21 416.491 3181.91 416.088C3182.63 415.685 3182.99 414.984 3182.99 413.986V413.776C3182.99 411.183 3182.28 409.168 3180.86 407.732C3179.46 406.295 3177.33 405.577 3174.47 405.577C3171.51 405.577 3169.19 406.225 3167.51 407.521C3165.83 408.818 3164.65 410.202 3163.96 411.673L3158.08 409.571C3159.13 407.118 3160.53 405.209 3162.28 403.842C3164.05 402.458 3165.98 401.495 3168.06 400.952C3170.17 400.391 3172.23 400.111 3174.26 400.111C3175.56 400.111 3177.05 400.268 3178.73 400.584C3180.43 400.882 3182.07 401.504 3183.65 402.45C3185.24 403.396 3186.56 404.823 3187.61 406.733C3188.67 408.643 3189.19 411.2 3189.19 414.406V441H3182.99V435.534H3182.67C3182.25 436.41 3181.55 437.347 3180.57 438.346C3179.59 439.344 3178.29 440.194 3176.66 440.895C3175.03 441.596 3173.04 441.946 3170.69 441.946ZM3171.64 436.375C3174.09 436.375 3176.16 435.893 3177.84 434.93C3179.54 433.966 3180.82 432.722 3181.68 431.198C3182.55 429.674 3182.99 428.071 3182.99 426.389V420.713C3182.73 421.028 3182.15 421.317 3181.25 421.58C3180.38 421.826 3179.36 422.045 3178.21 422.237C3177.07 422.412 3175.96 422.57 3174.87 422.71C3173.8 422.833 3172.93 422.938 3172.27 423.026C3170.66 423.236 3169.15 423.577 3167.75 424.05C3166.36 424.506 3165.24 425.198 3164.38 426.126C3163.54 427.037 3163.12 428.281 3163.12 429.858C3163.12 432.013 3163.92 433.642 3165.51 434.746C3167.13 435.832 3169.17 436.375 3171.64 436.375ZM3225.95 424.497V400.636H3232.15V441H3225.95V434.168H3225.53C3224.58 436.217 3223.11 437.96 3221.11 439.397C3219.12 440.816 3216.59 441.526 3213.54 441.526C3211.02 441.526 3208.78 440.974 3206.82 439.87C3204.85 438.749 3203.31 437.067 3202.19 434.825C3201.07 432.565 3200.51 429.718 3200.51 426.284V400.636H3206.71V425.864C3206.71 428.807 3207.54 431.154 3209.18 432.906C3210.85 434.658 3212.97 435.534 3215.54 435.534C3217.08 435.534 3218.65 435.14 3220.25 434.352C3221.86 433.563 3223.21 432.354 3224.29 430.725C3225.4 429.096 3225.95 427.02 3225.95 424.497ZM3261.06 400.636V405.892H3240.14V400.636H3261.06ZM3246.24 390.966H3252.44V429.438C3252.44 431.189 3252.7 432.503 3253.2 433.379C3253.73 434.238 3254.4 434.816 3255.2 435.114C3256.03 435.394 3256.89 435.534 3257.8 435.534C3258.49 435.534 3259.05 435.499 3259.49 435.429C3259.92 435.341 3260.27 435.271 3260.54 435.219L3261.8 440.79C3261.38 440.947 3260.79 441.105 3260.04 441.263C3259.28 441.438 3258.33 441.526 3257.17 441.526C3255.42 441.526 3253.7 441.149 3252.02 440.396C3250.36 439.642 3248.97 438.495 3247.87 436.953C3246.78 435.411 3246.24 433.467 3246.24 431.119V390.966ZM3286.36 441.841C3282.71 441.841 3279.51 440.974 3276.76 439.239C3274.03 437.505 3271.89 435.079 3270.35 431.96C3268.83 428.842 3268.07 425.198 3268.07 421.028C3268.07 416.824 3268.83 413.154 3270.35 410.018C3271.89 406.882 3274.03 404.447 3276.76 402.712C3279.51 400.978 3282.71 400.111 3286.36 400.111C3290 400.111 3293.19 400.978 3295.92 402.712C3298.67 404.447 3300.81 406.882 3302.33 410.018C3303.87 413.154 3304.64 416.824 3304.64 421.028C3304.64 425.198 3303.87 428.842 3302.33 431.96C3300.81 435.079 3298.67 437.505 3295.92 439.239C3293.19 440.974 3290 441.841 3286.36 441.841ZM3286.36 436.27C3289.12 436.27 3291.4 435.56 3293.19 434.141C3294.97 432.722 3296.3 430.857 3297.16 428.544C3298.01 426.232 3298.44 423.726 3298.44 421.028C3298.44 418.33 3298.01 415.817 3297.16 413.487C3296.3 411.156 3294.97 409.273 3293.19 407.837C3291.4 406.4 3289.12 405.682 3286.36 405.682C3283.59 405.682 3281.31 406.4 3279.52 407.837C3277.74 409.273 3276.41 411.156 3275.55 413.487C3274.7 415.817 3274.27 418.33 3274.27 421.028C3274.27 423.726 3274.7 426.232 3275.55 428.544C3276.41 430.857 3277.74 432.722 3279.52 434.141C3281.31 435.56 3283.59 436.27 3286.36 436.27ZM3314.11 441V400.636H3320.1V406.943H3320.63C3321.47 404.788 3322.83 403.115 3324.7 401.924C3326.58 400.715 3328.83 400.111 3331.46 400.111C3334.12 400.111 3336.33 400.715 3338.1 401.924C3339.89 403.115 3341.28 404.788 3342.28 406.943H3342.7C3343.74 404.858 3345.29 403.203 3347.35 401.977C3349.42 400.733 3351.9 400.111 3354.79 400.111C3358.4 400.111 3361.35 401.241 3363.65 403.501C3365.94 405.743 3367.09 409.238 3367.09 413.986V441H3360.89V413.986C3360.89 411.008 3360.07 408.879 3358.44 407.6C3356.81 406.321 3354.9 405.682 3352.69 405.682C3349.85 405.682 3347.65 406.54 3346.09 408.257C3344.53 409.956 3343.75 412.111 3343.75 414.722V441H3337.45V413.355C3337.45 411.06 3336.7 409.212 3335.21 407.81C3333.72 406.391 3331.81 405.682 3329.46 405.682C3327.85 405.682 3326.34 406.111 3324.94 406.969C3323.55 407.828 3322.43 409.019 3321.57 410.543C3320.73 412.05 3320.31 413.793 3320.31 415.773V441H3314.11ZM3390.31 441.946C3387.75 441.946 3385.43 441.464 3383.34 440.501C3381.26 439.52 3379.6 438.109 3378.38 436.27C3377.15 434.413 3376.54 432.17 3376.54 429.543C3376.54 427.23 3376.99 425.356 3377.9 423.919C3378.81 422.465 3380.03 421.326 3381.56 420.503C3383.08 419.679 3384.76 419.066 3386.6 418.663C3388.46 418.243 3390.32 417.91 3392.2 417.665C3394.65 417.349 3396.64 417.113 3398.16 416.955C3399.7 416.78 3400.83 416.491 3401.53 416.088C3402.25 415.685 3402.6 414.984 3402.6 413.986V413.776C3402.6 411.183 3401.89 409.168 3400.48 407.732C3399.07 406.295 3396.95 405.577 3394.09 405.577C3391.13 405.577 3388.81 406.225 3387.13 407.521C3385.44 408.818 3384.26 410.202 3383.58 411.673L3377.69 409.571C3378.74 407.118 3380.14 405.209 3381.9 403.842C3383.67 402.458 3385.59 401.495 3387.68 400.952C3389.78 400.391 3391.85 400.111 3393.88 400.111C3395.18 400.111 3396.67 400.268 3398.35 400.584C3400.05 400.882 3401.68 401.504 3403.26 402.45C3404.86 403.396 3406.18 404.823 3407.23 406.733C3408.28 408.643 3408.81 411.2 3408.81 414.406V441H3402.6V435.534H3402.29C3401.87 436.41 3401.17 437.347 3400.19 438.346C3399.21 439.344 3397.9 440.194 3396.27 440.895C3394.64 441.596 3392.65 441.946 3390.31 441.946ZM3391.25 436.375C3393.7 436.375 3395.77 435.893 3397.45 434.93C3399.15 433.966 3400.43 432.722 3401.29 431.198C3402.17 429.674 3402.6 428.071 3402.6 426.389V420.713C3402.34 421.028 3401.76 421.317 3400.87 421.58C3399.99 421.826 3398.98 422.045 3397.82 422.237C3396.68 422.412 3395.57 422.57 3394.48 422.71C3393.42 422.833 3392.55 422.938 3391.88 423.026C3390.27 423.236 3388.76 423.577 3387.36 424.05C3385.98 424.506 3384.86 425.198 3384 426.126C3383.16 427.037 3382.74 428.281 3382.74 429.858C3382.74 432.013 3383.53 433.642 3385.13 434.746C3386.74 435.832 3388.78 436.375 3391.25 436.375ZM3437.68 400.636V405.892H3416.76V400.636H3437.68ZM3422.86 390.966H3429.06V429.438C3429.06 431.189 3429.31 432.503 3429.82 433.379C3430.35 434.238 3431.01 434.816 3431.82 435.114C3432.64 435.394 3433.51 435.534 3434.42 435.534C3435.1 435.534 3435.66 435.499 3436.1 435.429C3436.54 435.341 3436.89 435.271 3437.15 435.219L3438.42 440.79C3437.99 440.947 3437.41 441.105 3436.65 441.263C3435.9 441.438 3434.95 441.526 3433.79 441.526C3432.04 441.526 3430.32 441.149 3428.64 440.396C3426.98 439.642 3425.59 438.495 3424.49 436.953C3423.4 435.411 3422.86 433.467 3422.86 431.119V390.966ZM3447.01 441V400.636H3453.21V441H3447.01ZM3450.16 393.909C3448.95 393.909 3447.91 393.497 3447.03 392.674C3446.18 391.851 3445.75 390.861 3445.75 389.705C3445.75 388.548 3446.18 387.558 3447.03 386.735C3447.91 385.912 3448.95 385.5 3450.16 385.5C3451.37 385.5 3452.4 385.912 3453.26 386.735C3454.14 387.558 3454.58 388.548 3454.58 389.705C3454.58 390.861 3454.14 391.851 3453.26 392.674C3452.4 393.497 3451.37 393.909 3450.16 393.909ZM3480.97 441.841C3477.32 441.841 3474.13 440.974 3471.37 439.239C3468.64 437.505 3466.5 435.079 3464.96 431.96C3463.44 428.842 3462.68 425.198 3462.68 421.028C3462.68 416.824 3463.44 413.154 3464.96 410.018C3466.5 406.882 3468.64 404.447 3471.37 402.712C3474.13 400.978 3477.32 400.111 3480.97 400.111C3484.61 400.111 3487.8 400.978 3490.53 402.712C3493.28 404.447 3495.42 406.882 3496.94 410.018C3498.49 413.154 3499.26 416.824 3499.26 421.028C3499.26 425.198 3498.49 428.842 3496.94 431.96C3495.42 435.079 3493.28 437.505 3490.53 439.239C3487.8 440.974 3484.61 441.841 3480.97 441.841ZM3480.97 436.27C3483.73 436.27 3486.01 435.56 3487.8 434.141C3489.59 432.722 3490.91 430.857 3491.77 428.544C3492.63 426.232 3493.05 423.726 3493.05 421.028C3493.05 418.33 3492.63 415.817 3491.77 413.487C3490.91 411.156 3489.59 409.273 3487.8 407.837C3486.01 406.4 3483.73 405.682 3480.97 405.682C3478.2 405.682 3475.92 406.4 3474.13 407.837C3472.35 409.273 3471.02 411.156 3470.17 413.487C3469.31 415.817 3468.88 418.33 3468.88 421.028C3468.88 423.726 3469.31 426.232 3470.17 428.544C3471.02 430.857 3472.35 432.722 3474.13 434.141C3475.92 435.56 3478.2 436.27 3480.97 436.27ZM3514.92 416.719V441H3508.72V400.636H3514.71V406.943H3515.24C3516.19 404.893 3517.62 403.247 3519.55 402.003C3521.48 400.741 3523.96 400.111 3527.01 400.111C3529.75 400.111 3532.14 400.671 3534.19 401.793C3536.24 402.896 3537.83 404.578 3538.97 406.838C3540.11 409.08 3540.68 411.919 3540.68 415.352V441H3534.48V415.773C3534.48 412.602 3533.65 410.132 3532.01 408.362C3530.36 406.575 3528.1 405.682 3525.23 405.682C3523.25 405.682 3521.48 406.111 3519.92 406.969C3518.38 407.828 3517.16 409.08 3516.26 410.727C3515.37 412.374 3514.92 414.371 3514.92 416.719ZM2468.68 554.136V498.636H2474.67V505.048H2475.4C2475.86 504.348 2476.49 503.454 2477.3 502.368C2478.12 501.264 2479.29 500.283 2480.82 499.425C2482.36 498.549 2484.44 498.111 2487.07 498.111C2490.47 498.111 2493.47 498.96 2496.06 500.66C2498.65 502.359 2500.67 504.768 2502.13 507.886C2503.58 511.005 2504.31 514.684 2504.31 518.923C2504.31 523.198 2503.58 526.903 2502.13 530.039C2500.67 533.157 2498.66 535.575 2496.08 537.292C2493.51 538.991 2490.54 539.841 2487.18 539.841C2484.58 539.841 2482.51 539.412 2480.95 538.553C2479.39 537.677 2478.19 536.687 2477.35 535.584C2476.51 534.463 2475.86 533.534 2475.4 532.798H2474.88V554.136H2468.68ZM2474.77 518.818C2474.77 521.866 2475.22 524.556 2476.11 526.886C2477.01 529.198 2478.31 531.011 2480.03 532.325C2481.75 533.622 2483.85 534.27 2486.34 534.27C2488.93 534.27 2491.09 533.587 2492.83 532.22C2494.58 530.836 2495.89 528.979 2496.77 526.649C2497.66 524.302 2498.11 521.691 2498.11 518.818C2498.11 515.98 2497.67 513.422 2496.79 511.145C2495.94 508.85 2494.63 507.037 2492.88 505.705C2491.14 504.356 2488.96 503.682 2486.34 503.682C2483.81 503.682 2481.69 504.321 2479.98 505.6C2478.26 506.862 2476.96 508.631 2476.09 510.908C2475.21 513.168 2474.77 515.805 2474.77 518.818ZM2519.97 485.182V539H2513.77V485.182H2519.97ZM2543.21 539.946C2540.65 539.946 2538.33 539.464 2536.24 538.501C2534.16 537.52 2532.5 536.109 2531.28 534.27C2530.05 532.413 2529.44 530.17 2529.44 527.543C2529.44 525.23 2529.89 523.356 2530.8 521.919C2531.72 520.465 2532.93 519.326 2534.46 518.503C2535.98 517.679 2537.66 517.066 2539.5 516.663C2541.36 516.243 2543.23 515.91 2545.1 515.665C2547.55 515.349 2549.54 515.113 2551.07 514.955C2552.61 514.78 2553.73 514.491 2554.43 514.088C2555.15 513.685 2555.51 512.984 2555.51 511.986V511.776C2555.51 509.183 2554.8 507.168 2553.38 505.732C2551.98 504.295 2549.85 503.577 2546.99 503.577C2544.03 503.577 2541.71 504.225 2540.03 505.521C2538.35 506.818 2537.16 508.202 2536.48 509.673L2530.59 507.571C2531.65 505.118 2533.05 503.209 2534.8 501.842C2536.57 500.458 2538.5 499.495 2540.58 498.952C2542.68 498.391 2544.75 498.111 2546.78 498.111C2548.08 498.111 2549.57 498.268 2551.25 498.584C2552.95 498.882 2554.59 499.504 2556.16 500.45C2557.76 501.396 2559.08 502.823 2560.13 504.733C2561.18 506.643 2561.71 509.2 2561.71 512.406V539H2555.51V533.534H2555.19C2554.77 534.41 2554.07 535.347 2553.09 536.346C2552.11 537.344 2550.8 538.194 2549.17 538.895C2547.54 539.596 2545.56 539.946 2543.21 539.946ZM2544.15 534.375C2546.61 534.375 2548.67 533.893 2550.36 532.93C2552.06 531.966 2553.33 530.722 2554.19 529.198C2555.07 527.674 2555.51 526.071 2555.51 524.389V518.713C2555.24 519.028 2554.67 519.317 2553.77 519.58C2552.9 519.826 2551.88 520.045 2550.72 520.237C2549.59 520.412 2548.47 520.57 2547.39 520.71C2546.32 520.833 2545.45 520.938 2544.78 521.026C2543.17 521.236 2541.67 521.577 2540.27 522.05C2538.88 522.506 2537.76 523.198 2536.9 524.126C2536.06 525.037 2535.64 526.281 2535.64 527.858C2535.64 530.013 2536.44 531.642 2538.03 532.746C2539.64 533.832 2541.68 534.375 2544.15 534.375ZM2590.58 498.636V503.892H2569.66V498.636H2590.58ZM2575.76 488.966H2581.96V527.438C2581.96 529.189 2582.22 530.503 2582.72 531.379C2583.25 532.238 2583.92 532.816 2584.72 533.114C2585.54 533.394 2586.41 533.534 2587.32 533.534C2588.01 533.534 2588.57 533.499 2589 533.429C2589.44 533.341 2589.79 533.271 2590.06 533.219L2591.32 538.79C2590.9 538.947 2590.31 539.105 2589.56 539.263C2588.8 539.438 2587.85 539.526 2586.69 539.526C2584.94 539.526 2583.22 539.149 2581.54 538.396C2579.88 537.642 2578.49 536.495 2577.39 534.953C2576.3 533.411 2575.76 531.467 2575.76 529.119V488.966ZM2617.88 498.636V503.892H2596.13V498.636H2617.88ZM2602.64 539V493.065C2602.64 490.753 2603.19 488.826 2604.27 487.284C2605.36 485.742 2606.77 484.586 2608.5 483.815C2610.24 483.045 2612.07 482.659 2614 482.659C2615.52 482.659 2616.76 482.782 2617.73 483.027C2618.69 483.272 2619.41 483.5 2619.88 483.71L2618.1 489.071C2617.78 488.966 2617.34 488.835 2616.78 488.677C2616.24 488.519 2615.52 488.44 2614.63 488.44C2612.58 488.44 2611.1 488.957 2610.19 489.991C2609.29 491.024 2608.85 492.54 2608.85 494.537V539H2602.64ZM2641.31 539.841C2637.67 539.841 2634.47 538.974 2631.72 537.239C2628.99 535.505 2626.85 533.079 2625.31 529.96C2623.78 526.842 2623.02 523.198 2623.02 519.028C2623.02 514.824 2623.78 511.154 2625.31 508.018C2626.85 504.882 2628.99 502.447 2631.72 500.712C2634.47 498.978 2637.67 498.111 2641.31 498.111C2644.96 498.111 2648.14 498.978 2650.88 500.712C2653.63 502.447 2655.77 504.882 2657.29 508.018C2658.83 511.154 2659.6 514.824 2659.6 519.028C2659.6 523.198 2658.83 526.842 2657.29 529.96C2655.77 533.079 2653.63 535.505 2650.88 537.239C2648.14 538.974 2644.96 539.841 2641.31 539.841ZM2641.31 534.27C2644.08 534.27 2646.36 533.56 2648.14 532.141C2649.93 530.722 2651.25 528.857 2652.11 526.544C2652.97 524.232 2653.4 521.726 2653.4 519.028C2653.4 516.33 2652.97 513.817 2652.11 511.487C2651.25 509.156 2649.93 507.273 2648.14 505.837C2646.36 504.4 2644.08 503.682 2641.31 503.682C2638.54 503.682 2636.27 504.4 2634.48 505.837C2632.69 507.273 2631.37 509.156 2630.51 511.487C2629.65 513.817 2629.22 516.33 2629.22 519.028C2629.22 521.726 2629.65 524.232 2630.51 526.544C2631.37 528.857 2632.69 530.722 2634.48 532.141C2636.27 533.56 2638.54 534.27 2641.31 534.27ZM2669.07 539V498.636H2675.06V504.733H2675.48C2676.22 502.736 2677.55 501.115 2679.47 499.871C2681.4 498.628 2683.57 498.006 2685.99 498.006C2686.45 498.006 2687.02 498.014 2687.7 498.032C2688.38 498.049 2688.9 498.076 2689.25 498.111V504.418C2689.04 504.365 2688.56 504.286 2687.81 504.181C2687.07 504.058 2686.29 503.997 2685.47 503.997C2683.5 503.997 2681.75 504.409 2680.21 505.232C2678.69 506.038 2677.48 507.159 2676.58 508.596C2675.71 510.015 2675.27 511.635 2675.27 513.457V539H2669.07ZM2696.6 539V498.636H2702.59V504.943H2703.12C2703.96 502.788 2705.32 501.115 2707.19 499.924C2709.07 498.715 2711.32 498.111 2713.95 498.111C2716.61 498.111 2718.82 498.715 2720.59 499.924C2722.38 501.115 2723.77 502.788 2724.77 504.943H2725.19C2726.23 502.858 2727.78 501.203 2729.84 499.977C2731.91 498.733 2734.39 498.111 2737.28 498.111C2740.89 498.111 2743.84 499.241 2746.14 501.501C2748.43 503.743 2749.58 507.238 2749.58 511.986V539H2743.38V511.986C2743.38 509.008 2742.56 506.879 2740.93 505.6C2739.3 504.321 2737.39 503.682 2735.18 503.682C2732.34 503.682 2730.14 504.54 2728.58 506.257C2727.02 507.956 2726.24 510.111 2726.24 512.722V539H2719.94V511.355C2719.94 509.06 2719.19 507.212 2717.7 505.81C2716.21 504.391 2714.3 503.682 2711.95 503.682C2710.34 503.682 2708.83 504.111 2707.43 504.969C2706.04 505.828 2704.92 507.019 2704.06 508.543C2703.22 510.05 2702.8 511.793 2702.8 513.773V539H2696.6ZM2799.71 498.636V503.892H2777.95V498.636H2799.71ZM2784.46 539V493.065C2784.46 490.753 2785.01 488.826 2786.09 487.284C2787.18 485.742 2788.59 484.586 2790.32 483.815C2792.06 483.045 2793.89 482.659 2795.82 482.659C2797.34 482.659 2798.58 482.782 2799.55 483.027C2800.51 483.272 2801.23 483.5 2801.7 483.71L2799.92 489.071C2799.6 488.966 2799.16 488.835 2798.6 488.677C2798.06 488.519 2797.34 488.44 2796.45 488.44C2794.4 488.44 2792.92 488.957 2792.01 489.991C2791.11 491.024 2790.67 492.54 2790.67 494.537V539H2784.46ZM2823.13 539.841C2819.49 539.841 2816.29 538.974 2813.54 537.239C2810.81 535.505 2808.67 533.079 2807.13 529.96C2805.6 526.842 2804.84 523.198 2804.84 519.028C2804.84 514.824 2805.6 511.154 2807.13 508.018C2808.67 504.882 2810.81 502.447 2813.54 500.712C2816.29 498.978 2819.49 498.111 2823.13 498.111C2826.78 498.111 2829.96 498.978 2832.7 500.712C2835.45 502.447 2837.59 504.882 2839.11 508.018C2840.65 511.154 2841.42 514.824 2841.42 519.028C2841.42 523.198 2840.65 526.842 2839.11 529.96C2837.59 533.079 2835.45 535.505 2832.7 537.239C2829.96 538.974 2826.78 539.841 2823.13 539.841ZM2823.13 534.27C2825.9 534.27 2828.18 533.56 2829.96 532.141C2831.75 530.722 2833.07 528.857 2833.93 526.544C2834.79 524.232 2835.22 521.726 2835.22 519.028C2835.22 516.33 2834.79 513.817 2833.93 511.487C2833.07 509.156 2831.75 507.273 2829.96 505.837C2828.18 504.4 2825.9 503.682 2823.13 503.682C2820.36 503.682 2818.09 504.4 2816.3 505.837C2814.51 507.273 2813.19 509.156 2812.33 511.487C2811.47 513.817 2811.04 516.33 2811.04 519.028C2811.04 521.726 2811.47 524.232 2812.33 526.544C2813.19 528.857 2814.51 530.722 2816.3 532.141C2818.09 533.56 2820.36 534.27 2823.13 534.27ZM2850.89 539V498.636H2856.88V504.733H2857.3C2858.04 502.736 2859.37 501.115 2861.3 499.871C2863.22 498.628 2865.39 498.006 2867.81 498.006C2868.27 498.006 2868.84 498.014 2869.52 498.032C2870.2 498.049 2870.72 498.076 2871.07 498.111V504.418C2870.86 504.365 2870.38 504.286 2869.63 504.181C2868.89 504.058 2868.11 503.997 2867.29 503.997C2865.32 503.997 2863.57 504.409 2862.03 505.232C2860.51 506.038 2859.3 507.159 2858.4 508.596C2857.53 510.015 2857.09 511.635 2857.09 513.457V539H2850.89Z" fill="white"/>
<path d="M2927.83 507.676L2922.25 509.253C2921.9 508.324 2921.39 507.422 2920.7 506.546C2920.04 505.653 2919.13 504.917 2917.97 504.339C2916.81 503.761 2915.33 503.472 2913.53 503.472C2911.06 503.472 2909 504.041 2907.35 505.18C2905.73 506.301 2904.91 507.729 2904.91 509.463C2904.91 511.005 2905.47 512.222 2906.59 513.116C2907.71 514.009 2909.47 514.754 2911.85 515.349L2917.84 516.821C2921.45 517.697 2924.14 519.037 2925.91 520.842C2927.68 522.629 2928.56 524.932 2928.56 527.753C2928.56 530.065 2927.9 532.133 2926.56 533.955C2925.25 535.777 2923.41 537.213 2921.05 538.264C2918.68 539.315 2915.93 539.841 2912.79 539.841C2908.68 539.841 2905.27 538.947 2902.57 537.161C2899.87 535.374 2898.17 532.763 2897.45 529.33L2903.33 527.858C2903.89 530.03 2904.95 531.66 2906.51 532.746C2908.09 533.832 2910.15 534.375 2912.69 534.375C2915.58 534.375 2917.87 533.762 2919.57 532.536C2921.29 531.292 2922.15 529.803 2922.15 528.068C2922.15 526.667 2921.66 525.493 2920.68 524.547C2919.7 523.583 2918.19 522.865 2916.16 522.392L2909.43 520.815C2905.73 519.939 2903.02 518.582 2901.28 516.742C2899.57 514.885 2898.71 512.564 2898.71 509.778C2898.71 507.501 2899.35 505.486 2900.63 503.734C2901.92 501.982 2903.68 500.607 2905.91 499.609C2908.15 498.61 2910.69 498.111 2913.53 498.111C2917.52 498.111 2920.66 498.987 2922.94 500.739C2925.23 502.491 2926.86 504.803 2927.83 507.676ZM2954.82 539.841C2950.93 539.841 2947.58 538.982 2944.76 537.266C2941.95 535.531 2939.79 533.114 2938.26 530.013C2936.76 526.894 2936 523.268 2936 519.134C2936 514.999 2936.76 511.355 2938.26 508.202C2939.79 505.031 2941.91 502.561 2944.62 500.791C2947.36 499.004 2950.55 498.111 2954.19 498.111C2956.29 498.111 2958.37 498.461 2960.42 499.162C2962.47 499.863 2964.33 501.001 2966.01 502.578C2967.7 504.137 2969.04 506.205 2970.04 508.78C2971.03 511.355 2971.53 514.526 2971.53 518.293V520.92H2940.42V515.56H2965.23C2965.23 513.282 2964.77 511.25 2963.86 509.463C2962.97 507.676 2961.69 506.266 2960.02 505.232C2958.38 504.199 2956.43 503.682 2954.19 503.682C2951.72 503.682 2949.58 504.295 2947.78 505.521C2945.99 506.73 2944.62 508.307 2943.65 510.251C2942.69 512.196 2942.21 514.281 2942.21 516.506V520.08C2942.21 523.128 2942.73 525.712 2943.78 527.832C2944.85 529.934 2946.33 531.537 2948.22 532.641C2950.12 533.727 2952.31 534.27 2954.82 534.27C2956.45 534.27 2957.92 534.042 2959.23 533.587C2960.57 533.114 2961.71 532.413 2962.68 531.484C2963.64 530.538 2964.39 529.365 2964.91 527.963L2970.9 529.645C2970.27 531.677 2969.21 533.464 2967.72 535.006C2966.23 536.53 2964.39 537.721 2962.2 538.58C2960.01 539.42 2957.55 539.841 2954.82 539.841ZM2997.36 539.841C2993.58 539.841 2990.32 538.947 2987.59 537.161C2984.86 535.374 2982.75 532.912 2981.28 529.776C2979.81 526.64 2979.08 523.058 2979.08 519.028C2979.08 514.929 2979.83 511.311 2981.34 508.175C2982.86 505.022 2984.98 502.561 2987.69 500.791C2990.43 499.004 2993.62 498.111 2997.26 498.111C3000.1 498.111 3002.66 498.636 3004.93 499.688C3007.21 500.739 3009.08 502.21 3010.53 504.102C3011.98 505.994 3012.89 508.202 3013.24 510.724H3007.04C3006.56 508.885 3005.51 507.256 3003.88 505.837C3002.27 504.4 3000.1 503.682 2997.36 503.682C2994.95 503.682 2992.83 504.312 2991.01 505.574C2989.2 506.818 2987.79 508.578 2986.77 510.856C2985.78 513.116 2985.28 515.77 2985.28 518.818C2985.28 521.937 2985.77 524.652 2986.75 526.964C2987.75 529.277 2989.15 531.073 2990.95 532.352C2992.77 533.63 2994.91 534.27 2997.36 534.27C2998.98 534.27 3000.44 533.99 3001.75 533.429C3003.07 532.868 3004.18 532.062 3005.09 531.011C3006 529.96 3006.65 528.699 3007.04 527.227H3013.24C3012.89 529.61 3012.02 531.756 3010.64 533.665C3009.27 535.558 3007.46 537.064 3005.2 538.185C3002.95 539.289 3000.34 539.841 2997.36 539.841ZM3047.74 522.497V498.636H3053.94V539H3047.74V532.168H3047.32C3046.37 534.217 3044.9 535.96 3042.91 537.397C3040.91 538.816 3038.39 539.526 3035.34 539.526C3032.81 539.526 3030.57 538.974 3028.61 537.87C3026.65 536.749 3025.11 535.067 3023.98 532.825C3022.86 530.565 3022.3 527.718 3022.3 524.284V498.636H3028.5V523.864C3028.5 526.807 3029.33 529.154 3030.97 530.906C3032.64 532.658 3034.76 533.534 3037.33 533.534C3038.88 533.534 3040.44 533.14 3042.04 532.352C3043.65 531.563 3045 530.354 3046.09 528.725C3047.19 527.096 3047.74 525.02 3047.74 522.497ZM3065.3 539V498.636H3071.29V504.733H3071.71C3072.45 502.736 3073.78 501.115 3075.71 499.871C3077.63 498.628 3079.81 498.006 3082.22 498.006C3082.68 498.006 3083.25 498.014 3083.93 498.032C3084.62 498.049 3085.13 498.076 3085.48 498.111V504.418C3085.27 504.365 3084.79 504.286 3084.04 504.181C3083.3 504.058 3082.52 503.997 3081.7 503.997C3079.74 503.997 3077.98 504.409 3076.44 505.232C3074.92 506.038 3073.71 507.159 3072.82 508.596C3071.94 510.015 3071.5 511.635 3071.5 513.457V539H3065.3ZM3092.83 539V498.636H3099.04V539H3092.83ZM3095.99 491.909C3094.78 491.909 3093.74 491.497 3092.86 490.674C3092 489.851 3091.57 488.861 3091.57 487.705C3091.57 486.548 3092 485.558 3092.86 484.735C3093.74 483.912 3094.78 483.5 3095.99 483.5C3097.2 483.5 3098.23 483.912 3099.09 484.735C3099.96 485.558 3100.4 486.548 3100.4 487.705C3100.4 488.861 3099.96 489.851 3099.09 490.674C3098.23 491.497 3097.2 491.909 3095.99 491.909ZM3127.95 498.636V503.892H3107.03V498.636H3127.95ZM3113.13 488.966H3119.33V527.438C3119.33 529.189 3119.58 530.503 3120.09 531.379C3120.62 532.238 3121.28 532.816 3122.09 533.114C3122.91 533.394 3123.78 533.534 3124.69 533.534C3125.37 533.534 3125.93 533.499 3126.37 533.429C3126.81 533.341 3127.16 533.271 3127.42 533.219L3128.68 538.79C3128.26 538.947 3127.68 539.105 3126.92 539.263C3126.17 539.438 3125.22 539.526 3124.06 539.526C3122.31 539.526 3120.59 539.149 3118.91 538.396C3117.24 537.642 3115.86 536.495 3114.76 534.953C3113.67 533.411 3113.13 531.467 3113.13 529.119V488.966ZM3141.27 554.136C3140.22 554.136 3139.28 554.049 3138.46 553.874C3137.64 553.716 3137.07 553.558 3136.75 553.401L3138.33 547.935C3139.84 548.32 3141.17 548.46 3142.32 548.355C3143.48 548.25 3144.5 547.733 3145.4 546.805C3146.31 545.894 3147.14 544.413 3147.89 542.364L3149.05 539.21L3134.12 498.636H3140.85L3151.99 530.801H3152.41L3163.56 498.636H3170.28L3153.15 544.886C3152.38 546.971 3151.42 548.697 3150.29 550.063C3149.15 551.447 3147.82 552.472 3146.32 553.138C3144.83 553.804 3143.15 554.136 3141.27 554.136ZM3211.16 539.946C3208.6 539.946 3206.28 539.464 3204.2 538.501C3202.11 537.52 3200.46 536.109 3199.23 534.27C3198 532.413 3197.39 530.17 3197.39 527.543C3197.39 525.23 3197.85 523.356 3198.76 521.919C3199.67 520.465 3200.88 519.326 3202.41 518.503C3203.93 517.679 3205.61 517.066 3207.45 516.663C3209.31 516.243 3211.18 515.91 3213.05 515.665C3215.5 515.349 3217.49 515.113 3219.02 514.955C3220.56 514.78 3221.68 514.491 3222.38 514.088C3223.1 513.685 3223.46 512.984 3223.46 511.986V511.776C3223.46 509.183 3222.75 507.168 3221.33 505.732C3219.93 504.295 3217.8 503.577 3214.94 503.577C3211.98 503.577 3209.66 504.225 3207.98 505.521C3206.3 506.818 3205.12 508.202 3204.43 509.673L3198.55 507.571C3199.6 505.118 3201 503.209 3202.75 501.842C3204.52 500.458 3206.45 499.495 3208.53 498.952C3210.63 498.391 3212.7 498.111 3214.73 498.111C3216.03 498.111 3217.52 498.268 3219.2 498.584C3220.9 498.882 3222.54 499.504 3224.11 500.45C3225.71 501.396 3227.03 502.823 3228.08 504.733C3229.13 506.643 3229.66 509.2 3229.66 512.406V539H3223.46V533.534H3223.14C3222.72 534.41 3222.02 535.347 3221.04 536.346C3220.06 537.344 3218.75 538.194 3217.12 538.895C3215.5 539.596 3213.51 539.946 3211.16 539.946ZM3212.11 534.375C3214.56 534.375 3216.63 533.893 3218.31 532.93C3220.01 531.966 3221.29 530.722 3222.14 529.198C3223.02 527.674 3223.46 526.071 3223.46 524.389V518.713C3223.19 519.028 3222.62 519.317 3221.72 519.58C3220.85 519.826 3219.83 520.045 3218.68 520.237C3217.54 520.412 3216.42 520.57 3215.34 520.71C3214.27 520.833 3213.4 520.938 3212.74 521.026C3211.12 521.236 3209.62 521.577 3208.22 522.05C3206.83 522.506 3205.71 523.198 3204.85 524.126C3204.01 525.037 3203.59 526.281 3203.59 527.858C3203.59 530.013 3204.39 531.642 3205.98 532.746C3207.59 533.832 3209.64 534.375 3212.11 534.375ZM3247.18 514.719V539H3240.98V498.636H3246.97V504.943H3247.5C3248.44 502.893 3249.88 501.247 3251.81 500.003C3253.73 498.741 3256.22 498.111 3259.27 498.111C3262 498.111 3264.39 498.671 3266.44 499.793C3268.49 500.896 3270.09 502.578 3271.23 504.838C3272.36 507.08 3272.93 509.919 3272.93 513.352V539H3266.73V513.773C3266.73 510.602 3265.91 508.132 3264.26 506.362C3262.61 504.575 3260.35 503.682 3257.48 503.682C3255.5 503.682 3253.73 504.111 3252.17 504.969C3250.63 505.828 3249.41 507.08 3248.52 508.727C3247.63 510.374 3247.18 512.371 3247.18 514.719ZM3299.51 539.841C3296.14 539.841 3293.17 538.991 3290.6 537.292C3288.02 535.575 3286.01 533.157 3284.56 530.039C3283.1 526.903 3282.37 523.198 3282.37 518.923C3282.37 514.684 3283.1 511.005 3284.56 507.886C3286.01 504.768 3288.03 502.359 3290.63 500.66C3293.22 498.96 3296.21 498.111 3299.61 498.111C3302.24 498.111 3304.32 498.549 3305.84 499.425C3307.38 500.283 3308.56 501.264 3309.36 502.368C3310.19 503.454 3310.82 504.348 3311.28 505.048H3311.81V485.182H3318.01V539H3312.02V532.798H3311.28C3310.82 533.534 3310.18 534.463 3309.34 535.584C3308.49 536.687 3307.29 537.677 3305.74 538.553C3304.18 539.412 3302.1 539.841 3299.51 539.841ZM3300.35 534.27C3302.84 534.27 3304.94 533.622 3306.66 532.325C3308.37 531.011 3309.68 529.198 3310.57 526.886C3311.46 524.556 3311.91 521.866 3311.91 518.818C3311.91 515.805 3311.47 513.168 3310.6 510.908C3309.72 508.631 3308.42 506.862 3306.71 505.6C3304.99 504.321 3302.87 503.682 3300.35 503.682C3297.72 503.682 3295.53 504.356 3293.78 505.705C3292.04 507.037 3290.74 508.85 3289.86 511.145C3289 513.422 3288.58 515.98 3288.58 518.818C3288.58 521.691 3289.01 524.302 3289.89 526.649C3290.78 528.979 3292.1 530.836 3293.83 532.22C3295.58 533.587 3297.76 534.27 3300.35 534.27ZM3358.4 485.182V539H3351.88V485.182H3358.4ZM3368.52 490.963V485.182H3408.88V490.963H3391.96V539H3385.44V490.963H3368.52ZM3455.84 539.841C3451.95 539.841 3448.59 538.982 3445.77 537.266C3442.97 535.531 3440.81 533.114 3439.28 530.013C3437.78 526.894 3437.02 523.268 3437.02 519.134C3437.02 514.999 3437.78 511.355 3439.28 508.202C3440.81 505.031 3442.93 502.561 3445.64 500.791C3448.37 499.004 3451.56 498.111 3455.21 498.111C3457.31 498.111 3459.39 498.461 3461.44 499.162C3463.48 499.863 3465.35 501.001 3467.03 502.578C3468.71 504.137 3470.05 506.205 3471.05 508.78C3472.05 511.355 3472.55 514.526 3472.55 518.293V520.92H3441.44V515.56H3466.24C3466.24 513.282 3465.79 511.25 3464.88 509.463C3463.98 507.676 3462.71 506.266 3461.04 505.232C3459.39 504.199 3457.45 503.682 3455.21 503.682C3452.74 503.682 3450.6 504.295 3448.8 505.521C3447.01 506.73 3445.63 508.307 3444.67 510.251C3443.71 512.196 3443.22 514.281 3443.22 516.506V520.08C3443.22 523.128 3443.75 525.712 3444.8 527.832C3445.87 529.934 3447.35 531.537 3449.24 532.641C3451.13 533.727 3453.33 534.27 3455.84 534.27C3457.47 534.27 3458.94 534.042 3460.25 533.587C3461.58 533.114 3462.73 532.413 3463.69 531.484C3464.66 530.538 3465.4 529.365 3465.93 527.963L3471.92 529.645C3471.29 531.677 3470.23 533.464 3468.74 535.006C3467.25 536.53 3465.41 537.721 3463.22 538.58C3461.03 539.42 3458.57 539.841 3455.84 539.841ZM3488.19 514.719V539H3481.98V498.636H3487.98V504.943H3488.5C3489.45 502.893 3490.88 501.247 3492.81 500.003C3494.74 498.741 3497.23 498.111 3500.27 498.111C3503.01 498.111 3505.4 498.671 3507.45 499.793C3509.5 500.896 3511.09 502.578 3512.23 504.838C3513.37 507.08 3513.94 509.919 3513.94 513.352V539H3507.74V513.773C3507.74 510.602 3506.91 508.132 3505.27 506.362C3503.62 504.575 3501.36 503.682 3498.49 503.682C3496.51 503.682 3494.74 504.111 3493.18 504.969C3491.64 505.828 3490.42 507.08 3489.53 508.727C3488.63 510.374 3488.19 512.371 3488.19 514.719ZM3541.56 554.977C3538.57 554.977 3535.99 554.592 3533.84 553.821C3531.68 553.068 3529.89 552.069 3528.45 550.825C3527.03 549.599 3525.9 548.285 3525.06 546.884L3530 543.415C3530.56 544.151 3531.27 544.991 3532.13 545.938C3532.99 546.901 3534.16 547.733 3535.65 548.434C3537.16 549.152 3539.13 549.511 3541.56 549.511C3544.82 549.511 3547.51 548.723 3549.63 547.146C3551.75 545.57 3552.81 543.099 3552.81 539.736V531.537H3552.29C3551.83 532.273 3551.18 533.184 3550.34 534.27C3549.52 535.339 3548.33 536.293 3546.77 537.134C3545.23 537.958 3543.14 538.369 3540.51 538.369C3537.25 538.369 3534.33 537.598 3531.74 536.057C3529.16 534.515 3527.12 532.273 3525.61 529.33C3524.12 526.386 3523.38 522.812 3523.38 518.608C3523.38 514.473 3524.11 510.873 3525.56 507.808C3527.01 504.724 3529.04 502.342 3531.63 500.66C3534.22 498.96 3537.22 498.111 3540.62 498.111C3543.25 498.111 3545.33 498.549 3546.87 499.425C3548.43 500.283 3549.62 501.264 3550.45 502.368C3551.29 503.454 3551.94 504.348 3552.39 505.048H3553.02V498.636H3559.01V540.156C3559.01 543.625 3558.22 546.446 3556.65 548.618C3555.09 550.808 3552.99 552.411 3550.34 553.427C3547.71 554.46 3544.79 554.977 3541.56 554.977ZM3541.35 532.798C3543.84 532.798 3545.94 532.229 3547.66 531.09C3549.38 529.951 3550.68 528.313 3551.58 526.176C3552.47 524.039 3552.92 521.481 3552.92 518.503C3552.92 515.595 3552.48 513.028 3551.6 510.803C3550.73 508.578 3549.43 506.835 3547.71 505.574C3546 504.312 3543.88 503.682 3541.35 503.682C3538.73 503.682 3536.54 504.348 3534.78 505.679C3533.05 507.01 3531.75 508.797 3530.87 511.04C3530.01 513.282 3529.58 515.77 3529.58 518.503C3529.58 521.306 3530.02 523.785 3530.9 525.94C3531.79 528.077 3533.1 529.759 3534.84 530.985C3536.59 532.194 3538.76 532.798 3541.35 532.798ZM3570.37 539V498.636H3576.57V539H3570.37ZM3573.52 491.909C3572.31 491.909 3571.27 491.497 3570.39 490.674C3569.53 489.851 3569.1 488.861 3569.1 487.705C3569.1 486.548 3569.53 485.558 3570.39 484.735C3571.27 483.912 3572.31 483.5 3573.52 483.5C3574.73 483.5 3575.76 483.912 3576.62 484.735C3577.5 485.558 3577.93 486.548 3577.93 487.705C3577.93 488.861 3577.5 489.851 3576.62 490.674C3575.76 491.497 3574.73 491.909 3573.52 491.909ZM3594.13 514.719V539H3587.93V498.636H3593.92V504.943H3594.44C3595.39 502.893 3596.83 501.247 3598.75 500.003C3600.68 498.741 3603.17 498.111 3606.22 498.111C3608.95 498.111 3611.34 498.671 3613.39 499.793C3615.44 500.896 3617.03 502.578 3618.17 504.838C3619.31 507.08 3619.88 509.919 3619.88 513.352V539H3613.68V513.773C3613.68 510.602 3612.86 508.132 3611.21 506.362C3609.56 504.575 3607.3 503.682 3604.43 503.682C3602.45 503.682 3600.68 504.111 3599.12 504.969C3597.58 505.828 3596.36 507.08 3595.47 508.727C3594.57 510.374 3594.13 512.371 3594.13 514.719ZM3648.14 539.841C3644.25 539.841 3640.89 538.982 3638.07 537.266C3635.27 535.531 3633.11 533.114 3631.58 530.013C3630.07 526.894 3629.32 523.268 3629.32 519.134C3629.32 514.999 3630.07 511.355 3631.58 508.202C3633.11 505.031 3635.23 502.561 3637.94 500.791C3640.67 499.004 3643.86 498.111 3647.51 498.111C3649.61 498.111 3651.68 498.461 3653.73 499.162C3655.78 499.863 3657.65 501.001 3659.33 502.578C3661.01 504.137 3662.35 506.205 3663.35 508.78C3664.35 511.355 3664.85 514.526 3664.85 518.293V520.92H3633.74V515.56H3658.54C3658.54 513.282 3658.09 511.25 3657.18 509.463C3656.28 507.676 3655 506.266 3653.34 505.232C3651.69 504.199 3649.75 503.682 3647.51 503.682C3645.04 503.682 3642.9 504.295 3641.09 505.521C3639.31 506.73 3637.93 508.307 3636.97 510.251C3636 512.196 3635.52 514.281 3635.52 516.506V520.08C3635.52 523.128 3636.05 525.712 3637.1 527.832C3638.17 529.934 3639.65 531.537 3641.54 532.641C3643.43 533.727 3645.63 534.27 3648.14 534.27C3649.77 534.27 3651.24 534.042 3652.55 533.587C3653.88 533.114 3655.03 532.413 3655.99 531.484C3656.96 530.538 3657.7 529.365 3658.23 527.963L3664.22 529.645C3663.59 531.677 3662.53 533.464 3661.04 535.006C3659.55 536.53 3657.71 537.721 3655.52 538.58C3653.33 539.42 3650.87 539.841 3648.14 539.841ZM3691.21 539.841C3687.32 539.841 3683.96 538.982 3681.14 537.266C3678.34 535.531 3676.18 533.114 3674.65 530.013C3673.14 526.894 3672.39 523.268 3672.39 519.134C3672.39 514.999 3673.14 511.355 3674.65 508.202C3676.18 505.031 3678.3 502.561 3681.01 500.791C3683.74 499.004 3686.93 498.111 3690.58 498.111C3692.68 498.111 3694.75 498.461 3696.8 499.162C3698.85 499.863 3700.72 501.001 3702.4 502.578C3704.08 504.137 3705.42 506.205 3706.42 508.78C3707.42 511.355 3707.92 514.526 3707.92 518.293V520.92H3676.81V515.56H3701.61C3701.61 513.282 3701.16 511.25 3700.25 509.463C3699.35 507.676 3698.07 506.266 3696.41 505.232C3694.76 504.199 3692.82 503.682 3690.58 503.682C3688.11 503.682 3685.97 504.295 3684.16 505.521C3682.38 506.73 3681 508.307 3680.04 510.251C3679.07 512.196 3678.59 514.281 3678.59 516.506V520.08C3678.59 523.128 3679.12 525.712 3680.17 527.832C3681.24 529.934 3682.72 531.537 3684.61 532.641C3686.5 533.727 3688.7 534.27 3691.21 534.27C3692.84 534.27 3694.31 534.042 3695.62 533.587C3696.95 533.114 3698.1 532.413 3699.06 531.484C3700.03 530.538 3700.77 529.365 3701.3 527.963L3707.29 529.645C3706.66 531.677 3705.6 533.464 3704.11 535.006C3702.62 536.53 3700.78 537.721 3698.59 538.58C3696.4 539.42 3693.94 539.841 3691.21 539.841ZM3717.35 539V498.636H3723.35V504.733H3723.77C3724.5 502.736 3725.83 501.115 3727.76 499.871C3729.69 498.628 3731.86 498.006 3734.28 498.006C3734.73 498.006 3735.3 498.014 3735.99 498.032C3736.67 498.049 3737.19 498.076 3737.54 498.111V504.418C3737.33 504.365 3736.84 504.286 3736.09 504.181C3735.35 504.058 3734.57 503.997 3733.75 503.997C3731.79 503.997 3730.04 504.409 3728.5 505.232C3726.97 506.038 3725.76 507.159 3724.87 508.596C3723.99 510.015 3723.56 511.635 3723.56 513.457V539H3717.35ZM3773.48 507.676L3767.91 509.253C3767.56 508.324 3767.04 507.422 3766.36 506.546C3765.69 505.653 3764.78 504.917 3763.62 504.339C3762.47 503.761 3760.99 503.472 3759.18 503.472C3756.71 503.472 3754.65 504.041 3753.01 505.18C3751.38 506.301 3750.56 507.729 3750.56 509.463C3750.56 511.005 3751.12 512.222 3752.25 513.116C3753.37 514.009 3755.12 514.754 3757.5 515.349L3763.49 516.821C3767.1 517.697 3769.79 519.037 3771.56 520.842C3773.33 522.629 3774.21 524.932 3774.21 527.753C3774.21 530.065 3773.55 532.133 3772.22 533.955C3770.9 535.777 3769.06 537.213 3766.7 538.264C3764.33 539.315 3761.58 539.841 3758.45 539.841C3754.33 539.841 3750.92 538.947 3748.22 537.161C3745.53 535.374 3743.82 532.763 3743.1 529.33L3748.99 527.858C3749.55 530.03 3750.61 531.66 3752.17 532.746C3753.74 533.832 3755.8 534.375 3758.34 534.375C3761.23 534.375 3763.53 533.762 3765.23 532.536C3766.94 531.292 3767.8 529.803 3767.8 528.068C3767.8 526.667 3767.31 525.493 3766.33 524.547C3765.35 523.583 3763.84 522.865 3761.81 522.392L3755.08 520.815C3751.39 519.939 3748.67 518.582 3746.94 516.742C3745.22 514.885 3744.36 512.564 3744.36 509.778C3744.36 507.501 3745 505.486 3746.28 503.734C3747.58 501.982 3749.34 500.607 3751.56 499.609C3753.8 498.61 3756.34 498.111 3759.18 498.111C3763.18 498.111 3766.31 498.987 3768.59 500.739C3770.89 502.491 3772.51 504.803 3773.48 507.676ZM3788.07 539.42C3786.77 539.42 3785.66 538.956 3784.73 538.028C3783.8 537.099 3783.34 535.987 3783.34 534.69C3783.34 533.394 3783.8 532.281 3784.73 531.353C3785.66 530.424 3786.77 529.96 3788.07 529.96C3789.37 529.96 3790.48 530.424 3791.41 531.353C3792.33 532.281 3792.8 533.394 3792.8 534.69C3792.8 535.549 3792.58 536.337 3792.14 537.055C3791.72 537.774 3791.15 538.352 3790.43 538.79C3789.73 539.21 3788.95 539.42 3788.07 539.42Z" fill="#CBEB00"/>
</svg>
