<svg width="4285" height="1611" viewBox="0 0 4285 1611" fill="none" xmlns="http://www.w3.org/2000/svg">
<rect width="4285" height="1611" rx="60" fill="#1C1C1C"/>
<path fill-rule="evenodd" clip-rule="evenodd" d="M447.346 632.411C442.483 639.173 437.529 646.715 434.149 652.109L430.436 658.035L423.511 659.01C362.28 667.628 316.048 718.178 316.048 778.338C316.048 844.414 371.889 898.956 442 898.956C512.111 898.956 567.952 844.414 567.952 778.338C567.952 761.675 564.432 745.827 558.066 731.411L585.554 719.277C593.566 737.421 598 757.394 598 778.338C598 862.086 527.607 929 442 929C356.393 929 286 862.086 286 778.338C286 704.502 340.772 643.706 412.368 630.394C416.368 624.243 421.342 616.921 426.098 610.582C429.232 606.406 432.59 602.224 435.701 599.049C437.198 597.521 439.16 595.681 441.405 594.206C442.529 593.468 444.244 592.472 446.419 591.791C448.552 591.123 452.246 590.416 456.478 591.774C461.933 593.523 464.968 597.473 466.204 599.258C467.682 601.393 468.746 603.666 469.489 605.416C470.645 608.141 471.788 611.516 472.729 614.293C472.964 614.986 473.186 615.642 473.393 616.241C474.303 618.881 475.057 620.888 475.722 622.363C487.529 625.046 506.492 629.989 519.377 633.347C520.266 633.579 521.127 633.803 521.954 634.019C525.904 631.321 530.551 628.434 535.203 626.078C538.837 624.238 543.165 622.364 547.557 621.368C551.213 620.538 558.902 619.367 565.826 624.111L571.399 627.93L572.241 634.633C576.77 670.722 566.395 712.299 544.388 739.508C533.212 753.326 518.356 764.22 500.162 767.725C481.751 771.273 462.108 766.833 442.431 754.033L458.817 728.849C473.361 738.309 485.188 740.014 494.476 738.224C503.983 736.392 513.057 730.466 521.024 720.616C534.057 704.502 542.27 680.038 543.161 656.058C539.77 658.15 536.54 660.424 534.186 662.236L528.382 666.704L521.287 664.883C518.603 664.195 515.098 663.282 511.12 662.245C496.575 658.456 475.701 653.017 465.479 650.874C456.334 648.956 451.77 641.308 450.073 638.223C449.051 636.364 448.144 634.367 447.346 632.411ZM554.671 650.59C554.665 650.598 554.552 650.622 554.35 650.636C554.575 650.589 554.677 650.582 554.671 650.59ZM476.931 624.569C476.928 624.585 476.838 624.479 476.668 624.204C476.849 624.415 476.934 624.553 476.931 624.569Z" fill="white" fill-opacity="0.87"/>
<path d="M1898.57 883.416C1889.55 883.416 1882.34 880.711 1876.93 875.3C1871.72 869.889 1869.11 862.675 1869.11 853.657V761.375H1828.23V735.223H1869.11V686.227H1900.07V735.223H1944.26V761.375H1900.07V848.246C1900.07 854.258 1902.88 857.264 1908.49 857.264H1939.45V883.416H1898.57Z" fill="white" fill-opacity="0.87"/>
<path d="M1725.74 887.624C1715.12 887.624 1705.6 885.82 1697.18 882.213C1688.96 878.606 1682.35 873.296 1677.34 866.282C1672.53 859.268 1670.13 850.751 1670.13 840.731C1670.13 830.511 1672.53 822.094 1677.34 815.481C1682.35 808.668 1689.06 803.558 1697.48 800.151C1706.1 796.744 1715.82 795.041 1726.64 795.041H1771.73V785.422C1771.73 776.805 1769.12 769.891 1763.91 764.681C1758.7 759.471 1750.69 756.866 1739.86 756.866C1729.24 756.866 1721.13 759.371 1715.52 764.381C1709.91 769.39 1706.2 775.903 1704.39 783.919L1675.54 774.601C1677.94 766.585 1681.75 759.371 1686.96 752.958C1692.37 746.345 1699.48 741.034 1708.3 737.027C1717.12 733.019 1727.74 731.015 1740.17 731.015C1759.4 731.015 1774.53 735.924 1785.55 745.744C1796.58 755.563 1802.09 769.491 1802.09 787.526V848.547C1802.09 854.559 1804.89 857.565 1810.5 857.565H1823.13V883.416H1799.98C1792.97 883.416 1787.26 881.612 1782.85 878.005C1778.44 874.398 1776.24 869.488 1776.24 863.276V862.374H1771.73C1770.12 865.38 1767.72 868.887 1764.51 872.895C1761.31 876.903 1756.6 880.41 1750.39 883.416C1744.17 886.221 1735.96 887.624 1725.74 887.624ZM1730.25 862.073C1742.67 862.073 1752.69 858.567 1760.3 851.553C1767.92 844.338 1771.73 834.519 1771.73 822.094V819.089H1728.44C1720.23 819.089 1713.61 820.892 1708.6 824.499C1703.59 827.906 1701.09 833.016 1701.09 839.83C1701.09 846.643 1703.69 852.054 1708.9 856.062C1714.11 860.069 1721.23 862.073 1730.25 862.073Z" fill="white" fill-opacity="0.87"/>
<path d="M1570.69 887.624C1556.46 887.624 1543.54 884.618 1531.92 878.606C1520.49 872.594 1511.37 863.877 1504.56 852.454C1497.95 841.032 1494.64 827.305 1494.64 811.273V807.365C1494.64 791.334 1497.95 777.707 1504.56 766.485C1511.37 755.062 1520.49 746.345 1531.92 740.333C1543.54 734.121 1556.46 731.015 1570.69 731.015C1584.92 731.015 1597.04 733.62 1607.06 738.83C1617.08 744.04 1625.1 750.954 1631.11 759.571C1637.32 768.188 1641.33 777.707 1643.13 788.127L1613.08 794.44C1612.07 787.827 1609.97 781.815 1606.76 776.404C1603.56 770.994 1599.05 766.685 1593.24 763.479C1587.42 760.272 1580.11 758.669 1571.29 758.669C1562.68 758.669 1554.86 760.673 1547.85 764.681C1541.03 768.489 1535.62 774.1 1531.61 781.514C1527.61 788.729 1525.6 797.546 1525.6 807.967V810.672C1525.6 821.093 1527.61 830.01 1531.61 837.425C1535.62 844.839 1541.03 850.45 1547.85 854.258C1554.86 858.066 1562.68 859.969 1571.29 859.969C1584.32 859.969 1594.24 856.663 1601.05 850.05C1607.87 843.236 1612.17 834.619 1613.98 824.199L1644.04 831.112C1641.63 841.332 1637.32 850.751 1631.11 859.368C1625.1 867.985 1617.08 874.899 1607.06 880.109C1597.04 885.119 1584.92 887.624 1570.69 887.624Z" fill="white" fill-opacity="0.87"/>
<path d="M1394.25 887.624C1379.22 887.624 1366.09 884.518 1354.87 878.305C1343.65 871.893 1334.83 862.975 1328.42 851.553C1322.21 839.93 1319.1 826.503 1319.1 811.273V807.666C1319.1 792.236 1322.21 778.809 1328.42 767.386C1334.63 755.764 1343.25 746.846 1354.27 740.634C1365.49 734.221 1378.42 731.015 1393.05 731.015C1407.27 731.015 1419.7 734.221 1430.32 740.634C1441.14 746.846 1449.56 755.563 1455.57 766.785C1461.58 778.007 1464.59 791.133 1464.59 806.163V817.886H1350.66C1351.06 830.912 1355.37 841.332 1363.59 849.148C1372 856.763 1382.42 860.57 1394.85 860.57C1406.47 860.57 1415.19 857.965 1421 852.755C1427.01 847.545 1431.62 841.533 1434.83 834.719L1460.38 847.946C1457.57 853.557 1453.46 859.468 1448.05 865.681C1442.84 871.893 1435.93 877.103 1427.31 881.311C1418.7 885.52 1407.67 887.624 1394.25 887.624ZM1350.96 794.139H1433.02C1432.22 782.917 1428.22 774.2 1421 767.988C1413.79 761.575 1404.37 758.369 1392.75 758.369C1381.12 758.369 1371.6 761.575 1364.19 767.988C1356.97 774.2 1352.57 782.917 1350.96 794.139Z" fill="white" fill-opacity="0.87"/>
<path d="M1217.26 887.624C1203.03 887.624 1190.11 884.618 1178.48 878.606C1167.06 872.594 1157.94 863.877 1151.13 852.454C1144.52 841.032 1141.21 827.305 1141.21 811.273V807.365C1141.21 791.334 1144.52 777.707 1151.13 766.485C1157.94 755.062 1167.06 746.345 1178.48 740.333C1190.11 734.121 1203.03 731.015 1217.26 731.015C1231.49 731.015 1243.61 733.62 1253.63 738.83C1263.65 744.04 1271.67 750.954 1277.68 759.571C1283.89 768.188 1287.9 777.707 1289.7 788.127L1259.64 794.44C1258.64 787.827 1256.54 781.815 1253.33 776.404C1250.13 770.994 1245.62 766.685 1239.8 763.479C1233.99 760.272 1226.68 758.669 1217.86 758.669C1209.24 758.669 1201.43 760.673 1194.42 764.681C1187.6 768.489 1182.19 774.1 1178.18 781.514C1174.18 788.729 1172.17 797.546 1172.17 807.967V810.672C1172.17 821.093 1174.18 830.01 1178.18 837.425C1182.19 844.839 1187.6 850.45 1194.42 854.258C1201.43 858.066 1209.24 859.969 1217.86 859.969C1230.89 859.969 1240.81 856.663 1247.62 850.05C1254.43 843.236 1258.74 834.619 1260.55 824.199L1290.6 831.112C1288.2 841.332 1283.89 850.751 1277.68 859.368C1271.67 867.985 1263.65 874.899 1253.63 880.109C1243.61 885.119 1231.49 887.624 1217.26 887.624Z" fill="white" fill-opacity="0.87"/>
<path d="M1024.45 887.624C1013.83 887.624 1004.31 885.82 995.894 882.213C987.678 878.606 981.065 873.296 976.055 866.282C971.246 859.268 968.841 850.751 968.841 840.731C968.841 830.511 971.246 822.094 976.055 815.481C981.065 808.668 987.778 803.558 996.195 800.151C1004.81 796.744 1014.53 795.041 1025.35 795.041H1070.44V785.422C1070.44 776.805 1067.84 769.891 1062.63 764.681C1057.42 759.471 1049.4 756.866 1038.58 756.866C1027.96 756.866 1019.84 759.371 1014.23 764.381C1008.62 769.39 1004.91 775.903 1003.11 783.919L974.251 774.601C976.656 766.585 980.464 759.371 985.674 752.958C991.085 746.345 998.199 741.034 1007.02 737.027C1015.83 733.019 1026.45 731.015 1038.88 731.015C1058.12 731.015 1073.25 735.924 1084.27 745.744C1095.29 755.563 1100.8 769.491 1100.8 787.526V848.547C1100.8 854.559 1103.61 857.565 1109.22 857.565H1121.84V883.416H1098.7C1091.68 883.416 1085.97 881.612 1081.56 878.005C1077.15 874.398 1074.95 869.488 1074.95 863.276V862.374H1070.44C1068.84 865.38 1066.43 868.887 1063.23 872.895C1060.02 876.903 1055.31 880.41 1049.1 883.416C1042.89 886.221 1034.67 887.624 1024.45 887.624ZM1028.96 862.073C1041.38 862.073 1051.4 858.567 1059.02 851.553C1066.63 844.338 1070.44 834.519 1070.44 822.094V819.089H1027.16C1018.94 819.089 1012.33 820.892 1007.32 824.499C1002.31 827.906 999.802 833.016 999.802 839.83C999.802 846.643 1002.41 852.054 1007.62 856.062C1012.83 860.069 1019.94 862.073 1028.96 862.073Z" fill="white" fill-opacity="0.87"/>
<path d="M866.323 883.416V735.223H896.683V752.658H901.493C903.897 746.445 907.705 741.937 912.915 739.131C918.326 736.125 924.939 734.622 932.754 734.622H950.489V762.577H931.552C921.532 762.577 913.316 765.383 906.903 770.994C900.491 776.405 897.284 784.821 897.284 796.244V883.416H866.323Z" fill="white" fill-opacity="0.87"/>
<path d="M760.628 883.415V702.458H696V673H857.719V702.458H793.092V883.415H760.628Z" fill="white" fill-opacity="0.87"/>
<path d="M2454.17 723.636C2454.17 731.307 2452.79 737.936 2450.02 743.523C2447.25 749.11 2443.45 753.419 2438.62 756.449C2433.79 759.479 2428.27 760.994 2422.07 760.994C2415.87 760.994 2410.35 759.479 2405.52 756.449C2400.69 753.419 2396.89 749.11 2394.12 743.523C2391.35 737.936 2389.97 731.307 2389.97 723.636C2389.97 715.966 2391.35 709.337 2394.12 703.75C2396.89 698.163 2400.69 693.854 2405.52 690.824C2410.35 687.794 2415.87 686.278 2422.07 686.278C2428.27 686.278 2433.79 687.794 2438.62 690.824C2443.45 693.854 2447.25 698.163 2450.02 703.75C2452.79 709.337 2454.17 715.966 2454.17 723.636ZM2445.65 723.636C2445.65 717.339 2444.59 712.024 2442.49 707.692C2440.4 703.359 2437.57 700.08 2434 697.855C2430.45 695.63 2426.47 694.517 2422.07 694.517C2417.66 694.517 2413.68 695.63 2410.1 697.855C2406.55 700.08 2403.72 703.359 2401.61 707.692C2399.53 712.024 2398.49 717.339 2398.49 723.636C2398.49 729.934 2399.53 735.249 2401.61 739.581C2403.72 743.913 2406.55 747.192 2410.1 749.418C2413.68 751.643 2417.66 752.756 2422.07 752.756C2426.47 752.756 2430.45 751.643 2434 749.418C2437.57 747.192 2440.4 743.913 2442.49 739.581C2444.59 735.249 2445.65 729.934 2445.65 723.636ZM2467.84 780.455V705.455H2475.94V714.119H2476.93C2477.55 713.172 2478.4 711.965 2479.49 710.497C2480.6 709.006 2482.19 707.68 2484.25 706.52C2486.33 705.336 2489.15 704.744 2492.7 704.744C2497.29 704.744 2501.34 705.893 2504.85 708.189C2508.35 710.485 2511.08 713.741 2513.05 717.955C2515.01 722.169 2516 727.14 2516 732.869C2516 738.646 2515.01 743.653 2513.05 747.891C2511.08 752.105 2508.36 755.372 2504.88 757.692C2501.4 759.988 2497.39 761.136 2492.84 761.136C2489.34 761.136 2486.53 760.556 2484.43 759.396C2482.32 758.213 2480.7 756.875 2479.56 755.384C2478.42 753.868 2477.55 752.614 2476.93 751.619H2476.22V780.455H2467.84ZM2476.08 732.727C2476.08 736.847 2476.68 740.481 2477.89 743.629C2479.1 746.754 2480.86 749.205 2483.18 750.98C2485.5 752.732 2488.34 753.608 2491.71 753.608C2495.21 753.608 2498.13 752.685 2500.48 750.838C2502.84 748.968 2504.62 746.458 2505.8 743.31C2507.01 740.137 2507.62 736.61 2507.62 732.727C2507.62 728.892 2507.02 725.436 2505.84 722.358C2504.68 719.257 2502.92 716.806 2500.55 715.007C2498.2 713.184 2495.26 712.273 2491.71 712.273C2488.3 712.273 2485.43 713.137 2483.11 714.865C2480.79 716.57 2479.04 718.961 2477.86 722.038C2476.67 725.092 2476.08 728.655 2476.08 732.727ZM2551.65 761.136C2546.39 761.136 2541.86 759.976 2538.05 757.656C2534.26 755.312 2531.34 752.045 2529.28 747.855C2527.24 743.641 2526.22 738.741 2526.22 733.153C2526.22 727.566 2527.24 722.642 2529.28 718.381C2531.34 714.096 2534.2 710.758 2537.87 708.366C2541.56 705.952 2545.87 704.744 2550.8 704.744C2553.64 704.744 2556.44 705.218 2559.21 706.165C2561.98 707.112 2564.5 708.651 2566.78 710.781C2569.05 712.888 2570.86 715.682 2572.21 719.162C2573.56 722.642 2574.23 726.927 2574.23 732.017V735.568H2532.19V728.324H2565.71C2565.71 725.246 2565.1 722.5 2563.87 720.085C2562.66 717.67 2560.93 715.765 2558.68 714.368C2556.46 712.971 2553.83 712.273 2550.8 712.273C2547.46 712.273 2544.57 713.101 2542.13 714.759C2539.72 716.392 2537.86 718.523 2536.56 721.151C2535.25 723.778 2534.6 726.596 2534.6 729.602V734.432C2534.6 738.551 2535.31 742.043 2536.73 744.908C2538.18 747.749 2540.18 749.915 2542.74 751.406C2545.29 752.874 2548.26 753.608 2551.65 753.608C2553.85 753.608 2555.84 753.3 2557.62 752.685C2559.41 752.045 2560.96 751.098 2562.27 749.844C2563.57 748.565 2564.58 746.979 2565.29 745.085L2573.38 747.358C2572.53 750.104 2571.1 752.519 2569.09 754.602C2567.07 756.662 2564.59 758.272 2561.63 759.432C2558.67 760.568 2555.34 761.136 2551.65 761.136ZM2595.36 727.188V760H2586.98V705.455H2595.08V713.977H2595.79C2597.07 711.207 2599.01 708.982 2601.61 707.301C2604.22 705.597 2607.58 704.744 2611.7 704.744C2615.39 704.744 2618.62 705.502 2621.39 707.017C2624.16 708.509 2626.32 710.781 2627.86 713.835C2629.4 716.866 2630.16 720.701 2630.16 725.341V760H2621.78V725.909C2621.78 721.624 2620.67 718.286 2618.45 715.895C2616.22 713.48 2613.17 712.273 2609.28 712.273C2606.61 712.273 2604.22 712.853 2602.11 714.013C2600.03 715.173 2598.38 716.866 2597.17 719.091C2595.97 721.316 2595.36 724.015 2595.36 727.188ZM2712.24 717.67L2704.71 719.801C2704.24 718.546 2703.54 717.327 2702.62 716.143C2701.72 714.936 2700.49 713.942 2698.92 713.161C2697.36 712.379 2695.36 711.989 2692.92 711.989C2689.58 711.989 2686.8 712.758 2684.58 714.297C2682.38 715.812 2681.27 717.741 2681.27 720.085C2681.27 722.169 2682.03 723.814 2683.55 725.021C2685.06 726.229 2687.43 727.235 2690.65 728.04L2698.75 730.028C2703.62 731.212 2707.26 733.023 2709.65 735.462C2712.04 737.876 2713.23 740.99 2713.23 744.801C2713.23 747.926 2712.34 750.72 2710.54 753.182C2708.76 755.644 2706.27 757.585 2703.08 759.006C2699.88 760.426 2696.17 761.136 2691.93 761.136C2686.36 761.136 2681.76 759.929 2678.11 757.514C2674.47 755.099 2672.16 751.572 2671.19 746.932L2679.14 744.943C2679.9 747.879 2681.33 750.08 2683.44 751.548C2685.57 753.016 2688.35 753.75 2691.79 753.75C2695.69 753.75 2698.79 752.921 2701.09 751.264C2703.41 749.583 2704.57 747.571 2704.57 745.227C2704.57 743.333 2703.91 741.747 2702.58 740.469C2701.26 739.167 2699.22 738.196 2696.47 737.557L2687.38 735.426C2682.39 734.242 2678.72 732.408 2676.37 729.922C2674.05 727.412 2672.89 724.276 2672.89 720.511C2672.89 717.434 2673.76 714.711 2675.49 712.344C2677.24 709.976 2679.62 708.118 2682.62 706.768C2685.65 705.419 2689.09 704.744 2692.92 704.744C2698.32 704.744 2702.56 705.928 2705.64 708.295C2708.74 710.663 2710.94 713.788 2712.24 717.67ZM2748.01 761.136C2743.08 761.136 2738.76 759.964 2735.05 757.621C2731.35 755.277 2728.47 751.998 2726.38 747.784C2724.32 743.57 2723.29 738.646 2723.29 733.011C2723.29 727.33 2724.32 722.37 2726.38 718.132C2728.47 713.894 2731.35 710.604 2735.05 708.26C2738.76 705.916 2743.08 704.744 2748.01 704.744C2752.93 704.744 2757.24 705.916 2760.94 708.26C2764.65 710.604 2767.54 713.894 2769.6 718.132C2771.68 722.37 2772.73 727.33 2772.73 733.011C2772.73 738.646 2771.68 743.57 2769.6 747.784C2767.54 751.998 2764.65 755.277 2760.94 757.621C2757.24 759.964 2752.93 761.136 2748.01 761.136ZM2748.01 753.608C2751.75 753.608 2754.83 752.649 2757.24 750.732C2759.66 748.814 2761.44 746.293 2762.6 743.168C2763.76 740.043 2764.34 736.657 2764.34 733.011C2764.34 729.366 2763.76 725.968 2762.6 722.82C2761.44 719.671 2759.66 717.126 2757.24 715.185C2754.83 713.243 2751.75 712.273 2748.01 712.273C2744.27 712.273 2741.19 713.243 2738.78 715.185C2736.36 717.126 2734.57 719.671 2733.41 722.82C2732.25 725.968 2731.67 729.366 2731.67 733.011C2731.67 736.657 2732.25 740.043 2733.41 743.168C2734.57 746.293 2736.36 748.814 2738.78 750.732C2741.19 752.649 2744.27 753.608 2748.01 753.608ZM2819.89 737.699V705.455H2828.27V760H2819.89V750.767H2819.32C2818.05 753.537 2816.06 755.893 2813.36 757.834C2810.66 759.751 2807.25 760.71 2803.13 760.71C2799.72 760.71 2796.69 759.964 2794.04 758.473C2791.39 756.958 2789.31 754.685 2787.79 751.655C2786.28 748.601 2785.52 744.754 2785.52 740.114V705.455H2793.9V739.545C2793.9 743.523 2795.01 746.695 2797.24 749.062C2799.49 751.43 2802.35 752.614 2805.83 752.614C2807.91 752.614 2810.03 752.081 2812.19 751.016C2814.37 749.95 2816.19 748.317 2817.66 746.115C2819.15 743.913 2819.89 741.108 2819.89 737.699ZM2843.62 760V705.455H2851.72V713.693H2852.29C2853.28 710.994 2855.08 708.804 2857.69 707.124C2860.29 705.443 2863.23 704.602 2866.49 704.602C2867.11 704.602 2867.88 704.614 2868.8 704.638C2869.72 704.661 2870.42 704.697 2870.9 704.744V713.267C2870.61 713.196 2869.96 713.089 2868.94 712.947C2867.95 712.782 2866.9 712.699 2865.78 712.699C2863.13 712.699 2860.76 713.255 2858.68 714.368C2856.62 715.457 2854.99 716.972 2853.78 718.913C2852.6 720.831 2852 723.021 2852 725.483V760H2843.62ZM2901.33 761.136C2896.22 761.136 2891.81 759.929 2888.12 757.514C2884.43 755.099 2881.59 751.773 2879.6 747.536C2877.61 743.298 2876.61 738.456 2876.61 733.011C2876.61 727.472 2877.63 722.583 2879.67 718.345C2881.73 714.084 2884.59 710.758 2888.26 708.366C2891.95 705.952 2896.26 704.744 2901.19 704.744C2905.02 704.744 2908.48 705.455 2911.56 706.875C2914.63 708.295 2917.16 710.284 2919.12 712.841C2921.09 715.398 2922.3 718.381 2922.78 721.79H2914.4C2913.76 719.304 2912.34 717.102 2910.14 715.185C2907.96 713.243 2905.02 712.273 2901.33 712.273C2898.06 712.273 2895.2 713.125 2892.74 714.83C2890.3 716.51 2888.39 718.89 2887.02 721.967C2885.67 725.021 2884.99 728.608 2884.99 732.727C2884.99 736.941 2885.66 740.611 2886.98 743.736C2888.33 746.861 2890.23 749.287 2892.66 751.016C2895.13 752.744 2898.02 753.608 2901.33 753.608C2903.51 753.608 2905.48 753.229 2907.26 752.472C2909.04 751.714 2910.54 750.625 2911.77 749.205C2913 747.784 2913.88 746.08 2914.4 744.091H2922.78C2922.3 747.311 2921.13 750.211 2919.26 752.791C2917.42 755.348 2914.97 757.384 2911.91 758.899C2908.88 760.391 2905.35 761.136 2901.33 761.136ZM2957.9 761.136C2952.64 761.136 2948.11 759.976 2944.3 757.656C2940.51 755.312 2937.59 752.045 2935.53 747.855C2933.49 743.641 2932.47 738.741 2932.47 733.153C2932.47 727.566 2933.49 722.642 2935.53 718.381C2937.59 714.096 2940.45 710.758 2944.12 708.366C2947.81 705.952 2952.12 704.744 2957.05 704.744C2959.89 704.744 2962.69 705.218 2965.46 706.165C2968.23 707.112 2970.75 708.651 2973.03 710.781C2975.3 712.888 2977.11 715.682 2978.46 719.162C2979.81 722.642 2980.48 726.927 2980.48 732.017V735.568H2938.44V728.324H2971.96C2971.96 725.246 2971.35 722.5 2970.12 720.085C2968.91 717.67 2967.18 715.765 2964.93 714.368C2962.71 712.971 2960.08 712.273 2957.05 712.273C2953.71 712.273 2950.82 713.101 2948.38 714.759C2945.97 716.392 2944.11 718.523 2942.81 721.151C2941.5 723.778 2940.85 726.596 2940.85 729.602V734.432C2940.85 738.551 2941.56 742.043 2942.98 744.908C2944.43 747.749 2946.43 749.915 2948.99 751.406C2951.54 752.874 2954.51 753.608 2957.9 753.608C2960.1 753.608 2962.09 753.3 2963.87 752.685C2965.66 752.045 2967.21 751.098 2968.52 749.844C2969.82 748.565 2970.83 746.979 2971.54 745.085L2979.63 747.358C2978.78 750.104 2977.35 752.519 2975.34 754.602C2973.32 756.662 2970.84 758.272 2967.88 759.432C2964.92 760.568 2961.59 761.136 2957.9 761.136ZM3018.52 695.085V687.273H3073.06V695.085H3050.19V760H3041.39V695.085H3018.52ZM3085.52 760V705.455H3093.9V760H3085.52ZM3089.78 696.364C3088.15 696.364 3086.74 695.807 3085.55 694.695C3084.39 693.582 3083.81 692.244 3083.81 690.682C3083.81 689.119 3084.39 687.782 3085.55 686.669C3086.74 685.556 3088.15 685 3089.78 685C3091.41 685 3092.81 685.556 3093.97 686.669C3095.15 687.782 3095.75 689.119 3095.75 690.682C3095.75 692.244 3095.15 693.582 3093.97 694.695C3092.81 695.807 3091.41 696.364 3089.78 696.364ZM3117.63 727.188V760H3109.25V705.455H3117.35V713.977H3118.06C3119.33 711.207 3121.28 708.982 3123.88 707.301C3126.48 705.597 3129.85 704.744 3133.96 704.744C3137.66 704.744 3140.89 705.502 3143.66 707.017C3146.43 708.509 3148.58 710.781 3150.12 713.835C3151.66 716.866 3152.43 720.701 3152.43 725.341V760H3144.05V725.909C3144.05 721.624 3142.94 718.286 3140.71 715.895C3138.49 713.48 3135.43 712.273 3131.55 712.273C3128.87 712.273 3126.48 712.853 3124.38 714.013C3122.29 715.173 3120.65 716.866 3119.44 719.091C3118.23 721.316 3117.63 724.015 3117.63 727.188ZM3190.61 761.136C3185.36 761.136 3180.82 759.976 3177.01 757.656C3173.23 755.312 3170.3 752.045 3168.24 747.855C3166.21 743.641 3165.19 738.741 3165.19 733.153C3165.19 727.566 3166.21 722.642 3168.24 718.381C3170.3 714.096 3173.17 710.758 3176.84 708.366C3180.53 705.952 3184.84 704.744 3189.76 704.744C3192.6 704.744 3195.41 705.218 3198.18 706.165C3200.95 707.112 3203.47 708.651 3205.74 710.781C3208.01 712.888 3209.83 715.682 3211.18 719.162C3212.52 722.642 3213.2 726.927 3213.2 732.017V735.568H3171.15V728.324H3204.68C3204.68 725.246 3204.06 722.5 3202.83 720.085C3201.62 717.67 3199.89 715.765 3197.65 714.368C3195.42 712.971 3192.79 712.273 3189.76 712.273C3186.42 712.273 3183.54 713.101 3181.1 714.759C3178.68 716.392 3176.82 718.523 3175.52 721.151C3174.22 723.778 3173.57 726.596 3173.57 729.602V734.432C3173.57 738.551 3174.28 742.043 3175.7 744.908C3177.14 747.749 3179.14 749.915 3181.7 751.406C3184.26 752.874 3187.23 753.608 3190.61 753.608C3192.82 753.608 3194.8 753.3 3196.58 752.685C3198.38 752.045 3199.93 751.098 3201.23 749.844C3202.53 748.565 3203.54 746.979 3204.25 745.085L3212.35 747.358C3211.49 750.104 3210.06 752.519 3208.05 754.602C3206.04 756.662 3203.55 758.272 3200.59 759.432C3197.63 760.568 3194.31 761.136 3190.61 761.136ZM3264.58 717.67L3257.06 719.801C3256.58 718.546 3255.88 717.327 3254.96 716.143C3254.06 714.936 3252.83 713.942 3251.27 713.161C3249.7 712.379 3247.7 711.989 3245.27 711.989C3241.93 711.989 3239.15 712.758 3236.92 714.297C3234.72 715.812 3233.62 717.741 3233.62 720.085C3233.62 722.169 3234.38 723.814 3235.89 725.021C3237.41 726.229 3239.77 727.235 3242.99 728.04L3251.09 730.028C3255.97 731.212 3259.6 733.023 3261.99 735.462C3264.38 737.876 3265.58 740.99 3265.58 744.801C3265.58 747.926 3264.68 750.72 3262.88 753.182C3261.1 755.644 3258.62 757.585 3255.42 759.006C3252.23 760.426 3248.51 761.136 3244.27 761.136C3238.71 761.136 3234.1 759.929 3230.46 757.514C3226.81 755.099 3224.5 751.572 3223.53 746.932L3231.49 744.943C3232.25 747.879 3233.68 750.08 3235.78 751.548C3237.92 753.016 3240.7 753.75 3244.13 753.75C3248.04 753.75 3251.14 752.921 3253.43 751.264C3255.75 749.583 3256.91 747.571 3256.91 745.227C3256.91 743.333 3256.25 741.747 3254.93 740.469C3253.6 739.167 3251.56 738.196 3248.82 737.557L3239.73 735.426C3234.73 734.242 3231.06 732.408 3228.72 729.922C3226.4 727.412 3225.24 724.276 3225.24 720.511C3225.24 717.434 3226.1 714.711 3227.83 712.344C3229.58 709.976 3231.96 708.118 3234.97 706.768C3238 705.419 3241.43 704.744 3245.27 704.744C3250.66 704.744 3254.9 705.928 3257.98 708.295C3261.08 710.663 3263.28 713.788 3264.58 717.67ZM3332.03 683.864L3308.59 770.938H3300.92L3324.36 683.864H3332.03ZM3411 705.455C3410.57 701.856 3408.84 699.062 3405.81 697.074C3402.78 695.085 3399.07 694.091 3394.66 694.091C3391.44 694.091 3388.63 694.612 3386.21 695.653C3383.82 696.695 3381.95 698.127 3380.6 699.95C3379.27 701.773 3378.61 703.845 3378.61 706.165C3378.61 708.106 3379.07 709.775 3380 711.172C3380.94 712.545 3382.15 713.693 3383.62 714.616C3385.09 715.516 3386.62 716.262 3388.23 716.854C3389.84 717.422 3391.32 717.884 3392.67 718.239L3400.06 720.227C3401.95 720.724 3404.06 721.411 3406.38 722.287C3408.72 723.163 3410.96 724.358 3413.09 725.874C3415.25 727.365 3417.02 729.283 3418.42 731.626C3419.82 733.97 3420.51 736.847 3420.51 740.256C3420.51 744.186 3419.48 747.737 3417.43 750.909C3415.39 754.081 3412.41 756.603 3408.48 758.473C3404.57 760.343 3399.82 761.278 3394.24 761.278C3389.03 761.278 3384.52 760.438 3380.71 758.757C3376.92 757.076 3373.94 754.732 3371.76 751.726C3369.6 748.719 3368.38 745.227 3368.1 741.25H3377.19C3377.43 743.996 3378.35 746.269 3379.96 748.068C3381.59 749.844 3383.65 751.17 3386.14 752.045C3388.65 752.898 3391.35 753.324 3394.24 753.324C3397.6 753.324 3400.62 752.779 3403.29 751.69C3405.97 750.578 3408.09 749.039 3409.65 747.074C3411.21 745.085 3411.99 742.765 3411.99 740.114C3411.99 737.699 3411.32 735.734 3409.97 734.219C3408.62 732.704 3406.84 731.473 3404.64 730.526C3402.44 729.579 3400.06 728.75 3397.5 728.04L3388.55 725.483C3382.87 723.849 3378.37 721.518 3375.06 718.487C3371.75 715.457 3370.09 711.491 3370.09 706.591C3370.09 702.519 3371.19 698.968 3373.39 695.938C3375.62 692.884 3378.6 690.516 3382.34 688.835C3386.1 687.131 3390.31 686.278 3394.95 686.278C3399.63 686.278 3403.8 687.119 3407.45 688.8C3411.09 690.457 3413.98 692.73 3416.11 695.618C3418.27 698.506 3419.4 701.785 3419.52 705.455H3411ZM3433.86 780.455V705.455H3441.95V714.119H3442.95C3443.56 713.172 3444.42 711.965 3445.51 710.497C3446.62 709.006 3448.2 707.68 3450.26 706.52C3452.35 705.336 3455.16 704.744 3458.72 704.744C3463.31 704.744 3467.36 705.893 3470.86 708.189C3474.36 710.485 3477.1 713.741 3479.06 717.955C3481.03 722.169 3482.01 727.14 3482.01 732.869C3482.01 738.646 3481.03 743.653 3479.06 747.891C3477.1 752.105 3474.38 755.372 3470.9 757.692C3467.42 759.988 3463.4 761.136 3458.86 761.136C3455.35 761.136 3452.55 760.556 3450.44 759.396C3448.33 758.213 3446.71 756.875 3445.58 755.384C3444.44 753.868 3443.56 752.614 3442.95 751.619H3442.24V780.455H3433.86ZM3442.1 732.727C3442.1 736.847 3442.7 740.481 3443.91 743.629C3445.12 746.754 3446.88 749.205 3449.2 750.98C3451.52 752.732 3454.36 753.608 3457.72 753.608C3461.23 753.608 3464.15 752.685 3466.49 750.838C3468.86 748.968 3470.64 746.458 3471.82 743.31C3473.03 740.137 3473.63 736.61 3473.63 732.727C3473.63 728.892 3473.04 725.436 3471.86 722.358C3470.7 719.257 3468.93 716.806 3466.56 715.007C3464.22 713.184 3461.27 712.273 3457.72 712.273C3454.31 712.273 3451.45 713.137 3449.13 714.865C3446.81 716.57 3445.06 718.961 3443.87 722.038C3442.69 725.092 3442.1 728.655 3442.1 732.727ZM3503.18 687.273V760H3494.8V687.273H3503.18ZM3552.9 737.699V705.455H3561.28V760H3552.9V750.767H3552.33C3551.05 753.537 3549.07 755.893 3546.37 757.834C3543.67 759.751 3540.26 760.71 3536.14 760.71C3532.73 760.71 3529.7 759.964 3527.05 758.473C3524.4 756.958 3522.31 754.685 3520.8 751.655C3519.28 748.601 3518.53 744.754 3518.53 740.114V705.455H3526.91V739.545C3526.91 743.523 3528.02 746.695 3530.24 749.062C3532.49 751.43 3535.36 752.614 3538.84 752.614C3540.92 752.614 3543.04 752.081 3545.19 751.016C3547.37 749.95 3549.2 748.317 3550.66 746.115C3552.16 743.913 3552.9 741.108 3552.9 737.699ZM3585.01 727.188V760H3576.63V705.455H3584.73V713.977H3585.44C3586.72 711.207 3588.66 708.982 3591.26 707.301C3593.87 705.597 3597.23 704.744 3601.35 704.744C3605.04 704.744 3608.27 705.502 3611.04 707.017C3613.81 708.509 3615.97 710.781 3617.5 713.835C3619.04 716.866 3619.81 720.701 3619.81 725.341V760H3611.43V725.909C3611.43 721.624 3610.32 718.286 3608.09 715.895C3605.87 713.48 3602.82 712.273 3598.93 712.273C3596.26 712.273 3593.87 712.853 3591.76 714.013C3589.68 715.173 3588.03 716.866 3586.82 719.091C3585.62 721.316 3585.01 724.015 3585.01 727.188ZM3642.94 740.114L3642.8 729.744H3644.5L3668.37 705.455H3678.74L3653.31 731.165H3652.6L3642.94 740.114ZM3635.13 760V687.273H3643.51V760H3635.13ZM3669.79 760L3648.48 733.011L3654.45 727.188L3680.44 760H3669.79ZM3758.56 705.455C3758.13 701.856 3756.4 699.062 3753.37 697.074C3750.34 695.085 3746.62 694.091 3742.22 694.091C3739 694.091 3736.18 694.612 3733.77 695.653C3731.38 696.695 3729.51 698.127 3728.16 699.95C3726.83 701.773 3726.17 703.845 3726.17 706.165C3726.17 708.106 3726.63 709.775 3727.55 711.172C3728.5 712.545 3729.71 713.693 3731.18 714.616C3732.64 715.516 3734.18 716.262 3735.79 716.854C3737.4 717.422 3738.88 717.884 3740.23 718.239L3747.62 720.227C3749.51 720.724 3751.62 721.411 3753.94 722.287C3756.28 723.163 3758.52 724.358 3760.65 725.874C3762.81 727.365 3764.58 729.283 3765.98 731.626C3767.37 733.97 3768.07 736.847 3768.07 740.256C3768.07 744.186 3767.04 747.737 3764.98 750.909C3762.95 754.081 3759.96 756.603 3756.03 758.473C3752.13 760.343 3747.38 761.278 3741.79 761.278C3736.59 761.278 3732.08 760.438 3728.26 758.757C3724.48 757.076 3721.49 754.732 3719.32 751.726C3717.16 748.719 3715.94 745.227 3715.66 741.25H3724.75C3724.99 743.996 3725.91 746.269 3727.52 748.068C3729.15 749.844 3731.21 751.17 3733.7 752.045C3736.21 752.898 3738.91 753.324 3741.79 753.324C3745.16 753.324 3748.17 752.779 3750.85 751.69C3753.53 750.578 3755.64 749.039 3757.21 747.074C3758.77 745.085 3759.55 742.765 3759.55 740.114C3759.55 737.699 3758.88 735.734 3757.53 734.219C3756.18 732.704 3754.4 731.473 3752.2 730.526C3750 729.579 3747.62 728.75 3745.06 728.04L3736.11 725.483C3730.43 723.849 3725.93 721.518 3722.62 718.487C3719.3 715.457 3717.65 711.491 3717.65 706.591C3717.65 702.519 3718.75 698.968 3720.95 695.938C3723.17 692.884 3726.16 690.516 3729.9 688.835C3733.66 687.131 3737.86 686.278 3742.5 686.278C3747.19 686.278 3751.36 687.119 3755 688.8C3758.65 690.457 3761.54 692.73 3763.67 695.618C3765.82 698.506 3766.96 701.785 3767.08 705.455H3758.56ZM3843.92 723.636C3843.92 731.307 3842.53 737.936 3839.76 743.523C3836.99 749.11 3833.19 753.419 3828.36 756.449C3823.53 759.479 3818.02 760.994 3811.81 760.994C3805.61 760.994 3800.1 759.479 3795.27 756.449C3790.44 753.419 3786.64 749.11 3783.87 743.523C3781.1 737.936 3779.71 731.307 3779.71 723.636C3779.71 715.966 3781.1 709.337 3783.87 703.75C3786.64 698.163 3790.44 693.854 3795.27 690.824C3800.1 687.794 3805.61 686.278 3811.81 686.278C3818.02 686.278 3823.53 687.794 3828.36 690.824C3833.19 693.854 3836.99 698.163 3839.76 703.75C3842.53 709.337 3843.92 715.966 3843.92 723.636ZM3835.39 723.636C3835.39 717.339 3834.34 712.024 3832.23 707.692C3830.15 703.359 3827.32 700.08 3823.75 697.855C3820.19 695.63 3816.22 694.517 3811.81 694.517C3807.41 694.517 3803.42 695.63 3799.85 697.855C3796.3 700.08 3793.47 703.359 3791.36 707.692C3789.28 712.024 3788.23 717.339 3788.23 723.636C3788.23 729.934 3789.28 735.249 3791.36 739.581C3793.47 743.913 3796.3 747.192 3799.85 749.418C3803.42 751.643 3807.41 752.756 3811.81 752.756C3816.22 752.756 3820.19 751.643 3823.75 749.418C3827.32 747.192 3830.15 743.913 3832.23 739.581C3834.34 735.249 3835.39 729.934 3835.39 723.636ZM3858.29 760H3849.06L3875.76 687.273H3884.85L3911.56 760H3902.32L3880.59 698.778H3880.02L3858.29 760ZM3861.7 731.591H3898.91V739.403H3861.7V731.591ZM3922.88 760V687.273H3947.46C3953.14 687.273 3957.8 688.243 3961.45 690.185C3965.1 692.102 3967.79 694.742 3969.55 698.104C3971.3 701.465 3972.17 705.289 3972.17 709.574C3972.17 713.859 3971.3 717.659 3969.55 720.973C3967.79 724.287 3965.11 726.892 3961.49 728.786C3957.86 730.656 3953.24 731.591 3947.6 731.591H3927.71V723.636H3947.32C3951.2 723.636 3954.32 723.068 3956.69 721.932C3959.08 720.795 3960.81 719.186 3961.88 717.102C3962.97 714.995 3963.51 712.486 3963.51 709.574C3963.51 706.662 3962.97 704.117 3961.88 701.939C3960.79 699.761 3959.05 698.08 3956.66 696.896C3954.27 695.689 3951.1 695.085 3947.17 695.085H3931.69V760H3922.88ZM3957.12 727.33L3975.02 760H3964.79L3947.17 727.33H3957.12ZM2407.72 882.278C2404.27 882.278 2401.13 881.627 2398.31 880.325C2395.49 879 2393.26 877.094 2391.6 874.608C2389.94 872.098 2389.11 869.068 2389.11 865.517C2389.11 862.392 2389.73 859.859 2390.96 857.918C2392.19 855.953 2393.84 854.414 2395.9 853.301C2397.96 852.188 2400.23 851.36 2402.71 850.815C2405.22 850.247 2407.75 849.797 2410.28 849.466C2413.59 849.04 2416.28 848.72 2418.34 848.507C2420.42 848.27 2421.94 847.88 2422.88 847.335C2423.86 846.791 2424.34 845.844 2424.34 844.494V844.21C2424.34 840.706 2423.38 837.984 2421.46 836.043C2419.57 834.101 2416.69 833.131 2412.84 833.131C2408.83 833.131 2405.7 834.007 2403.42 835.759C2401.15 837.51 2399.55 839.381 2398.63 841.369L2390.68 838.528C2392.1 835.214 2393.99 832.634 2396.36 830.787C2398.75 828.917 2401.35 827.615 2404.17 826.881C2407.01 826.123 2409.8 825.744 2412.55 825.744C2414.3 825.744 2416.32 825.957 2418.59 826.384C2420.88 826.786 2423.1 827.626 2425.23 828.905C2427.38 830.183 2429.17 832.113 2430.59 834.693C2432.01 837.274 2432.72 840.73 2432.72 845.062V881H2424.34V873.614H2423.91C2423.35 874.797 2422.4 876.064 2421.07 877.413C2419.75 878.763 2417.98 879.911 2415.78 880.858C2413.58 881.805 2410.89 882.278 2407.72 882.278ZM2409 874.75C2412.31 874.75 2415.11 874.099 2417.38 872.797C2419.68 871.495 2421.41 869.814 2422.57 867.754C2423.75 865.695 2424.34 863.528 2424.34 861.256V853.585C2423.99 854.011 2423.2 854.402 2422 854.757C2420.81 855.089 2419.44 855.384 2417.88 855.645C2416.34 855.882 2414.84 856.095 2413.37 856.284C2411.92 856.45 2410.75 856.592 2409.85 856.71C2407.67 856.994 2405.64 857.456 2403.74 858.095C2401.87 858.711 2400.36 859.646 2399.2 860.901C2398.06 862.132 2397.49 863.812 2397.49 865.943C2397.49 868.855 2398.57 871.057 2400.73 872.548C2402.9 874.016 2405.66 874.75 2409 874.75ZM2456.4 808.273V881H2448.02V808.273H2456.4ZM2495.47 826.455V833.557H2467.2V826.455H2495.47ZM2475.44 813.386H2483.82V865.375C2483.82 867.742 2484.17 869.518 2484.85 870.702C2485.56 871.862 2486.46 872.643 2487.55 873.045C2488.66 873.424 2489.84 873.614 2491.07 873.614C2491.99 873.614 2492.75 873.566 2493.34 873.472C2493.93 873.353 2494.4 873.259 2494.76 873.188L2496.46 880.716C2495.9 880.929 2495.1 881.142 2494.09 881.355C2493.07 881.592 2491.78 881.71 2490.21 881.71C2487.85 881.71 2485.53 881.201 2483.25 880.183C2481.01 879.165 2479.13 877.615 2477.64 875.531C2476.18 873.448 2475.44 870.82 2475.44 867.648V813.386ZM2530.36 882.136C2525.1 882.136 2520.57 880.976 2516.76 878.656C2512.97 876.312 2510.05 873.045 2507.99 868.855C2505.95 864.641 2504.93 859.741 2504.93 854.153C2504.93 848.566 2505.95 843.642 2507.99 839.381C2510.05 835.096 2512.91 831.758 2516.58 829.366C2520.27 826.952 2524.58 825.744 2529.51 825.744C2532.35 825.744 2535.15 826.218 2537.92 827.165C2540.69 828.112 2543.22 829.651 2545.49 831.781C2547.76 833.888 2549.57 836.682 2550.92 840.162C2552.27 843.642 2552.95 847.927 2552.95 853.017V856.568H2510.9V849.324H2544.42C2544.42 846.246 2543.81 843.5 2542.58 841.085C2541.37 838.67 2539.64 836.765 2537.39 835.368C2535.17 833.971 2532.54 833.273 2529.51 833.273C2526.17 833.273 2523.28 834.101 2520.84 835.759C2518.43 837.392 2516.57 839.523 2515.27 842.151C2513.97 844.778 2513.31 847.596 2513.31 850.602V855.432C2513.31 859.551 2514.02 863.043 2515.45 865.908C2516.89 868.749 2518.89 870.915 2521.45 872.406C2524 873.874 2526.97 874.608 2530.36 874.608C2532.56 874.608 2534.55 874.3 2536.33 873.685C2538.13 873.045 2539.68 872.098 2540.98 870.844C2542.28 869.565 2543.29 867.979 2544 866.085L2552.09 868.358C2551.24 871.104 2549.81 873.519 2547.8 875.602C2545.78 877.662 2543.3 879.272 2540.34 880.432C2537.38 881.568 2534.05 882.136 2530.36 882.136ZM2565.69 881V826.455H2573.79V834.693H2574.36C2575.35 831.994 2577.15 829.804 2579.76 828.124C2582.36 826.443 2585.3 825.602 2588.56 825.602C2589.18 825.602 2589.95 825.614 2590.87 825.638C2591.79 825.661 2592.49 825.697 2592.97 825.744V834.267C2592.68 834.196 2592.03 834.089 2591.01 833.947C2590.02 833.782 2588.97 833.699 2587.85 833.699C2585.2 833.699 2582.83 834.255 2580.75 835.368C2578.69 836.457 2577.06 837.972 2575.85 839.913C2574.67 841.831 2574.07 844.021 2574.07 846.483V881H2565.69ZM2611.28 848.188V881H2602.9V826.455H2611V834.977H2611.71C2612.99 832.207 2614.93 829.982 2617.53 828.301C2620.14 826.597 2623.5 825.744 2627.62 825.744C2631.31 825.744 2634.54 826.502 2637.31 828.017C2640.08 829.509 2642.24 831.781 2643.77 834.835C2645.31 837.866 2646.08 841.701 2646.08 846.341V881H2637.7V846.909C2637.7 842.624 2636.59 839.286 2634.36 836.895C2632.14 834.48 2629.08 833.273 2625.2 833.273C2622.53 833.273 2620.14 833.853 2618.03 835.013C2615.95 836.173 2614.3 837.866 2613.09 840.091C2611.89 842.316 2611.28 845.015 2611.28 848.188ZM2677.45 882.278C2673.99 882.278 2670.85 881.627 2668.04 880.325C2665.22 879 2662.98 877.094 2661.33 874.608C2659.67 872.098 2658.84 869.068 2658.84 865.517C2658.84 862.392 2659.46 859.859 2660.69 857.918C2661.92 855.953 2663.56 854.414 2665.62 853.301C2667.68 852.188 2669.96 851.36 2672.44 850.815C2674.95 850.247 2677.47 849.797 2680 849.466C2683.32 849.04 2686.01 848.72 2688.07 848.507C2690.15 848.27 2691.66 847.88 2692.61 847.335C2693.58 846.791 2694.07 845.844 2694.07 844.494V844.21C2694.07 840.706 2693.11 837.984 2691.19 836.043C2689.3 834.101 2686.42 833.131 2682.56 833.131C2678.56 833.131 2675.42 834.007 2673.15 835.759C2670.88 837.51 2669.28 839.381 2668.36 841.369L2660.4 838.528C2661.82 835.214 2663.72 832.634 2666.08 830.787C2668.48 828.917 2671.08 827.615 2673.9 826.881C2676.74 826.123 2679.53 825.744 2682.28 825.744C2684.03 825.744 2686.04 825.957 2688.31 826.384C2690.61 826.786 2692.82 827.626 2694.96 828.905C2697.11 830.183 2698.9 832.113 2700.32 834.693C2701.74 837.274 2702.45 840.73 2702.45 845.062V881H2694.07V873.614H2693.64C2693.07 874.797 2692.13 876.064 2690.8 877.413C2689.47 878.763 2687.71 879.911 2685.51 880.858C2683.31 881.805 2680.62 882.278 2677.45 882.278ZM2678.73 874.75C2682.04 874.75 2684.83 874.099 2687.11 872.797C2689.4 871.495 2691.13 869.814 2692.29 867.754C2693.48 865.695 2694.07 863.528 2694.07 861.256V853.585C2693.71 854.011 2692.93 854.402 2691.72 854.757C2690.54 855.089 2689.17 855.384 2687.6 855.645C2686.07 855.882 2684.56 856.095 2683.09 856.284C2681.65 856.45 2680.48 856.592 2679.58 856.71C2677.4 856.994 2675.36 857.456 2673.47 858.095C2671.6 858.711 2670.09 859.646 2668.93 860.901C2667.79 862.132 2667.22 863.812 2667.22 865.943C2667.22 868.855 2668.3 871.057 2670.45 872.548C2672.63 874.016 2675.39 874.75 2678.73 874.75ZM2741.47 826.455V833.557H2713.2V826.455H2741.47ZM2721.44 813.386H2729.82V865.375C2729.82 867.742 2730.16 869.518 2730.85 870.702C2731.56 871.862 2732.46 872.643 2733.55 873.045C2734.66 873.424 2735.83 873.614 2737.06 873.614C2737.99 873.614 2738.74 873.566 2739.34 873.472C2739.93 873.353 2740.4 873.259 2740.76 873.188L2742.46 880.716C2741.89 880.929 2741.1 881.142 2740.08 881.355C2739.06 881.592 2737.77 881.71 2736.21 881.71C2733.84 881.71 2731.52 881.201 2729.25 880.183C2727 879.165 2725.13 877.615 2723.64 875.531C2722.17 873.448 2721.44 870.82 2721.44 867.648V813.386ZM2754.07 881V826.455H2762.45V881H2754.07ZM2758.33 817.364C2756.7 817.364 2755.29 816.807 2754.11 815.695C2752.95 814.582 2752.37 813.244 2752.37 811.682C2752.37 810.119 2752.95 808.782 2754.11 807.669C2755.29 806.556 2756.7 806 2758.33 806C2759.97 806 2761.36 806.556 2762.52 807.669C2763.71 808.782 2764.3 810.119 2764.3 811.682C2764.3 813.244 2763.71 814.582 2762.52 815.695C2761.36 816.807 2759.97 817.364 2758.33 817.364ZM2822.41 826.455L2802.24 881H2793.71L2773.54 826.455H2782.63L2797.69 869.92H2798.26L2813.31 826.455H2822.41ZM2854.38 882.136C2849.13 882.136 2844.59 880.976 2840.78 878.656C2836.99 876.312 2834.07 873.045 2832.01 868.855C2829.98 864.641 2828.96 859.741 2828.96 854.153C2828.96 848.566 2829.98 843.642 2832.01 839.381C2834.07 835.096 2836.94 831.758 2840.61 829.366C2844.3 826.952 2848.61 825.744 2853.53 825.744C2856.37 825.744 2859.18 826.218 2861.95 827.165C2864.72 828.112 2867.24 829.651 2869.51 831.781C2871.78 833.888 2873.6 836.682 2874.94 840.162C2876.29 843.642 2876.97 847.927 2876.97 853.017V856.568H2834.92V849.324H2868.45C2868.45 846.246 2867.83 843.5 2866.6 841.085C2865.39 838.67 2863.66 836.765 2861.41 835.368C2859.19 833.971 2856.56 833.273 2853.53 833.273C2850.19 833.273 2847.3 834.101 2844.87 835.759C2842.45 837.392 2840.59 839.523 2839.29 842.151C2837.99 844.778 2837.34 847.596 2837.34 850.602V855.432C2837.34 859.551 2838.05 863.043 2839.47 865.908C2840.91 868.749 2842.91 870.915 2845.47 872.406C2848.03 873.874 2851 874.608 2854.38 874.608C2856.59 874.608 2858.57 874.3 2860.35 873.685C2862.15 873.045 2863.7 872.098 2865 870.844C2866.3 869.565 2867.31 867.979 2868.02 866.085L2876.12 868.358C2875.26 871.104 2873.83 873.519 2871.82 875.602C2869.81 877.662 2867.32 879.272 2864.36 880.432C2861.4 881.568 2858.08 882.136 2854.38 882.136ZM2942.13 826.455V833.557H2912.73V826.455H2942.13ZM2921.54 881V818.926C2921.54 815.801 2922.27 813.197 2923.74 811.114C2925.21 809.03 2927.11 807.468 2929.45 806.426C2931.8 805.384 2934.27 804.864 2936.88 804.864C2938.94 804.864 2940.62 805.029 2941.92 805.361C2943.22 805.692 2944.19 806 2944.83 806.284L2942.42 813.528C2941.99 813.386 2941.4 813.209 2940.64 812.996C2939.91 812.783 2938.94 812.676 2937.73 812.676C2934.96 812.676 2932.96 813.375 2931.73 814.771C2930.52 816.168 2929.92 818.216 2929.92 820.915V881H2921.54ZM2973.79 882.136C2968.87 882.136 2964.55 880.964 2960.83 878.621C2957.14 876.277 2954.25 872.998 2952.16 868.784C2950.1 864.57 2949.07 859.646 2949.07 854.011C2949.07 848.33 2950.1 843.37 2952.16 839.132C2954.25 834.894 2957.14 831.604 2960.83 829.26C2964.55 826.916 2968.87 825.744 2973.79 825.744C2978.71 825.744 2983.02 826.916 2986.72 829.26C2990.43 831.604 2993.32 834.894 2995.38 839.132C2997.46 843.37 2998.51 848.33 2998.51 854.011C2998.51 859.646 2997.46 864.57 2995.38 868.784C2993.32 872.998 2990.43 876.277 2986.72 878.621C2983.02 880.964 2978.71 882.136 2973.79 882.136ZM2973.79 874.608C2977.53 874.608 2980.61 873.649 2983.02 871.732C2985.44 869.814 2987.23 867.293 2988.39 864.168C2989.55 861.043 2990.13 857.657 2990.13 854.011C2990.13 850.366 2989.55 846.968 2988.39 843.82C2987.23 840.671 2985.44 838.126 2983.02 836.185C2980.61 834.243 2977.53 833.273 2973.79 833.273C2970.05 833.273 2966.97 834.243 2964.56 836.185C2962.14 838.126 2960.36 840.671 2959.2 843.82C2958.04 846.968 2957.46 850.366 2957.46 854.011C2957.46 857.657 2958.04 861.043 2959.2 864.168C2960.36 867.293 2962.14 869.814 2964.56 871.732C2966.97 873.649 2970.05 874.608 2973.79 874.608ZM3011.3 881V826.455H3019.4V834.693H3019.96C3020.96 831.994 3022.76 829.804 3025.36 828.124C3027.97 826.443 3030.9 825.602 3034.17 825.602C3034.78 825.602 3035.55 825.614 3036.48 825.638C3037.4 825.661 3038.1 825.697 3038.57 825.744V834.267C3038.29 834.196 3037.64 834.089 3036.62 833.947C3035.62 833.782 3034.57 833.699 3033.46 833.699C3030.81 833.699 3028.44 834.255 3026.36 835.368C3024.3 836.457 3022.66 837.972 3021.46 839.913C3020.27 841.831 3019.68 844.021 3019.68 846.483V881H3011.3Z" fill="white"/>
<path d="M3115.27 838.67L3107.74 840.801C3107.27 839.546 3106.57 838.327 3105.64 837.143C3104.74 835.936 3103.51 834.942 3101.95 834.161C3100.39 833.379 3098.39 832.989 3095.95 832.989C3092.61 832.989 3089.83 833.758 3087.6 835.297C3085.4 836.812 3084.3 838.741 3084.3 841.085C3084.3 843.169 3085.06 844.814 3086.57 846.021C3088.09 847.229 3090.46 848.235 3093.68 849.04L3101.77 851.028C3106.65 852.212 3110.28 854.023 3112.68 856.462C3115.07 858.876 3116.26 861.99 3116.26 865.801C3116.26 868.926 3115.36 871.72 3113.56 874.182C3111.79 876.644 3109.3 878.585 3106.11 880.006C3102.91 881.426 3099.19 882.136 3094.96 882.136C3089.39 882.136 3084.79 880.929 3081.14 878.514C3077.5 876.099 3075.19 872.572 3074.22 867.932L3082.17 865.943C3082.93 868.879 3084.36 871.08 3086.47 872.548C3088.6 874.016 3091.38 874.75 3094.81 874.75C3098.72 874.75 3101.82 873.921 3104.12 872.264C3106.44 870.583 3107.6 868.571 3107.6 866.227C3107.6 864.333 3106.93 862.747 3105.61 861.469C3104.28 860.167 3102.25 859.196 3099.5 858.557L3090.41 856.426C3085.41 855.242 3081.75 853.408 3079.4 850.922C3077.08 848.412 3075.92 845.276 3075.92 841.511C3075.92 838.434 3076.79 835.711 3078.51 833.344C3080.27 830.976 3082.64 829.118 3085.65 827.768C3088.68 826.419 3092.11 825.744 3095.95 825.744C3101.35 825.744 3105.58 826.928 3108.66 829.295C3111.76 831.663 3113.97 834.788 3115.27 838.67ZM3151.75 882.136C3146.49 882.136 3141.96 880.976 3138.15 878.656C3134.36 876.312 3131.43 873.045 3129.37 868.855C3127.34 864.641 3126.32 859.741 3126.32 854.153C3126.32 848.566 3127.34 843.642 3129.37 839.381C3131.43 835.096 3134.3 831.758 3137.97 829.366C3141.66 826.952 3145.97 825.744 3150.89 825.744C3153.74 825.744 3156.54 826.218 3159.31 827.165C3162.08 828.112 3164.6 829.651 3166.87 831.781C3169.15 833.888 3170.96 836.682 3172.31 840.162C3173.66 843.642 3174.33 847.927 3174.33 853.017V856.568H3132.29V849.324H3165.81C3165.81 846.246 3165.19 843.5 3163.96 841.085C3162.76 838.67 3161.03 836.765 3158.78 835.368C3156.55 833.971 3153.92 833.273 3150.89 833.273C3147.56 833.273 3144.67 834.101 3142.23 835.759C3139.81 837.392 3137.96 839.523 3136.65 842.151C3135.35 844.778 3134.7 847.596 3134.7 850.602V855.432C3134.7 859.551 3135.41 863.043 3136.83 865.908C3138.28 868.749 3140.28 870.915 3142.83 872.406C3145.39 873.874 3148.36 874.608 3151.75 874.608C3153.95 874.608 3155.94 874.3 3157.71 873.685C3159.51 873.045 3161.06 872.098 3162.36 870.844C3163.67 869.565 3164.67 867.979 3165.38 866.085L3173.48 868.358C3172.63 871.104 3171.2 873.519 3169.18 875.602C3167.17 877.662 3164.68 879.272 3161.73 880.432C3158.77 881.568 3155.44 882.136 3151.75 882.136ZM3209.24 882.136C3204.13 882.136 3199.72 880.929 3196.03 878.514C3192.34 876.099 3189.5 872.773 3187.51 868.536C3185.52 864.298 3184.52 859.456 3184.52 854.011C3184.52 848.472 3185.54 843.583 3187.58 839.345C3189.64 835.084 3192.5 831.758 3196.17 829.366C3199.86 826.952 3204.17 825.744 3209.1 825.744C3212.93 825.744 3216.39 826.455 3219.47 827.875C3222.54 829.295 3225.07 831.284 3227.03 833.841C3229 836.398 3230.22 839.381 3230.69 842.79H3222.31C3221.67 840.304 3220.25 838.102 3218.05 836.185C3215.87 834.243 3212.93 833.273 3209.24 833.273C3205.97 833.273 3203.11 834.125 3200.65 835.83C3198.21 837.51 3196.3 839.89 3194.93 842.967C3193.58 846.021 3192.9 849.608 3192.9 853.727C3192.9 857.941 3193.57 861.611 3194.89 864.736C3196.24 867.861 3198.14 870.287 3200.57 872.016C3203.04 873.744 3205.93 874.608 3209.24 874.608C3211.42 874.608 3213.39 874.229 3215.17 873.472C3216.95 872.714 3218.45 871.625 3219.68 870.205C3220.91 868.784 3221.79 867.08 3222.31 865.091H3230.69C3230.22 868.311 3229.04 871.211 3227.17 873.791C3225.33 876.348 3222.88 878.384 3219.82 879.899C3216.79 881.391 3213.26 882.136 3209.24 882.136ZM3277.31 858.699V826.455H3285.7V881H3277.31V871.767H3276.75C3275.47 874.537 3273.48 876.893 3270.78 878.834C3268.08 880.751 3264.67 881.71 3260.55 881.71C3257.14 881.71 3254.11 880.964 3251.46 879.473C3248.81 877.958 3246.73 875.685 3245.21 872.655C3243.7 869.601 3242.94 865.754 3242.94 861.114V826.455H3251.32V860.545C3251.32 864.523 3252.43 867.695 3254.66 870.062C3256.91 872.43 3259.77 873.614 3263.25 873.614C3265.34 873.614 3267.45 873.081 3269.61 872.016C3271.79 870.95 3273.61 869.317 3275.08 867.115C3276.57 864.913 3277.31 862.108 3277.31 858.699ZM3301.05 881V826.455H3309.14V834.693H3309.71C3310.7 831.994 3312.5 829.804 3315.11 828.124C3317.71 826.443 3320.65 825.602 3323.91 825.602C3324.53 825.602 3325.3 825.614 3326.22 825.638C3327.15 825.661 3327.84 825.697 3328.32 825.744V834.267C3328.03 834.196 3327.38 834.089 3326.37 833.947C3325.37 833.782 3324.32 833.699 3323.2 833.699C3320.55 833.699 3318.19 834.255 3316.1 835.368C3314.04 836.457 3312.41 837.972 3311.2 839.913C3310.02 841.831 3309.43 844.021 3309.43 846.483V881H3301.05ZM3338.25 881V826.455H3346.63V881H3338.25ZM3342.51 817.364C3340.88 817.364 3339.47 816.807 3338.29 815.695C3337.13 814.582 3336.55 813.244 3336.55 811.682C3336.55 810.119 3337.13 808.782 3338.29 807.669C3339.47 806.556 3340.88 806 3342.51 806C3344.15 806 3345.54 806.556 3346.7 807.669C3347.89 808.782 3348.48 810.119 3348.48 811.682C3348.48 813.244 3347.89 814.582 3346.7 815.695C3345.54 816.807 3344.15 817.364 3342.51 817.364ZM3385.7 826.455V833.557H3357.44V826.455H3385.7ZM3365.68 813.386H3374.06V865.375C3374.06 867.742 3374.4 869.518 3375.09 870.702C3375.8 871.862 3376.7 872.643 3377.79 873.045C3378.9 873.424 3380.07 873.614 3381.3 873.614C3382.22 873.614 3382.98 873.566 3383.57 873.472C3384.17 873.353 3384.64 873.259 3384.99 873.188L3386.7 880.716C3386.13 880.929 3385.34 881.142 3384.32 881.355C3383.3 881.592 3382.01 881.71 3380.45 881.71C3378.08 881.71 3375.76 881.201 3373.49 880.183C3371.24 879.165 3369.37 877.615 3367.88 875.531C3366.41 873.448 3365.68 870.82 3365.68 867.648V813.386ZM3403.71 901.455C3402.29 901.455 3401.02 901.336 3399.91 901.099C3398.8 900.886 3398.03 900.673 3397.6 900.46L3399.73 893.074C3401.77 893.595 3403.57 893.784 3405.13 893.642C3406.69 893.5 3408.08 892.802 3409.28 891.547C3410.52 890.316 3411.64 888.315 3412.66 885.545L3414.22 881.284L3394.05 826.455H3403.14L3418.2 869.92H3418.77L3433.82 826.455H3442.91L3419.76 888.955C3418.72 891.772 3417.43 894.104 3415.89 895.95C3414.35 897.821 3412.56 899.205 3410.53 900.105C3408.51 901.005 3406.24 901.455 3403.71 901.455ZM3504.97 882.136C3499.71 882.136 3495.18 880.976 3491.37 878.656C3487.58 876.312 3484.66 873.045 3482.6 868.855C3480.56 864.641 3479.54 859.741 3479.54 854.153C3479.54 848.566 3480.56 843.642 3482.6 839.381C3484.66 835.096 3487.52 831.758 3491.19 829.366C3494.88 826.952 3499.19 825.744 3504.12 825.744C3506.96 825.744 3509.76 826.218 3512.53 827.165C3515.3 828.112 3517.82 829.651 3520.1 831.781C3522.37 833.888 3524.18 836.682 3525.53 840.162C3526.88 843.642 3527.55 847.927 3527.55 853.017V856.568H3485.51V849.324H3519.03C3519.03 846.246 3518.42 843.5 3517.19 841.085C3515.98 838.67 3514.25 836.765 3512 835.368C3509.78 833.971 3507.15 833.273 3504.12 833.273C3500.78 833.273 3497.89 834.101 3495.45 835.759C3493.04 837.392 3491.18 839.523 3489.88 842.151C3488.58 844.778 3487.92 847.596 3487.92 850.602V855.432C3487.92 859.551 3488.63 863.043 3490.05 865.908C3491.5 868.749 3493.5 870.915 3496.06 872.406C3498.61 873.874 3501.58 874.608 3504.97 874.608C3507.17 874.608 3509.16 874.3 3510.94 873.685C3512.73 873.045 3514.29 872.098 3515.59 870.844C3516.89 869.565 3517.9 867.979 3518.61 866.085L3526.7 868.358C3525.85 871.104 3524.42 873.519 3522.41 875.602C3520.39 877.662 3517.91 879.272 3514.95 880.432C3511.99 881.568 3508.66 882.136 3504.97 882.136ZM3548.68 848.188V881H3540.3V826.455H3548.4V834.977H3549.11C3550.39 832.207 3552.33 829.982 3554.93 828.301C3557.54 826.597 3560.9 825.744 3565.02 825.744C3568.71 825.744 3571.94 826.502 3574.71 828.017C3577.48 829.509 3579.64 831.781 3581.18 834.835C3582.72 837.866 3583.49 841.701 3583.49 846.341V881H3575.1V846.909C3575.1 842.624 3573.99 839.286 3571.77 836.895C3569.54 834.48 3566.49 833.273 3562.6 833.273C3559.93 833.273 3557.54 833.853 3555.43 835.013C3553.35 836.173 3551.7 837.866 3550.5 840.091C3549.29 842.316 3548.68 845.015 3548.68 848.188ZM3620.82 902.591C3616.77 902.591 3613.29 902.07 3610.38 901.028C3607.46 900.01 3605.04 898.661 3603.1 896.98C3601.18 895.323 3599.65 893.547 3598.52 891.653L3605.19 886.966C3605.95 887.96 3606.91 889.097 3608.07 890.375C3609.23 891.677 3610.81 892.802 3612.83 893.749C3614.86 894.719 3617.53 895.205 3620.82 895.205C3625.22 895.205 3628.85 894.139 3631.72 892.009C3634.58 889.878 3636.02 886.54 3636.02 881.994V870.915H3635.31C3634.69 871.909 3633.81 873.14 3632.68 874.608C3631.56 876.052 3629.95 877.342 3627.85 878.479C3625.76 879.591 3622.95 880.148 3619.4 880.148C3614.99 880.148 3611.04 879.106 3607.54 877.023C3604.06 874.939 3601.3 871.909 3599.26 867.932C3597.25 863.955 3596.24 859.125 3596.24 853.443C3596.24 847.856 3597.23 842.991 3599.19 838.848C3601.15 834.681 3603.89 831.462 3607.39 829.189C3610.9 826.893 3614.95 825.744 3619.54 825.744C3623.09 825.744 3625.91 826.336 3627.99 827.52C3630.1 828.68 3631.71 830.006 3632.82 831.497C3633.96 832.965 3634.83 834.172 3635.45 835.119H3636.3V826.455H3644.4V882.562C3644.4 887.25 3643.33 891.062 3641.2 893.997C3639.09 896.956 3636.25 899.123 3632.68 900.496C3629.13 901.893 3625.17 902.591 3620.82 902.591ZM3620.53 872.619C3623.89 872.619 3626.73 871.85 3629.06 870.311C3631.38 868.772 3633.14 866.559 3634.35 863.67C3635.55 860.782 3636.16 857.326 3636.16 853.301C3636.16 849.371 3635.57 845.903 3634.38 842.896C3633.2 839.89 3631.45 837.534 3629.13 835.83C3626.81 834.125 3623.94 833.273 3620.53 833.273C3616.98 833.273 3614.02 834.172 3611.65 835.972C3609.31 837.771 3607.55 840.186 3606.36 843.216C3605.2 846.246 3604.62 849.608 3604.62 853.301C3604.62 857.089 3605.22 860.439 3606.4 863.351C3607.61 866.239 3609.38 868.512 3611.73 870.169C3614.09 871.803 3617.03 872.619 3620.53 872.619ZM3659.74 881V826.455H3668.12V881H3659.74ZM3664 817.364C3662.36 817.364 3660.96 816.807 3659.77 815.695C3658.61 814.582 3658.03 813.244 3658.03 811.682C3658.03 810.119 3658.61 808.782 3659.77 807.669C3660.96 806.556 3662.36 806 3664 806C3665.63 806 3667.03 806.556 3668.19 807.669C3669.37 808.782 3669.96 810.119 3669.96 811.682C3669.96 813.244 3669.37 814.582 3668.19 815.695C3667.03 816.807 3665.63 817.364 3664 817.364ZM3691.85 848.188V881H3683.47V826.455H3691.56V834.977H3692.27C3693.55 832.207 3695.49 829.982 3698.1 828.301C3700.7 826.597 3704.06 825.744 3708.18 825.744C3711.88 825.744 3715.11 826.502 3717.88 828.017C3720.65 829.509 3722.8 831.781 3724.34 834.835C3725.88 837.866 3726.65 841.701 3726.65 846.341V881H3718.27V846.909C3718.27 842.624 3717.16 839.286 3714.93 836.895C3712.71 834.48 3709.65 833.273 3705.77 833.273C3703.09 833.273 3700.7 833.853 3698.6 835.013C3696.51 836.173 3694.87 837.866 3693.66 840.091C3692.45 842.316 3691.85 845.015 3691.85 848.188ZM3764.83 882.136C3759.58 882.136 3755.04 880.976 3751.23 878.656C3747.44 876.312 3744.52 873.045 3742.46 868.855C3740.42 864.641 3739.41 859.741 3739.41 854.153C3739.41 848.566 3740.42 843.642 3742.46 839.381C3744.52 835.096 3747.38 831.758 3751.05 829.366C3754.75 826.952 3759.06 825.744 3763.98 825.744C3766.82 825.744 3769.63 826.218 3772.4 827.165C3775.17 828.112 3777.69 829.651 3779.96 831.781C3782.23 833.888 3784.04 836.682 3785.39 840.162C3786.74 843.642 3787.42 847.927 3787.42 853.017V856.568H3745.37V849.324H3778.9C3778.9 846.246 3778.28 843.5 3777.05 841.085C3775.84 838.67 3774.11 836.765 3771.86 835.368C3769.64 833.971 3767.01 833.273 3763.98 833.273C3760.64 833.273 3757.75 834.101 3755.32 835.759C3752.9 837.392 3751.04 839.523 3749.74 842.151C3748.44 844.778 3747.79 847.596 3747.79 850.602V855.432C3747.79 859.551 3748.5 863.043 3749.92 865.908C3751.36 868.749 3753.36 870.915 3755.92 872.406C3758.48 873.874 3761.45 874.608 3764.83 874.608C3767.03 874.608 3769.02 874.3 3770.8 873.685C3772.6 873.045 3774.15 872.098 3775.45 870.844C3776.75 869.565 3777.76 867.979 3778.47 866.085L3786.57 868.358C3785.71 871.104 3784.28 873.519 3782.27 875.602C3780.26 877.662 3777.77 879.272 3774.81 880.432C3771.85 881.568 3768.53 882.136 3764.83 882.136ZM3823.04 882.136C3817.78 882.136 3813.25 880.976 3809.44 878.656C3805.65 876.312 3802.72 873.045 3800.66 868.855C3798.63 864.641 3797.61 859.741 3797.61 854.153C3797.61 848.566 3798.63 843.642 3800.66 839.381C3802.72 835.096 3805.59 831.758 3809.26 829.366C3812.95 826.952 3817.26 825.744 3822.18 825.744C3825.02 825.744 3827.83 826.218 3830.6 827.165C3833.37 828.112 3835.89 829.651 3838.16 831.781C3840.44 833.888 3842.25 836.682 3843.6 840.162C3844.95 843.642 3845.62 847.927 3845.62 853.017V856.568H3803.58V849.324H3837.1C3837.1 846.246 3836.48 843.5 3835.25 841.085C3834.04 838.67 3832.32 836.765 3830.07 835.368C3827.84 833.971 3825.21 833.273 3822.18 833.273C3818.85 833.273 3815.96 834.101 3813.52 835.759C3811.1 837.392 3809.25 839.523 3807.94 842.151C3806.64 844.778 3805.99 847.596 3805.99 850.602V855.432C3805.99 859.551 3806.7 863.043 3808.12 865.908C3809.57 868.749 3811.57 870.915 3814.12 872.406C3816.68 873.874 3819.65 874.608 3823.04 874.608C3825.24 874.608 3827.23 874.3 3829 873.685C3830.8 873.045 3832.35 872.098 3833.65 870.844C3834.96 869.565 3835.96 867.979 3836.67 866.085L3844.77 868.358C3843.92 871.104 3842.48 873.519 3840.47 875.602C3838.46 877.662 3835.97 879.272 3833.01 880.432C3830.06 881.568 3826.73 882.136 3823.04 882.136ZM3858.37 881V826.455H3866.47V834.693H3867.03C3868.03 831.994 3869.83 829.804 3872.43 828.124C3875.04 826.443 3877.97 825.602 3881.24 825.602C3881.85 825.602 3882.62 825.614 3883.55 825.638C3884.47 825.661 3885.17 825.697 3885.64 825.744V834.267C3885.36 834.196 3884.71 834.089 3883.69 833.947C3882.69 833.782 3881.64 833.699 3880.53 833.699C3877.88 833.699 3875.51 834.255 3873.43 835.368C3871.37 836.457 3869.73 837.972 3868.53 839.913C3867.34 841.831 3866.75 844.021 3866.75 846.483V881H3858.37ZM3934.21 838.67L3926.68 840.801C3926.21 839.546 3925.51 838.327 3924.59 837.143C3923.69 835.936 3922.46 834.942 3920.9 834.161C3919.33 833.379 3917.33 832.989 3914.89 832.989C3911.56 832.989 3908.78 833.758 3906.55 835.297C3904.35 836.812 3903.25 838.741 3903.25 841.085C3903.25 843.169 3904 844.814 3905.52 846.021C3907.04 847.229 3909.4 848.235 3912.62 849.04L3920.72 851.028C3925.6 852.212 3929.23 854.023 3931.62 856.462C3934.01 858.876 3935.21 861.99 3935.21 865.801C3935.21 868.926 3934.31 871.72 3932.51 874.182C3930.73 876.644 3928.25 878.585 3925.05 880.006C3921.86 881.426 3918.14 882.136 3913.9 882.136C3908.34 882.136 3903.73 880.929 3900.09 878.514C3896.44 876.099 3894.13 872.572 3893.16 867.932L3901.12 865.943C3901.87 868.879 3903.31 871.08 3905.41 872.548C3907.54 874.016 3910.33 874.75 3913.76 874.75C3917.66 874.75 3920.77 873.921 3923.06 872.264C3925.38 870.583 3926.54 868.571 3926.54 866.227C3926.54 864.333 3925.88 862.747 3924.55 861.469C3923.23 860.167 3921.19 859.196 3918.45 858.557L3909.36 856.426C3904.36 855.242 3900.69 853.408 3898.35 850.922C3896.03 848.412 3894.87 845.276 3894.87 841.511C3894.87 838.434 3895.73 835.711 3897.46 833.344C3899.21 830.976 3901.59 829.118 3904.6 827.768C3907.63 826.419 3911.06 825.744 3914.89 825.744C3920.29 825.744 3924.53 826.928 3927.61 829.295C3930.71 831.663 3932.91 834.788 3934.21 838.67ZM3953.93 881.568C3952.18 881.568 3950.68 880.941 3949.42 879.686C3948.17 878.431 3947.54 876.928 3947.54 875.176C3947.54 873.424 3948.17 871.921 3949.42 870.666C3950.68 869.411 3952.18 868.784 3953.93 868.784C3955.68 868.784 3957.19 869.411 3958.44 870.666C3959.7 871.921 3960.32 873.424 3960.32 875.176C3960.32 876.336 3960.03 877.402 3959.44 878.372C3958.87 879.343 3958.1 880.124 3957.13 880.716C3956.18 881.284 3955.11 881.568 3953.93 881.568Z" fill="#CBEB00"/>
</svg>
